<?xml version="1.0" standalone="no"?>
<!DOCTYPE svg PUBLIC "-//W3C//DTD SVG 1.1//EN" "http://www.w3.org/Graphics/SVG/1.1/DTD/svg11.dtd" >
<svg>
<metadata>
Created by FontForge 20090622 at Tue Oct 16 11:29:11 2018
 By deploy user
Copyright 2015 The Cormorant Project Authors (github.com/CatharsisFonts/Cormorant)
</metadata>
<defs>
<font id="CormorantGaramond-Medium" horiz-adv-x="464" >
  <font-face 
    font-family="Cormorant Garamond Medium"
    font-weight="500"
    font-stretch="normal"
    units-per-em="1000"
    panose-1="0 0 6 0 0 0 0 0 0 0"
    ascent="800"
    descent="-200"
    x-height="386"
    cap-height="625"
    bbox="-356.5 -282.167 1452 927.69"
    underline-thickness="50"
    underline-position="-50"
    unicode-range="U+0020-U+A78C"
  />
<missing-glyph horiz-adv-x="501" 
d="M94 -275v1000h317v-1000h-317zM168 626h65v-38h-66v-32h166v32h-66v38h66v32h-165v-32zM167 426h166v34h-66v69h-100v-103zM200 460v35h33v-35h-33zM167 365h66v-36h-66v-34h100v70h66v33h-166v-33zM301 273h-134v-34h166v99h-32v-65zM233 160h34v24h34v-48h-101v80h-33
v-113h166v113h-100v-56zM167 -70h166v113h-166v-113zM200 -37v48h101v-48h-101zM167 -126h70l-70 -47v-33h166v33h-101l69 47h32v34h-166v-34z" />
    <glyph glyph-name="Aogonek_acutecomb.liga" unicode="&#x104;&#x301;" horiz-adv-x="706" 
d="M249 678q-4 -1 -6 4t1 7q35 18 90 53.5l66 42.5q10 7 56 -15q19 -9 18 -13q-1 -1 -3 -1q-118 -30 -222 -78zM702 9q4 0 4 -5.5t-4 -5.5q-22 0 -53 1.5t-46 1.5q-53 0 -88 -35.5t-35 -91.5q0 -50 27 -83.5t77 -33.5q32 0 54 13q2 2 5.5 -2t1.5 -6q-49 -37 -107 -37
q-57 0 -89.5 29t-32.5 79q0 35 17 65t38.5 48t41.5 41t25.5 43.5t-8.5 55.5l-87 181h-238l-59 -137q-49 -118 84 -118q4 0 4 -6t-4 -6q-19 0 -55 2t-63 2q-25 0 -58.5 -2t-53.5 -2q-4 0 -4 6t4 6q41 0 66.5 25.5t57.5 101.5l212 494q2 3 8 3t7 -3l238 -497
q33 -72 57.5 -99.5t55.5 -27.5zM214 288h219l-116 241z" />
    <glyph glyph-name="Eogonek_acutecomb.liga" unicode="&#x118;&#x301;" horiz-adv-x="540" 
d="M173 679q-4 -2 -6 3t1 7q27 14 53.5 30.5l56 36.5t46.5 30q10 6 54 -15q22 -10 19 -14q0 -1 -2 -1q-108 -27 -222 -77zM498 -222q2 1 4.5 -0.5t3.5 -3.5t-1 -4q-52 -45 -109 -45q-53 0 -83 28t-30 73q0 85 114 174h-354q-2 0 -2 6t2 6q53 0 68 12.5t15 56.5v463
q0 43 -15 56t-68 13q-2 0 -2 6t2 6h406q9 0 9 -9l2 -125q0 -3 -5.5 -3t-5.5 3q-6 54 -37 83t-81 29h-55q-47 0 -62 -13t-15 -50v-204h115q50 0 72.5 17t22.5 55q0 2 6 2t6 -2q0 -22 -0.5 -47t-0.5 -36q0 -15 1 -45.5t1 -48.5q0 -2 -6 -2t-6 2q0 44 -23 63.5t-75 19.5h-113
v-229q0 -38 14 -50.5t59 -12.5h71q53 0 88 33.5t48 94.5q0 2 3 2.5t6 -0.5t3 -3q-9 -65 -9 -134q0 -15 -16 -15h-50q-73 -67 -73 -139q0 -48 24.5 -76t69.5 -28q32 0 61 21z" />
    <glyph glyph-name="IJ_acutecomb.liga" unicode="&#x132;&#x301;" horiz-adv-x="692" 
d="M70 679q-4 -2 -6 3t1 7q27 14 53.5 30.5l56 36.5t46.5 30q10 6 54 -15q22 -10 19 -14q0 -1 -2 -1q-108 -27 -222 -77zM444 679q-4 -2 -6 3t1 7q27 14 53.5 30.5l56 36.5t46.5 30q10 6 54 -15q22 -10 19 -14q0 -1 -2 -1q-108 -27 -222 -77zM199 350q0 -44 14.5 -56.5
t68.5 -12.5q3 0 3 -6t-3 -6q-15 0 -55 1t-66 1q-24 0 -64.5 -1t-55.5 -1q-2 0 -2 6t2 6q53 0 68.5 12.5t15.5 56.5v194q0 43 -15.5 56t-68.5 13q-2 0 -2 6t2 6q15 0 55.5 -1.5t64.5 -1.5q26 0 67 1.5t54 1.5q3 0 3 -6t-3 -6q-52 0 -67.5 -13.5t-15.5 -57.5v-192zM659 625
q2 0 2 -6t-2 -6q-46 0 -59 -13.5t-13 -57.5v-284q0 -129 -66.5 -200t-177.5 -71q-94 0 -160.5 46.5t-66.5 100.5q0 18 10.5 29.5t28.5 11.5q17 0 27.5 -9.5t15 -24.5t8 -33.5t11 -37t20.5 -33.5t39 -24.5t63 -9.5q175 0 175 197v344q0 43 -18 56t-78 13q-3 0 -3 6t3 6
q18 0 62 -1.5t69 -1.5q24 0 60.5 1.5t49.5 1.5z" />
    <glyph glyph-name="Iogonek_acutecomb.liga" unicode="&#x12e;&#x301;" horiz-adv-x="334" 
d="M221 786q10 6 54 -15q22 -10 19 -14q0 -1 -2 -1q-108 -27 -222 -77q-4 -2 -6 3t1 7q27 14 53.5 30.5l56 36.5t46.5 30zM287 613q-52 0 -67.5 -13.5t-15.5 -57.5v-461q0 -44 14.5 -56.5t68.5 -12.5q2 0 2 -6t-2 -6q-14 0 -51 1t-61 1q-43 -62 -43 -132q0 -49 23 -80
t61 -31q24 0 49 19q2 2 5.5 -2t1.5 -6q-46 -45 -97 -45q-49 0 -76 27t-27 73q0 89 87 177q-22 0 -60.5 -1t-52.5 -1q-3 0 -3 6t3 6q53 0 68.5 12.5t15.5 56.5v463q0 43 -15.5 56t-68.5 13q-3 0 -3 6t3 6q15 0 55.5 -1.5t64.5 -1.5q26 0 66.5 1.5t54.5 1.5q2 0 2 -6t-2 -6z
" />
    <glyph glyph-name="J_acutecomb.liga" unicode="J&#x301;" horiz-adv-x="323" 
d="M67 678q-4 -1 -6 4t1 7q35 18 90 53.5l66 42.5q10 7 56 -15q19 -9 18 -13q-1 -1 -3 -1q-118 -30 -222 -78zM208 67q0 -126 -33 -184t-124 -96q-2 -1 -4 1t-2.5 5t0.5 4q50 29 70 88t20 155v504q0 43 -16 56t-69 13q-2 0 -2 6t2 6q17 0 57.5 -1.5t62.5 -1.5q24 0 60.5 1.5
t49.5 1.5q2 0 2 -6t-2 -6q-46 0 -59 -13.5t-13 -57.5v-475z" />
    <glyph glyph-name="uni01EA0301.liga" unicode="&#x1ea;&#x301;" horiz-adv-x="766" 
d="M287 679q-4 -2 -6 3t1 7q27 14 53.5 30.5l56 36.5t46.5 30q10 6 54 -15q22 -10 19 -14q0 -1 -2 -1q-108 -27 -222 -77zM439 -5q-68 -62 -68 -134q0 -48 24.5 -76t69.5 -28q32 0 61 21q2 1 4.5 -0.5t3.5 -3.5t-1 -4q-52 -45 -109 -45q-53 0 -83 28t-30 73q0 80 103 165
q-24 -3 -48 -3q-141 0 -229 94t-88 230q0 78 32 141.5t83.5 102.5t112.5 59.5t124 20.5q142 0 229 -95t87 -222q0 -119 -79.5 -209.5t-198.5 -114.5zM133 347q0 -144 75 -240.5t193 -96.5q101 0 166.5 74.5t65.5 206.5q0 142 -75 231.5t-198 89.5q-107 0 -167 -70.5
t-60 -194.5z" />
    <glyph glyph-name="aogonek_acutecomb.liga" unicode="&#x105;&#x301;" horiz-adv-x="420" 
d="M210 474q0 -2 -3 -2t-5.5 1.5t-2.5 2.5l49 240q2 8 45 14q24 3 22 -3zM414 54q5 2 6.5 -3.5t-2.5 -7.5l-103 -49q-1 -1 -2 -1q-2 -1 -3 -1q-65 -61 -65 -131q0 -48 24.5 -76t69.5 -28q32 0 61 21q2 1 4.5 -0.5t3.5 -3.5t-1 -4q-52 -45 -109 -45q-53 0 -83 28t-30 73
q0 83 109 170q-22 14 -26 61l-50 -33q-45 -31 -85 -31q-38 0 -59 19.5t-21 49.5q0 32 25.5 53.5t81.5 42.5l107 39v66q0 114 -61 114q-33 0 -50 -23t-22 -52q-6 -44 -41 -44q-18 0 -27 9t-9 22q0 38 65.5 72.5t120.5 34.5q41 0 63.5 -26.5t22.5 -76.5v-185q0 -66 39 -66
q18 0 46 12zM228 48l39 24v6v105l-84 -34q-55 -21 -55 -61q0 -24 15.5 -39.5t39.5 -15.5q20 0 45 15z" />
    <glyph glyph-name="eogonek_acutecomb.liga" unicode="&#x119;&#x301;" horiz-adv-x="409" 
d="M202 474q0 -2 -3 -2t-5.5 1.5t-2.5 2.5l49 240q2 8 45 14q24 3 22 -3zM368 -222q2 1 4.5 -0.5t3.5 -3.5t-1 -4q-45 -45 -98 -45q-51 0 -78 26t-27 70q0 86 112 176q-30 -9 -62 -9q-87 0 -137 56.5t-50 136.5q0 89 62 151.5t152 62.5q58 0 88.5 -29.5t30.5 -84.5
q0 -27 -12 -27l-247 -1q-2 -22 -2 -34q0 -87 41 -140t116 -53q46 0 99 32q2 2 5.5 -2.5t1.5 -7.5q-12 -10 -31 -24q-103 -85 -103 -173q0 -95 77 -95q27 0 55 22zM215 375q-42 0 -69 -28.5t-35 -79.5l182 4q0 104 -78 104z" />
    <glyph glyph-name="ij_acutecomb.liga" unicode="&#x133;&#x301;" horiz-adv-x="527" 
d="M135 474q0 -2 -3 -2t-5.5 1.5t-2.5 2.5l49 240q2 8 45 14q24 3 22 -3zM396 474q0 -2 -3 -2t-5.5 1.5t-2.5 2.5l49 240q2 8 45 14q24 3 22 -3zM51 0q-3 0 -3 6t3 6q37 0 49 13.5t12 55.5v186q0 67 -32 67q-17 0 -44 -14q-3 -1 -5 1.5t-2 6t2 4.5l133 62l4 1q3 0 6.5 -3
t3.5 -6q0 -4 -0.5 -20.5t-1 -43t-0.5 -54.5v-187q0 -42 11.5 -55.5t49.5 -13.5q3 0 3 -6t-3 -6q-11 0 -42.5 1t-50.5 1q-20 0 -51 -1t-42 -1zM439 386q0 -4 -0.5 -20.5t-1 -43t-0.5 -54.5v-316q0 -101 -32 -152.5t-115 -81.5q-2 -1 -4.5 4.5t-0.5 6.5q49 21 69 67t20 133
v338q0 67 -31 67q-17 0 -44 -14q-3 -1 -5.5 1.5t-2.5 6t2 4.5l134 62q2 1 3 1q9 0 9 -9z" />
    <glyph glyph-name="iogonek_acutecomb.liga" unicode="&#x12f;&#x301;" horiz-adv-x="271" 
d="M135 474q0 -2 -3 -2t-5.5 1.5t-2.5 2.5l49 240q2 8 45 14q24 3 22 -3zM241 -216q2 2 5.5 -2t1.5 -6q-46 -45 -97 -45q-49 0 -76 27t-27 73q0 85 81 171q-60 -2 -78 -2q-3 0 -3 6t3 6q37 0 49 13.5t12 55.5v186q0 67 -32 67q-17 0 -44 -14q-3 -1 -5 1.5t-2 6t2 4.5l133 62
l4 1q3 0 6.5 -3t3.5 -6q0 -4 -0.5 -20.5t-1 -43t-0.5 -54.5v-187q0 -42 11.5 -55.5t49.5 -13.5q3 0 3 -6t-3 -6q-11 0 -41.5 1t-48.5 1q-39 -59 -39 -126q0 -49 23 -80t61 -31q24 0 49 19z" />
    <glyph glyph-name="j_acutecomb.liga" unicode="j&#x301;" horiz-adv-x="258" 
d="M127 474q0 -2 -3 -2t-5.5 1.5t-2.5 2.5l49 240q2 8 45 14q24 3 22 -3zM170 386q0 -4 -0.5 -20.5t-1 -43t-0.5 -54.5v-316q0 -101 -32 -152.5t-115 -81.5q-2 -1 -4.5 4.5t-0.5 6.5q49 21 69 67t20 133v338q0 67 -31 67q-17 0 -44 -14q-3 -1 -5.5 1.5t-2.5 6t2 4.5l134 62
q2 1 3 1q9 0 9 -9z" />
    <glyph glyph-name="uni01EB0301.liga" unicode="&#x1eb;&#x301;" horiz-adv-x="481" 
d="M239 474q0 -2 -3 -2t-5.5 1.5t-2.5 2.5l49 240q2 8 45 14q24 3 22 -3zM446 193q0 -81 -48.5 -135t-123.5 -67q-52 -66 -52 -139q0 -96 82 -96q33 0 65 22q2 1 4.5 -0.5t3.5 -3.5t-1 -4q-52 -45 -112 -45q-52 0 -79.5 26t-27.5 70q0 82 94 167q-7 -1 -19 -1
q-88 0 -142.5 61.5t-54.5 149.5q0 96 66 148.5t149 52.5q88 0 142 -61.5t54 -144.5zM110 230q0 -95 42.5 -159.5t108.5 -64.5q109 0 109 158q0 96 -43.5 155.5t-109.5 59.5q-51 0 -79 -38t-28 -111z" />
    <glyph glyph-name="T_T.liga" unicode="TT" horiz-adv-x="1150" 
d="M1103 650q1 4 6.5 4t5.5 -4q-9 -74 -9 -187q0 -2 -6 -2t-6 2q-6 79 -36.5 111.5t-97.5 32.5q-58 0 -73 -10.5t-15 -54.5v-461q0 -44 16.5 -56.5t78.5 -12.5q2 0 2 -6t-2 -6q-17 0 -61 1t-72 1q-26 0 -70.5 -1t-61.5 -1q-2 0 -2 6t2 6q60 0 78 13t18 56v463
q0 42 -14.5 52.5t-66.5 10.5q-83 0 -105 -23.5t-28 -120.5q0 -2 -6 -2t-6 2q-1 98 -23 121t-114 23q-49 0 -63.5 -12t-14.5 -53v-461q0 -44 15 -56.5t69 -12.5q2 0 2 -6t-2 -6q-14 0 -54.5 1t-67.5 1q-26 0 -70.5 -1t-60.5 -1q-3 0 -3 6t3 6q60 0 77.5 12.5t17.5 56.5v463
q0 42 -16 52.5t-73 10.5q-61 0 -94 -33t-50 -111q0 -2 -3 -2.5t-6 0.5t-3 2q15 102 15 184q0 5 6 5t6 -5q0 -22 53 -22q86 -3 201 -3q49 0 105.5 1.5t75.5 1.5q65 0 73 6q4 4 5 20q0 4 6 4t6 -4q-1 -19 5.5 -22t48.5 -4q81 -3 190 -3q52 0 112 1.5t81 1.5q68 0 76 25z" />
    <glyph glyph-name="T_h.liga" unicode="Th" horiz-adv-x="1032" 
d="M1010 12q4 0 4 -6t-4 -6q-11 0 -42 1t-50 1t-51 -1t-43 -1q-2 0 -2 6t2 6q38 0 50 13.5t12 55.5v156q0 115 -90 115q-63 0 -116 -58v-213q0 -42 12 -55.5t49 -13.5q4 0 4 -6t-4 -6q-11 0 -42 1t-50 1t-51 -1t-43 -1q-2 0 -2 6t2 6q38 0 50 13.5t12 55.5v513q0 13 -15 13
h-157q-58 0 -73 -11t-15 -54v-461q0 -44 16.5 -56.5t78.5 -12.5q2 0 2 -6t-2 -6q-16 0 -60 1t-73 1q-27 0 -71 -1t-61 -1q-2 0 -2 6t2 6q61 0 78.5 12.5t17.5 56.5v463q0 42 -15.5 52.5t-73.5 10.5q-62 0 -95.5 -33.5t-48.5 -110.5q0 -2 -3 -2.5t-6 0.5t-3 2q14 95 14 184
q0 5 6 5t6 -5q0 -22 54 -22q57 -2 201 -2q145 0 193 2q126 5 154 100q1 3 7.5 2.5t6.5 -3.5v-412q73 85 154 85q54 0 84.5 -32t30.5 -91v-193q0 -42 12 -55.5t49 -13.5z" />
    <glyph glyph-name="f_b.liga" unicode="fb" horiz-adv-x="823" 
d="M626 399q67 0 114 -48.5t47 -136.5q0 -107 -65 -167t-153 -60q-78 0 -140 43l-77 -35q-4 -1 -6 3t2 7q30 20 43 40.5t13 57.5v528q-47 79 -118 79q-69 0 -98 -77q-26 -66 -26 -194v-64q62 3 125 10q7 0 7 -23q0 -5 -1.5 -11.5t-4 -10t-4.5 -3.5q-52 13 -122 15v-271
q0 -44 17 -56.5t80 -12.5q3 0 3 -6t-3 -6q-23 0 -65.5 1t-64.5 1q-19 0 -52.5 -1t-45.5 -1q-3 0 -3 6t3 6q42 0 54.5 13t12.5 56v225q0 36 -12 44.5t-59 8.5q-3 0 -3 7t3 7q40 0 54.5 9.5t15.5 35.5q5 151 50 224q53 84 165 84q83 0 133 -38q12 18 12 40q0 3 6 3t6 -3
l-1 -410q79 81 158 81zM598 6q56 0 86.5 44.5t30.5 128.5q0 89 -34.5 136t-90.5 47q-57 0 -122 -61v-213q54 -82 130 -82z" />
    <glyph glyph-name="f_f.liga" unicode="ff" horiz-adv-x="601" 
d="M615 726q52 0 84.5 -15.5t32.5 -38.5q0 -16 -11.5 -25.5t-26.5 -9.5q-23 0 -43 29q-27 42 -72 42q-56 0 -88.5 -66.5t-32.5 -202.5v-64q62 3 125 10q7 0 7 -23q0 -5 -1.5 -11.5t-4 -10t-4.5 -3.5q-52 13 -122 15v-271q0 -44 17 -56.5t80 -12.5q3 0 3 -6t-3 -6
q-23 0 -65.5 1t-64.5 1q-19 0 -52.5 -1t-45.5 -1q-3 0 -3 6t3 6q42 0 54.5 13t12.5 56v225q0 19 -2 26q-4 14 -17.5 17t-58.5 5q-34 1 -154 1v-274q0 -44 17 -56.5t80 -12.5q3 0 3 -6t-3 -6q-23 0 -65.5 1t-64.5 1q-19 0 -52.5 -1t-45.5 -1q-3 0 -3 6t3 6q42 0 54.5 13
t12.5 56v225q0 36 -12 44.5t-59 8.5q-3 0 -3 7t3 7q40 0 54.5 9.5t15.5 35.5q6 136 68 204.5t169 68.5q73 0 127 -27q53 62 154 62zM393 418q5 124 35 192q-54 64 -128 64q-63 0 -100.5 -60t-37.5 -175v-64q118 0 160 1q35 2 49.5 7t19.5 19q2 8 2 16z" />
    <glyph glyph-name="f_f_b.liga" unicode="ffb" horiz-adv-x="1118" 
d="M922 399q67 0 114 -48.5t47 -136.5q0 -107 -65 -167t-153 -60q-78 0 -140 43l-77 -35q-4 -1 -6 3t2 7q30 20 43 40.5t13 57.5v528q-47 79 -118 79q-69 0 -98 -77q-26 -66 -26 -194v-64q62 3 125 10q7 0 7 -23q0 -5 -1.5 -11.5t-4 -10t-4.5 -3.5q-52 13 -122 15v-271
q0 -44 17 -56.5t80 -12.5q3 0 3 -6t-3 -6q-23 0 -65.5 1t-64.5 1q-19 0 -52.5 -1t-45.5 -1q-3 0 -3 6t3 6q42 0 54.5 13t12.5 56v225q0 19 -2 26q-4 14 -17.5 17t-58.5 5q-34 1 -154 1v-274q0 -44 17 -56.5t80 -12.5q3 0 3 -6t-3 -6q-23 0 -65.5 1t-64.5 1q-19 0 -52.5 -1
t-45.5 -1q-3 0 -3 6t3 6q42 0 54.5 13t12.5 56v225q0 36 -12 44.5t-59 8.5q-3 0 -3 7t3 7q40 0 54.5 9.5t15.5 35.5q6 136 68 204.5t169 68.5q70 0 126 -26q52 61 148 61q83 0 133 -38q12 18 12 40q0 3 6 3t6 -3l-1 -410q79 81 158 81zM393 418q3 122 34 193q-53 63 -127 63
q-63 0 -100.5 -60t-37.5 -175v-64q118 0 160 1q35 2 49.5 7t19.5 19q2 8 2 16zM894 6q56 0 86.5 44.5t30.5 128.5q0 89 -34.5 136t-90.5 47q-57 0 -122 -61v-213q54 -82 130 -82z" />
    <glyph glyph-name="f_f_f.liga" unicode="fff" horiz-adv-x="897" 
d="M911 726q52 0 84 -15.5t32 -38.5q0 -16 -11 -25.5t-26 -9.5q-25 0 -43 29q-27 42 -72 42q-56 0 -88.5 -66.5t-32.5 -202.5v-64q62 3 125 10q7 0 7 -23q0 -5 -1.5 -11.5t-4 -10t-4.5 -3.5q-52 13 -122 15v-271q0 -44 16.5 -56.5t80.5 -12.5q2 0 2 -6t-2 -6q-23 0 -65.5 1
t-64.5 1q-20 0 -53 -1t-45 -1q-4 0 -4 6t4 6q42 0 54.5 13t12.5 56v225q-1 33 -12 39.5t-66 8.5q-35 1 -154 1v-274q0 -44 16.5 -56.5t79.5 -12.5q3 0 3 -6t-3 -6q-22 0 -65 1t-64 1q-20 0 -53.5 -1t-45.5 -1q-2 0 -2 6t2 6q43 0 55.5 13t12.5 56v225q-2 33 -12.5 40
t-65.5 8q-34 1 -154 1v-274q0 -44 17 -56.5t80 -12.5q3 0 3 -6t-3 -6q-23 0 -65.5 1t-64.5 1q-19 0 -52.5 -1t-45.5 -1q-3 0 -3 6t3 6q42 0 54.5 13t12.5 56v225q0 36 -12 44.5t-59 8.5q-3 0 -3 7t3 7q40 0 54.5 9.5t15.5 35.5q6 136 68 204.5t169 68.5q83 0 141 -35
q58 59 154 59q73 0 131 -48q52 59 151 59zM689 418q4 123 36 195q-54 83 -129 83q-64 0 -101 -65.5t-37 -191.5v-64q118 0 159 1q43 2 57 9.5t15 32.5zM392 418q4 112 43 183q-54 73 -135 73q-63 0 -100.5 -60t-37.5 -175v-64q118 0 160 1q39 2 52.5 8t16.5 24q0 1 0.5 3
t0.5 3v1v3z" />
    <glyph glyph-name="f_f_h.liga" unicode="ffh" horiz-adv-x="1115" 
d="M1094 12q3 0 3 -6t-3 -6q-11 0 -42.5 1t-50.5 1t-50.5 -1t-42.5 -1q-3 0 -3 6t3 6q37 0 49 13.5t12 55.5v156q0 115 -90 115q-63 0 -116 -58v-213q0 -42 12 -55.5t50 -13.5q3 0 3 -6t-3 -6q-11 0 -42.5 1t-50.5 1t-50.5 -1t-42.5 -1q-3 0 -3 6t3 6q37 0 49 13.5t12 55.5
v550q-47 79 -118 79q-62 0 -93 -64t-31 -207v-64q62 3 125 10q7 0 7 -23q0 -5 -1.5 -11.5t-4 -10t-4.5 -3.5q-52 13 -122 15v-271q0 -44 17 -56.5t80 -12.5q3 0 3 -6t-3 -6q-23 0 -65.5 1t-64.5 1q-19 0 -52.5 -1t-45.5 -1q-3 0 -3 6t3 6q42 0 54.5 13t12.5 56v225
q0 19 -2 26q-4 14 -17.5 17t-58.5 5q-34 1 -154 1v-274q0 -44 17 -56.5t80 -12.5q3 0 3 -6t-3 -6q-23 0 -65.5 1t-64.5 1q-19 0 -52.5 -1t-45.5 -1q-3 0 -3 6t3 6q42 0 54.5 13t12.5 56v225q0 36 -12 44.5t-59 8.5q-3 0 -3 7t3 7q40 0 54.5 9.5t15.5 35.5q6 136 68 204.5
t169 68.5q70 0 126 -26q51 61 148 61q82 0 132 -37q11 17 11 39q0 3 6 3t6 -3v-416q75 85 154 85q55 0 85 -32t30 -91v-193q0 -42 12 -55.5t50 -13.5zM393 418q5 122 34 193q-52 63 -127 63q-63 0 -100.5 -60t-37.5 -175v-64q118 0 160 1q35 2 49.5 7t19.5 19q2 8 2 16z" />
    <glyph glyph-name="f_f_i.liga" unicode="ffi" horiz-adv-x="864" 
d="M600 709q-64 0 -103 -67t-39 -203v-64q45 1 125 10q7 0 7 -24q0 -6 -2 -12.5t-4.5 -10.5t-3.5 -3q-58 18 -122 21v-275q0 -44 17 -56.5t80 -12.5q3 0 3 -6t-3 -6q-23 0 -65.5 1t-64.5 1q-19 0 -52.5 -1t-45.5 -1q-3 0 -3 6t3 6q42 0 54.5 13t12.5 56v225q0 19 -2 26
q-4 14 -17.5 17t-58.5 5q-34 1 -154 1v-274q0 -44 17 -56.5t80 -12.5q3 0 3 -6t-3 -6q-23 0 -65.5 1t-64.5 1q-19 0 -52.5 -1t-45.5 -1q-3 0 -3 6t3 6q42 0 54.5 13t12.5 56v225q0 36 -12 44.5t-59 8.5q-3 0 -3 7t3 7q40 0 54.5 9.5t15.5 35.5q6 136 68 204.5t169 68.5
q79 0 133 -30q59 65 166 65q58 0 94 -22t36 -54q0 -15 -9 -24t-25 -9q-18 0 -30.5 14.5t-20 31.5t-27.5 31.5t-51 14.5zM393 418q4 116 38 188q-53 68 -131 68q-63 0 -100.5 -60t-37.5 -175v-64q118 0 160 1q35 2 49.5 7t19.5 19q2 8 2 16zM831 12q3 0 3 -6t-3 -6
q-11 0 -42.5 1t-50.5 1q-20 0 -51 -1t-42 -1q-3 0 -3 6t3 6q37 0 49 13.5t12 55.5v186q0 52 -16 63t-59 -10q-3 -1 -5.5 1.5t-2.5 6t2 4.5l134 63q4 2 8 -1.5t4 -7.5t-0.5 -20.5t-1 -43t-0.5 -54.5v-187q0 -42 12 -55.5t50 -13.5z" />
    <glyph glyph-name="f_f_j.liga" unicode="ffj" horiz-adv-x="867" 
d="M606 709q-68 0 -108 -67t-40 -203v-64q62 3 125 10q7 0 7 -23q0 -5 -1.5 -11.5t-4 -10t-4.5 -3.5q-52 13 -122 15v-271q0 -44 17 -56.5t80 -12.5q3 0 3 -6t-3 -6q-23 0 -65.5 1t-64.5 1q-19 0 -52.5 -1t-45.5 -1q-3 0 -3 6t3 6q42 0 54.5 13t12.5 56v225q0 19 -2 26
q-4 14 -17.5 17t-58.5 5q-34 1 -154 1v-274q0 -44 17 -56.5t80 -12.5q3 0 3 -6t-3 -6q-23 0 -65.5 1t-64.5 1q-19 0 -52.5 -1t-45.5 -1q-3 0 -3 6t3 6q42 0 54.5 13t12.5 56v225q0 36 -12 44.5t-59 8.5q-3 0 -3 7t3 7q40 0 54.5 9.5t15.5 35.5q6 136 68 204.5t169 68.5
q78 0 134 -31q60 66 167 66q63 0 101.5 -22t38.5 -54q0 -33 -35 -33q-19 0 -32 14.5t-21 31.5t-29 31.5t-52 14.5zM393 418q3 113 39 187q-54 69 -132 69q-63 0 -100.5 -60t-37.5 -175v-64q118 0 160 1q35 2 49.5 7t19.5 19q2 8 2 16zM768 395q4 2 8 -1.5t4 -7.5t-0.5 -20.5
t-1 -43t-0.5 -54.5v-316q0 -100 -31.5 -149t-115.5 -80q-2 -1 -4.5 4.5t0.5 6.5q49 21 68.5 65t19.5 130v338q0 52 -16 63t-60 -10q-2 -1 -4.5 2t-3 6t2.5 4z" />
    <glyph glyph-name="f_f_k.liga" unicode="ffk" horiz-adv-x="1105" 
d="M1100 12q2 0 2 -6t-2 -6q-11 0 -42.5 1t-50.5 1q-28 0 -66 -1t-51 -1q-2 0 -2 6t2 6q68 0 39 41l-121 164l-45 -36v-100q0 -42 12 -55.5t50 -13.5q3 0 3 -6t-3 -6q-11 0 -42.5 1t-50.5 1t-50.5 -1t-42.5 -1q-3 0 -3 6t3 6q37 0 49 13.5t12 55.5v550q-47 79 -119 79
q-62 0 -92.5 -64t-30.5 -207v-64q62 3 125 10q7 0 7 -23q0 -5 -1.5 -11.5t-4 -10t-4.5 -3.5q-52 13 -122 15v-271q0 -44 17 -56.5t80 -12.5q3 0 3 -6t-3 -6q-23 0 -65.5 1t-64.5 1q-19 0 -52.5 -1t-45.5 -1q-3 0 -3 6t3 6q42 0 54.5 13t12.5 56v225q0 19 -2 26
q-4 14 -17.5 17t-58.5 5q-34 1 -154 1v-274q0 -44 17 -56.5t80 -12.5q3 0 3 -6t-3 -6q-23 0 -65.5 1t-64.5 1q-19 0 -52.5 -1t-45.5 -1q-3 0 -3 6t3 6q42 0 54.5 13t12.5 56v225q0 36 -12 44.5t-59 8.5q-3 0 -3 7t3 7q40 0 54.5 9.5t15.5 35.5q6 136 68 204.5t169 68.5
q71 0 125 -26q52 61 147 61q84 0 134 -37q11 17 11 39q0 3 6 3t6 -3v-531l127 107q37 29 30 49.5t-53 20.5q-3 0 -3 6t3 6q14 0 49.5 -1t66.5 -1q29 0 61.5 1t43.5 1q2 0 2 -6t-2 -6q-86 0 -177 -74l-54 -44l129 -175q50 -69 114 -69zM393 418q5 122 34 193q-53 63 -127 63
q-63 0 -100.5 -60t-37.5 -175v-64q118 0 160 1q35 2 49.5 7t19.5 19q2 8 2 16z" />
    <glyph glyph-name="f_f_l.liga" unicode="ffl" horiz-adv-x="863" 
d="M836 12q3 0 3 -6t-3 -6q-11 0 -43 1t-51 1t-51 -1t-43 -1q-3 0 -3 6t3 6q37 0 49 13.5t12 55.5v548q-51 81 -124 81q-127 0 -127 -271v-64q45 1 125 10q7 0 7 -25q0 -6 -2 -12.5t-4.5 -10t-3.5 -2.5q-58 18 -122 21v-275q0 -44 17 -56.5t80 -12.5q3 0 3 -6t-3 -6
q-23 0 -65.5 1t-64.5 1q-19 0 -52.5 -1t-45.5 -1q-3 0 -3 6t3 6q42 0 54.5 13t12.5 56v225q0 19 -2 26q-4 14 -17.5 17t-58.5 5q-34 1 -154 1v-274q0 -44 17 -56.5t80 -12.5q3 0 3 -6t-3 -6q-23 0 -65.5 1t-64.5 1q-19 0 -52.5 -1t-45.5 -1q-3 0 -3 6t3 6q42 0 54.5 13
t12.5 56v225q0 36 -12 44.5t-59 8.5q-3 0 -3 7t3 7q40 0 54.5 9.5t15.5 35.5q6 136 68 204.5t169 68.5q73 0 127 -27q52 62 150 62q88 0 138 -40q14 20 14 42q0 3 6 3t6 -3v-647q0 -42 11.5 -55.5t49.5 -13.5zM393 418q5 124 35 192q-54 64 -128 64q-63 0 -100.5 -60
t-37.5 -175v-64q118 0 160 1q35 2 49.5 7t19.5 19q2 8 2 16z" />
    <glyph glyph-name="f_f_thorn.liga" unicode="ff&#xfe;" horiz-adv-x="1109" 
d="M920 399q64 0 109 -50t45 -134q0 -111 -68.5 -169.5t-147.5 -58.5q-57 0 -101 22v-203q0 -43 17.5 -56t79.5 -13q2 0 2 -6t-2 -6q-17 0 -60.5 1t-68.5 1q-19 0 -51.5 -1t-43.5 -1q-2 0 -2 6t2 6q40 0 51.5 13t11.5 56v836q-45 68 -112 68q-62 0 -92.5 -64t-30.5 -207v-64
q62 3 125 10q7 0 7 -23q0 -5 -1.5 -11.5t-4 -10t-4.5 -3.5q-52 13 -122 15v-271q0 -44 17 -56.5t80 -12.5q3 0 3 -6t-3 -6q-23 0 -65.5 1t-64.5 1q-19 0 -52.5 -1t-45.5 -1q-3 0 -3 6t3 6q42 0 54.5 13t12.5 56v225q0 19 -2 26q-4 14 -17.5 17t-58.5 5q-34 1 -154 1v-274
q0 -44 17 -56.5t80 -12.5q3 0 3 -6t-3 -6q-23 0 -65.5 1t-64.5 1q-19 0 -52.5 -1t-45.5 -1q-3 0 -3 6t3 6q42 0 54.5 13t12.5 56v225q0 36 -12 44.5t-59 8.5q-3 0 -3 7t3 7q40 0 54.5 9.5t15.5 35.5q6 136 68 204.5t169 68.5q71 0 125 -26q52 61 147 61q81 0 130 -34
q9 16 9 36q0 3 6 3t6 -3v-410q81 81 163 81zM393 418q5 122 34 193q-53 63 -127 63q-63 0 -100.5 -60t-37.5 -175v-64q118 0 160 1q35 2 49.5 7t19.5 19q2 8 2 16zM885 9q53 0 85.5 46t32.5 129q0 82 -37 128t-93 46q-58 0 -116 -58v-232q52 -59 128 -59z" />
    <glyph glyph-name="f_f_t.liga" unicode="fft" horiz-adv-x="920" 
d="M893 54q4 2 7.5 -2.5t-0.5 -7.5q-69 -56 -131 -56q-97 0 -97 84v234q0 30 -12 37q-18 12 -142 13h-60v-275q0 -44 17 -56.5t80 -12.5q3 0 3 -6t-3 -6q-23 0 -65.5 1t-64.5 1q-19 0 -52.5 -1t-45.5 -1q-3 0 -3 6t3 6q42 0 54.5 13t12.5 56v225q0 19 -2 26q-4 14 -17.5 17
t-58.5 5q-34 1 -154 1v-274q0 -44 17 -56.5t80 -12.5q3 0 3 -6t-3 -6q-23 0 -65.5 1t-64.5 1q-19 0 -52.5 -1t-45.5 -1q-3 0 -3 6t3 6q42 0 54.5 13t12.5 56v225q0 36 -12 44.5t-59 8.5q-3 0 -3 7t3 7q40 0 54.5 9.5t15.5 35.5q6 136 68 204.5t169 68.5q73 0 127 -27
q53 62 154 62q52 0 84.5 -15.5t32.5 -38.5q0 -16 -11.5 -25.5t-27.5 -9.5q-23 0 -43 31q-28 41 -71 41q-56 0 -88.5 -67t-32.5 -203v-64q92 0 142 3q62 2 86.5 17.5t34.5 55.5q0 3 7.5 3t7.5 -3v-76q50 1 137 10q7 0 7 -23q0 -5 -1.5 -11.5t-4 -10t-4.5 -3.5q-56 13 -134 15
v-246q0 -80 77 -80q49 0 80 28zM393 418q5 124 35 192q-54 64 -128 64q-63 0 -100.5 -60t-37.5 -175v-64q118 0 160 1q35 2 49.5 7t19.5 19q2 8 2 16z" />
    <glyph glyph-name="f_h.liga" unicode="fh" horiz-adv-x="819" 
d="M798 12q3 0 3 -6t-3 -6q-11 0 -42.5 1t-50.5 1t-50.5 -1t-42.5 -1q-3 0 -3 6t3 6q37 0 49 13.5t12 55.5v156q0 115 -90 115q-63 0 -116 -58v-213q0 -42 12 -55.5t50 -13.5q3 0 3 -6t-3 -6q-11 0 -42.5 1t-50.5 1t-50.5 -1t-42.5 -1q-3 0 -3 6t3 6q37 0 49 13.5t12 55.5
v550q-47 79 -118 79q-62 0 -93 -64t-31 -207v-64q62 3 125 10q7 0 7 -23q0 -5 -1.5 -11.5t-4 -10t-4.5 -3.5q-52 13 -122 15v-271q0 -44 17 -56.5t80 -12.5q3 0 3 -6t-3 -6q-23 0 -65.5 1t-64.5 1q-19 0 -52.5 -1t-45.5 -1q-3 0 -3 6t3 6q42 0 54.5 13t12.5 56v225
q0 36 -12 44.5t-59 8.5q-3 0 -3 7t3 7q40 0 54.5 9.5t15.5 35.5q5 160 57 234t158 74q82 0 132 -37q11 17 11 39q0 3 6 3t6 -3v-416q75 85 154 85q55 0 85 -32t30 -91v-193q0 -42 12 -55.5t50 -13.5z" />
    <glyph glyph-name="f_j.liga" unicode="fj" horiz-adv-x="571" 
d="M310 709q-68 0 -108 -67t-40 -203v-64q62 3 125 10q7 0 7 -23q0 -5 -1.5 -11.5t-4 -10t-4.5 -3.5q-52 13 -122 15v-271q0 -44 17 -56.5t80 -12.5q3 0 3 -6t-3 -6q-23 0 -65.5 1t-64.5 1q-19 0 -52.5 -1t-45.5 -1q-3 0 -3 6t3 6q42 0 54.5 13t12.5 56v225q0 36 -12 44.5
t-59 8.5q-3 0 -3 7t3 7q40 0 54.5 9.5t15.5 35.5q10 308 242 308q63 0 101.5 -22t38.5 -54q0 -33 -35 -33q-19 0 -32 14.5t-21 31.5t-29 31.5t-52 14.5zM472 395q4 2 8 -1.5t4 -7.5t-0.5 -20.5t-1 -43t-0.5 -54.5v-316q0 -100 -31.5 -149t-115.5 -80q-2 -1 -4.5 4.5t0.5 6.5
q49 21 68.5 65t19.5 130v338q0 52 -16 63t-60 -10q-2 -1 -4.5 2t-3 6t2.5 4z" />
    <glyph glyph-name="f_k.liga" unicode="fk" horiz-adv-x="809" 
d="M804 12q2 0 2 -6t-2 -6q-11 0 -42.5 1t-50.5 1q-28 0 -66 -1t-51 -1q-2 0 -2 6t2 6q68 0 39 41l-121 164l-45 -36v-100q0 -42 12 -55.5t50 -13.5q3 0 3 -6t-3 -6q-11 0 -42.5 1t-50.5 1t-50.5 -1t-42.5 -1q-3 0 -3 6t3 6q37 0 49 13.5t12 55.5v550q-47 79 -119 79
q-62 0 -92.5 -64t-30.5 -207v-64q62 3 125 10q7 0 7 -23q0 -5 -1.5 -11.5t-4 -10t-4.5 -3.5q-52 13 -122 15v-271q0 -44 17 -56.5t80 -12.5q3 0 3 -6t-3 -6q-23 0 -65.5 1t-64.5 1q-19 0 -52.5 -1t-45.5 -1q-3 0 -3 6t3 6q42 0 54.5 13t12.5 56v225q0 36 -12 44.5t-59 8.5
q-3 0 -3 7t3 7q40 0 54.5 9.5t15.5 35.5q5 160 56.5 234t156.5 74q84 0 134 -37q11 17 11 39q0 3 6 3t6 -3v-531l127 107q37 29 30 49.5t-53 20.5q-3 0 -3 6t3 6q14 0 49.5 -1t66.5 -1q29 0 61.5 1t43.5 1q2 0 2 -6t-2 -6q-86 0 -177 -74l-54 -44l129 -175q50 -69 114 -69z
" />
    <glyph glyph-name="f_thorn.liga" unicode="f&#xfe;" horiz-adv-x="813" 
d="M624 399q64 0 109 -50t45 -134q0 -111 -68.5 -169.5t-147.5 -58.5q-57 0 -101 22v-203q0 -43 17.5 -56t79.5 -13q2 0 2 -6t-2 -6q-17 0 -60.5 1t-68.5 1q-19 0 -51.5 -1t-43.5 -1q-2 0 -2 6t2 6q40 0 51.5 13t11.5 56v836q-45 68 -112 68q-62 0 -92.5 -64t-30.5 -207v-64
q62 3 125 10q7 0 7 -23q0 -5 -1.5 -11.5t-4 -10t-4.5 -3.5q-52 13 -122 15v-271q0 -44 17 -56.5t80 -12.5q3 0 3 -6t-3 -6q-23 0 -65.5 1t-64.5 1q-19 0 -52.5 -1t-45.5 -1q-3 0 -3 6t3 6q42 0 54.5 13t12.5 56v225q0 36 -12 44.5t-59 8.5q-3 0 -3 7t3 7q40 0 54.5 9.5
t15.5 35.5q5 160 56.5 234t156.5 74q81 0 130 -34q9 16 9 36q0 3 6 3t6 -3v-410q81 81 163 81zM589 9q53 0 85.5 46t32.5 129q0 82 -37 128t-93 46q-58 0 -116 -58v-232q52 -59 128 -59z" />
    <glyph glyph-name="f_t.liga" unicode="ft" horiz-adv-x="624" 
d="M597 54q4 2 7.5 -2.5t-0.5 -7.5q-69 -56 -131 -56q-97 0 -97 84v234q0 30 -12 37q-18 12 -142 13h-60v-275q0 -44 17 -56.5t80 -12.5q3 0 3 -6t-3 -6q-23 0 -65.5 1t-64.5 1q-19 0 -52.5 -1t-45.5 -1q-3 0 -3 6t3 6q42 0 54.5 13t12.5 56v225q0 36 -12 44.5t-59 8.5
q-3 0 -3 7t3 7q40 0 54.5 9.5t15.5 35.5q5 163 59.5 235.5t162.5 72.5q52 0 84.5 -15.5t32.5 -38.5q0 -16 -11.5 -25.5t-27.5 -9.5q-23 0 -43 31q-28 41 -71 41q-56 0 -88.5 -67t-32.5 -203v-64q93 0 142 3q62 2 86.5 17.5t34.5 55.5q0 3 7.5 3t7.5 -3v-76q50 1 137 10
q7 0 7 -23q0 -5 -1.5 -11.5t-4 -10t-4.5 -3.5q-56 13 -134 15v-246q0 -80 77 -80q49 0 80 28z" />
    <glyph glyph-name="fi.liga" unicode="fi" horiz-adv-x="569" 
d="M304 709q-64 0 -103 -67t-39 -203v-64q45 1 125 10q7 0 7 -24q0 -6 -2 -12.5t-4.5 -10.5t-3.5 -3q-58 18 -122 21v-275q0 -44 17 -56.5t80 -12.5q3 0 3 -6t-3 -6q-23 0 -65.5 1t-64.5 1q-19 0 -52.5 -1t-45.5 -1q-3 0 -3 6t3 6q42 0 54.5 13t12.5 56v225q0 36 -12 44.5
t-59 8.5q-3 0 -3 7t3 7q40 0 54.5 9.5t15.5 35.5q10 308 240 308q58 0 94 -22t36 -54q0 -15 -9 -24t-25 -9q-18 0 -30.5 14.5t-20 31.5t-27.5 31.5t-51 14.5zM535 12q3 0 3 -6t-3 -6q-11 0 -42.5 1t-50.5 1q-20 0 -51 -1t-42 -1q-3 0 -3 6t3 6q37 0 49 13.5t12 55.5v186
q0 52 -16 63t-59 -10q-3 -1 -5.5 1.5t-2.5 6t2 4.5l134 63q4 2 8 -1.5t4 -7.5t-0.5 -20.5t-1 -43t-0.5 -54.5v-187q0 -42 12 -55.5t50 -13.5z" />
    <glyph glyph-name="fl.liga" unicode="fl" horiz-adv-x="567" 
d="M540 12q3 0 3 -6t-3 -6q-11 0 -43 1t-51 1t-51 -1t-43 -1q-3 0 -3 6t3 6q37 0 49 13.5t12 55.5v548q-51 81 -124 81q-127 0 -127 -271v-64q45 1 125 10q7 0 7 -25q0 -6 -2 -12.5t-4.5 -10t-3.5 -2.5q-58 18 -122 21v-275q0 -44 17 -56.5t80 -12.5q3 0 3 -6t-3 -6
q-23 0 -65.5 1t-64.5 1q-19 0 -52.5 -1t-45.5 -1q-3 0 -3 6t3 6q42 0 54.5 13t12.5 56v225q0 36 -12 44.5t-59 8.5q-3 0 -3 7t3 7q40 0 54.5 9.5t15.5 35.5q5 162 59 235t159 73q88 0 138 -40q14 20 14 42q0 3 6 3t6 -3v-647q0 -42 11.5 -55.5t49.5 -13.5z" />
    <glyph glyph-name="g_g.liga" unicode="gg" horiz-adv-x="882" 
d="M439 395q7 0 7 -24q0 -27 -8 -35q-1 -2 -2 -1q-39 15 -80 15q-14 0 -21 -1q33 -36 33 -83q0 -56 -45.5 -94.5t-114.5 -38.5q-32 0 -64 10q-32 -28 -32 -59q0 -33 30.5 -44t109.5 -11q29 0 43 -0.5t41.5 -5.5t42 -15.5t26.5 -31.5t12 -51q0 -84 -71.5 -145t-165.5 -61
q-69 0 -109 31t-40 81q0 73 98 142q-72 12 -72 69q0 54 71 108q-35 16 -54.5 47t-19.5 67q0 56 46.5 92.5t115.5 36.5q65 0 105 -32q62 34 118 34zM687 29q26 0 38 -0.5t37.5 -3t39.5 -9t30.5 -17.5t24 -30t7.5 -44q0 -84 -75 -145t-174 -61q-66 0 -105.5 31t-39.5 81
q0 71 96 142q-74 12 -74 69q0 54 71 108q-35 16 -54.5 47t-19.5 67q0 56 46.5 92.5t115.5 36.5q64 0 105 -31q56 33 107 33q7 0 7 -24q0 -27 -8 -35q-1 -2 -2 -1q-34 15 -70 15q-13 0 -20 -1q33 -36 33 -83q0 -56 -45.5 -94.5t-114.5 -38.5q-32 0 -64 10q-32 -28 -32 -59
q0 -33 30.5 -44t109.5 -11zM229 148q31 0 50.5 23.5t19.5 73.5q0 58 -31 95t-78 37q-68 0 -68 -89q0 -63 32 -101.5t75 -38.5zM625 377q-67 0 -67 -89q0 -63 31.5 -101.5t74.5 -38.5q31 0 50.5 23.5t19.5 73.5q0 58 -31.5 95t-77.5 37zM361 -118q0 30 -10 48.5t-33 26.5
t-43.5 10t-59.5 2q-44 0 -63 2q-58 -39 -58 -99q0 -57 35 -89.5t95 -32.5q61 0 99 35.5t38 96.5zM660 -250q66 0 106.5 35.5t40.5 96.5q0 24 -8.5 41t-20 26t-34.5 13.5t-41.5 5.5t-51.5 1q-43 0 -62 2q-56 -40 -56 -99q0 -57 34 -89.5t93 -32.5z" />
    <glyph glyph-name="longs_b.liga" unicode="&#x17f;b" horiz-adv-x="811" 
d="M614 399q68 0 115 -48.5t47 -136.5q0 -107 -65.5 -167t-152.5 -60q-78 0 -140 43l-77 -35q-4 -1 -6.5 3t1.5 7q30 20 43 40.5t13 57.5v528q-41 79 -108 79q-60 0 -91 -64.5t-31 -206.5v-358q0 -44 17 -56.5t80 -12.5q3 0 3 -6t-3 -6q-23 0 -65.5 1t-64.5 1
q-19 0 -52.5 -1t-45.5 -1q-3 0 -3 6t3 6q42 0 54.5 13t12.5 56v225q0 36 -12 44.5t-59 8.5q-3 0 -3 7t3 7q40 0 55 9.5t15 35.5q1 308 212 308q79 0 124 -38q12 18 12 40q0 3 6 3t6 -3v-409q78 80 157 80zM586 6q56 0 86.5 44.5t30.5 128.5q0 89 -34.5 136t-90.5 47
q-57 0 -121 -62v-213q54 -81 129 -81z" />
    <glyph glyph-name="longs_h.liga" unicode="&#x17f;h" horiz-adv-x="807" 
d="M786 12q2 0 2 -6t-2 -6q-11 0 -43 1t-51 1t-50 -1t-42 -1q-3 0 -3 6t3 6q37 0 49 13.5t12 55.5v156q0 115 -90 115q-64 0 -116 -58v-213q0 -42 12 -55.5t50 -13.5q2 0 2 -6t-2 -6q-11 0 -43 1t-51 1t-50 -1t-42 -1q-4 0 -4 6t4 6q37 0 49 13.5t12 55.5v550
q-41 79 -109 79q-60 0 -91 -64.5t-31 -206.5v-358q0 -44 17 -56.5t80 -12.5q3 0 3 -6t-3 -6q-23 0 -65.5 1t-64.5 1q-19 0 -52.5 -1t-45.5 -1q-3 0 -3 6t3 6q42 0 54.5 13t12.5 56l1 225q0 36 -12 44.5t-59 8.5q-3 0 -3 7t3 7q40 0 55 9.5t15 35.5q1 308 211 308
q79 0 124 -37q11 19 11 39q0 3 6 3t6 -3v-416q73 85 154 85q54 0 84.5 -32t30.5 -91v-193q0 -42 12 -55.5t50 -13.5z" />
    <glyph glyph-name="longs_i.liga" unicode="&#x17f;i" horiz-adv-x="551" 
d="M31 0q-4 0 -4 6t4 6q42 0 54.5 13t12.5 56v225q0 36 -12 44.5t-59 8.5q-3 0 -3 7t3 7q40 0 55 9.5t15 35.5q0 308 220 308q56 0 88 -17t32 -43q0 -32 -36 -32q-17 0 -30 12t-20 26t-23.5 26t-39.5 12q-57 0 -91 -66.5t-34 -204.5v-358q0 -44 15 -56.5t73 -12.5q2 0 2 -6
t-2 -6q-22 0 -62 1t-60 1t-53 -1t-45 -1zM322 0q-2 0 -2 6t2 6q38 0 50 13.5t12 55.5v186q0 52 -16 63t-60 -10q-3 -1 -5 1.5t-2 6t2 4.5l134 63q4 2 8 -1.5t4 -7.5t-0.5 -20.5t-1 -43t-0.5 -54.5v-187q0 -42 12 -55.5t49 -13.5q3 0 3 -6t-3 -6q-10 0 -42 1t-51 1t-50.5 -1
t-42.5 -1z" />
    <glyph glyph-name="longs_j.liga" unicode="&#x17f;j" horiz-adv-x="532" 
d="M31 0q-4 0 -4 6t4 6q42 0 54.5 13t12.5 56v225q0 36 -12 44.5t-59 8.5q-3 0 -3 7t3 7q40 0 55 9.5t15 35.5q0 308 220 308q56 0 88 -17t32 -43q0 -32 -36 -32q-17 0 -30 12t-20 26t-23.5 26t-39.5 12q-57 0 -91 -66.5t-34 -204.5v-358q0 -44 15 -56.5t73 -12.5q2 0 2 -6
t-2 -6q-22 0 -62 1t-60 1t-53 -1t-45 -1zM296 -277q-2 -1 -4.5 4.5t-0.5 6.5q49 21 69 65t20 130v338q0 52 -16 63t-60 -10q-2 -1 -4.5 1.5t-2.5 6t2 4.5l134 63q4 2 8 -1.5t4 -7.5t-0.5 -20.5t-1 -43t-0.5 -54.5v-316q0 -100 -32 -149t-115 -80z" />
    <glyph glyph-name="longs_k.liga" unicode="&#x17f;k" horiz-adv-x="797" 
d="M792 12q2 0 2 -6t-2 -6q-11 0 -42.5 1t-50.5 1q-28 0 -66 -1t-50 -1q-3 0 -3 6t3 6q67 0 38 41l-121 164l-45 -37v-99q0 -42 12 -55.5t50 -13.5q3 0 3 -6t-3 -6q-11 0 -42 1t-51 1q-19 0 -50.5 -1t-42.5 -1q-2 0 -2 6t2 6q38 0 50 13.5t12 55.5v550q-41 79 -109 79
q-60 0 -91 -64.5t-31 -206.5v-358q0 -44 17 -56.5t80 -12.5q3 0 3 -6t-3 -6q-23 0 -65.5 1t-64.5 1q-19 0 -52.5 -1t-45.5 -1q-3 0 -3 6t3 6q42 0 54.5 13t12.5 56v225q0 36 -12 44.5t-59 8.5q-3 0 -3 7t3 7q40 0 55 9.5t15 35.5q3 308 212 308q79 0 124 -38q11 19 11 40
q0 3 5.5 3t5.5 -3v-531l127 107q37 29 30 49.5t-53 20.5q-2 0 -2 6t2 6q14 0 50 -1t67 -1q28 0 60.5 1t43.5 1q3 0 3 -6t-3 -6q-87 0 -177 -74l-54 -44l129 -175q50 -69 114 -69z" />
    <glyph glyph-name="longs_l.liga" unicode="&#x17f;l" horiz-adv-x="548" 
d="M521 12q2 0 2 -6t-2 -6q-12 0 -43.5 1t-50.5 1t-51 -1t-43 -1q-3 0 -3 6t3 6q37 0 49 13.5t12 55.5v547q-45 82 -114 82q-118 0 -118 -271v-358q0 -44 17 -56.5t80 -12.5q3 0 3 -6t-3 -6q-23 0 -65.5 1t-64.5 1q-19 0 -52.5 -1t-45.5 -1q-3 0 -3 6t3 6q42 0 54.5 13
t12.5 56v225q0 36 -12 44.5t-59 8.5q-3 0 -3 7t3 7q40 0 54.5 9.5t15.5 35.5q8 308 209 308q82 0 128 -39q13 19 13 41q0 3 6 3t6 -3v-647q0 -42 11.5 -55.5t50.5 -13.5z" />
    <glyph glyph-name="longs_thorn.liga" unicode="&#x17f;&#xfe;" horiz-adv-x="801" 
d="M611 399q65 0 110 -50t45 -134q0 -58 -21 -104t-54.5 -72t-70 -39t-71.5 -13q-56 0 -100 22v-203q0 -43 17.5 -56t79.5 -13q2 0 2 -6t-2 -6q-17 0 -60.5 1t-68.5 1q-19 0 -51.5 -1t-43.5 -1q-2 0 -2 6t2 6q39 0 50.5 13t11.5 56v839q-39 65 -101 65q-60 0 -91 -64.5
t-31 -206.5v-358q0 -44 17 -56.5t80 -12.5q3 0 3 -6t-3 -6q-23 0 -65.5 1t-64.5 1q-19 0 -52.5 -1t-45.5 -1q-3 0 -3 6t3 6q42 0 54.5 13t12.5 56v225q0 36 -12 44.5t-59 8.5q-3 0 -3 7t3 7q40 0 54.5 9.5t15.5 35.5q4 158 56.5 233t155.5 75q75 0 119 -34q10 16 10 36
q0 3 6 3t6 -3v-409q80 80 162 80zM577 9q53 0 85.5 46t32.5 129q0 82 -37 128t-93 46q-60 0 -116 -58v-233q51 -58 128 -58z" />
    <glyph glyph-name="longs_longs.liga" unicode="&#x17f;&#x17f;" horiz-adv-x="539" 
d="M585 726q48 0 77 -15.5t29 -38.5q0 -16 -11 -25t-28 -9t-28.5 11t-18 24.5t-21 24.5t-35.5 11q-109 0 -109 -270v-358q0 -44 14 -56.5t69 -12.5q3 0 3 -6t-3 -6q-21 0 -59.5 1t-58.5 1q-19 0 -52.5 -1t-45.5 -1q-3 0 -3 6t3 6q42 0 54.5 13t12.5 56v225q0 36 -12 44.5
t-59 8.5q-3 0 -3 7t3 7q40 0 55 9.5t16 35.5q4 127 35 197q-48 59 -109 59q-63 0 -100.5 -60t-37.5 -175v-358q0 -44 15.5 -56.5t73.5 -12.5q2 0 2 -6t-2 -6q-21 0 -61.5 1t-60.5 1q-19 0 -52.5 -1t-45.5 -1q-3 0 -3 6t3 6q42 0 54.5 13t12.5 56v225q0 36 -12 44.5t-58 8.5
q-4 0 -4 7t4 7q40 0 54.5 9.5t14.5 35.5q4 133 67 203t170 70q61 0 107 -23q50 58 144 58z" />
    <glyph glyph-name="longs_longs_b.liga" unicode="&#x17f;&#x17f;b" horiz-adv-x="1098" 
d="M901 399q68 0 115 -48.5t47 -136.5q0 -107 -65.5 -167t-152.5 -60q-78 0 -140 43l-77 -35q-4 -1 -6.5 3t1.5 7q30 20 43 40.5t13 57.5v528q-41 79 -108 79q-60 0 -91 -64.5t-31 -206.5v-358q0 -44 17 -56.5t80 -12.5q3 0 3 -6t-3 -6q-23 0 -65.5 1t-64.5 1
q-19 0 -52.5 -1t-45.5 -1q-3 0 -3 6t3 6q42 0 54.5 13t12.5 56v225q0 36 -12 44.5t-59 8.5q-3 0 -3 7t3 7q40 0 55 9.5t15 35.5q0 115 31 189q-49 67 -115 67q-63 0 -100.5 -60t-37.5 -175v-358q0 -44 15.5 -56.5t73.5 -12.5q2 0 2 -6t-2 -6q-21 0 -61.5 1t-60.5 1
q-19 0 -52.5 -1t-45.5 -1q-3 0 -3 6t3 6q42 0 54.5 13t12.5 56v225q0 36 -12 44.5t-58 8.5q-4 0 -4 7t4 7q40 0 54.5 9.5t14.5 35.5q4 133 67 203t170 70q63 0 115 -27q52 62 147 62q79 0 124 -38q12 18 12 40q0 3 6 3t6 -3v-409q78 80 157 80zM873 6q56 0 86.5 44.5
t30.5 128.5q0 89 -34.5 136t-90.5 47q-57 0 -121 -62v-213q54 -81 129 -81z" />
    <glyph glyph-name="longs_longs_h.liga" unicode="&#x17f;&#x17f;h" horiz-adv-x="1094" 
d="M1073 12q2 0 2 -6t-2 -6q-11 0 -43 1t-51 1t-50 -1t-42 -1q-3 0 -3 6t3 6q37 0 49 13.5t12 55.5v156q0 115 -90 115q-64 0 -116 -58v-213q0 -42 12 -55.5t50 -13.5q2 0 2 -6t-2 -6q-11 0 -43 1t-51 1t-50 -1t-42 -1q-4 0 -4 6t4 6q37 0 49 13.5t12 55.5v550
q-41 79 -109 79q-60 0 -91 -64.5t-31 -206.5v-358q0 -44 17 -56.5t80 -12.5q3 0 3 -6t-3 -6q-23 0 -65.5 1t-64.5 1q-19 0 -52.5 -1t-45.5 -1q-3 0 -3 6t3 6q42 0 54.5 13t12.5 56l1 225q0 36 -12 44.5t-59 8.5q-3 0 -3 7t3 7q40 0 55 9.5t15 35.5q0 115 31 189
q-49 67 -115 67q-63 0 -100.5 -60t-37.5 -175v-358q0 -44 15.5 -56.5t73.5 -12.5q2 0 2 -6t-2 -6q-21 0 -61.5 1t-60.5 1q-19 0 -52.5 -1t-45.5 -1q-3 0 -3 6t3 6q42 0 54.5 13t12.5 56v225q0 36 -12 44.5t-58 8.5q-4 0 -4 7t4 7q40 0 54.5 9.5t14.5 35.5q4 133 67 203
t170 70q66 0 115 -27q52 62 146 62q79 0 124 -37q11 19 11 39q0 3 6 3t6 -3v-416q73 85 154 85q54 0 84.5 -32t30.5 -91v-193q0 -42 12 -55.5t50 -13.5z" />
    <glyph glyph-name="longs_longs_i.liga" unicode="&#x17f;&#x17f;i" horiz-adv-x="831" 
d="M569 710q-57 0 -91 -66.5t-34 -204.5v-358q0 -44 15 -56.5t73 -12.5q2 0 2 -6t-2 -6q-22 0 -62 1t-60 1t-53 -1t-45 -1q-4 0 -4 6t4 6q42 0 54.5 13t12.5 56v225q0 36 -12 44.5t-59 8.5q-3 0 -3 7t3 7q40 0 55 9.5t15 35.5q0 119 34 193q-47 63 -112 63q-63 0 -100.5 -60
t-37.5 -175v-358q0 -44 15.5 -56.5t73.5 -12.5q2 0 2 -6t-2 -6q-21 0 -61.5 1t-60.5 1q-19 0 -52.5 -1t-45.5 -1q-3 0 -3 6t3 6q42 0 54.5 13t12.5 56v225q0 36 -12 44.5t-58 8.5q-4 0 -4 7t4 7q40 0 54.5 9.5t14.5 35.5q4 133 67 203t170 70q63 0 113 -26q55 61 151 61
q56 0 88 -17t32 -43q0 -32 -36 -32q-17 0 -30 12t-20 26t-23.5 26t-39.5 12zM789 12q3 0 3 -6t-3 -6q-11 0 -42 1t-51 1q-19 0 -50.5 -1t-42.5 -1q-2 0 -2 6t2 6q38 0 50 13.5t12 55.5v186q0 52 -16.5 63t-59.5 -10q-3 -1 -5 1.5t-2 6t2 4.5l134 63q4 2 8 -1.5t4 -7.5
t-0.5 -20.5t-1 -43t-0.5 -54.5v-187q0 -42 12 -55.5t49 -13.5z" />
    <glyph glyph-name="longs_longs_j.liga" unicode="&#x17f;&#x17f;j" horiz-adv-x="813" 
d="M569 710q-57 0 -91 -66.5t-34 -204.5v-358q0 -44 15 -56.5t73 -12.5q2 0 2 -6t-2 -6q-22 0 -62 1t-60 1t-53 -1t-45 -1q-4 0 -4 6t4 6q42 0 54.5 13t12.5 56v225q0 36 -12 44.5t-59 8.5q-3 0 -3 7t3 7q40 0 55 9.5t15 35.5q0 119 34 193q-47 63 -112 63q-63 0 -100.5 -60
t-37.5 -175v-358q0 -44 15.5 -56.5t73.5 -12.5q2 0 2 -6t-2 -6q-21 0 -61.5 1t-60.5 1q-19 0 -52.5 -1t-45.5 -1q-3 0 -3 6t3 6q42 0 54.5 13t12.5 56v225q0 36 -12 44.5t-58 8.5q-4 0 -4 7t4 7q40 0 54.5 9.5t14.5 35.5q4 133 67 203t170 70q63 0 113 -26q55 61 151 61
q56 0 88 -17t32 -43q0 -32 -36 -32q-17 0 -30 12t-20 26t-23.5 26t-39.5 12zM714 395q4 2 8 -1.5t4 -7.5t-0.5 -20.5t-1 -43t-0.5 -54.5v-316q0 -100 -32 -149t-115 -80q-2 -1 -4.5 4.5t-0.5 6.5q49 21 69 65t20 130v338q0 52 -16 63t-60 -10q-2 -1 -4.5 1.5t-2.5 6t2 4.5z
" />
    <glyph glyph-name="longs_longs_k.liga" unicode="&#x17f;&#x17f;k" horiz-adv-x="1078" 
d="M1073 12q2 0 2 -6t-2 -6q-11 0 -42.5 1t-50.5 1q-28 0 -66 -1t-50 -1q-3 0 -3 6t3 6q67 0 38 41l-121 164l-45 -37v-99q0 -42 12 -55.5t50 -13.5q3 0 3 -6t-3 -6q-10 0 -42 1t-51 1t-50.5 -1t-42.5 -1q-2 0 -2 6t2 6q38 0 50 13.5t12 55.5v550q-41 79 -109 79
q-60 0 -91 -64.5t-31 -206.5v-358q0 -44 17 -56.5t80 -12.5q3 0 3 -6t-3 -6q-23 0 -65.5 1t-64.5 1q-19 0 -52.5 -1t-45.5 -1q-3 0 -3 6t3 6q42 0 54.5 13t12.5 56v225q0 36 -12 44.5t-59 8.5q-3 0 -3 7t3 7q40 0 55 9.5t15 35.5q1 120 33 194q-47 62 -111 62
q-63 0 -100.5 -60t-37.5 -175v-358q0 -44 15.5 -56.5t73.5 -12.5q2 0 2 -6t-2 -6q-21 0 -61.5 1t-60.5 1q-19 0 -52.5 -1t-45.5 -1q-3 0 -3 6t3 6q42 0 54.5 13t12.5 56v225q0 36 -12 44.5t-58 8.5q-4 0 -4 7t4 7q40 0 54.5 9.5t14.5 35.5q4 133 67 203t170 70q65 0 111 -25
q51 60 145 60q79 0 124 -38q11 19 11 40q0 3 5.5 3t5.5 -3v-531l127 107q37 29 30 49.5t-53 20.5q-2 0 -2 6t2 6q14 0 50 -1t67 -1q28 0 60.5 1t43.5 1q3 0 3 -6t-3 -6q-87 0 -177 -74l-54 -44l129 -175q50 -69 114 -69z" />
    <glyph glyph-name="longs_longs_l.liga" unicode="&#x17f;&#x17f;l" horiz-adv-x="829" 
d="M802 12q2 0 2 -6t-2 -6q-12 0 -43.5 1t-50.5 1t-51 -1t-43 -1q-3 0 -3 6t3 6q37 0 49 13.5t12 55.5v547q-45 82 -114 82q-118 0 -118 -271v-358q0 -44 17 -56.5t80 -12.5q3 0 3 -6t-3 -6q-23 0 -65.5 1t-64.5 1q-19 0 -52.5 -1t-45.5 -1q-3 0 -3 6t3 6q42 0 54.5 13
t12.5 56v225q0 36 -12 44.5t-59 8.5q-3 0 -3 7t3 7q40 0 54.5 9.5t15.5 35.5q3 119 34 192q-48 64 -112 64q-63 0 -100.5 -60t-37.5 -175v-358q0 -44 15.5 -56.5t73.5 -12.5q2 0 2 -6t-2 -6q-21 0 -61.5 1t-60.5 1q-19 0 -52.5 -1t-45.5 -1q-3 0 -3 6t3 6q42 0 54.5 13
t12.5 56v225q0 36 -12 44.5t-58 8.5q-4 0 -4 7t4 7q40 0 54.5 9.5t14.5 35.5q4 133 67 203t170 70q60 0 112 -25q51 60 141 60q83 0 128 -39q13 19 13 41q0 3 6 3t6 -3v-647q0 -42 11.5 -55.5t50.5 -13.5z" />
    <glyph glyph-name="longs_longs_thorn.liga" unicode="&#x17f;&#x17f;&#xfe;" horiz-adv-x="1080" 
d="M891 399q65 0 110 -50t45 -134q0 -58 -21 -104t-54.5 -72t-70 -39t-71.5 -13q-56 0 -100 22v-203q0 -43 17.5 -56t79.5 -13q2 0 2 -6t-2 -6q-17 0 -60.5 1t-68.5 1q-19 0 -51.5 -1t-43.5 -1q-2 0 -2 6t2 6q39 0 50.5 13t11.5 56v839q-39 65 -101 65q-60 0 -91 -64.5
t-31 -206.5v-358q0 -44 17 -56.5t80 -12.5q3 0 3 -6t-3 -6q-23 0 -65.5 1t-64.5 1q-19 0 -52.5 -1t-45.5 -1q-3 0 -3 6t3 6q42 0 54.5 13t12.5 56v225q0 36 -12 44.5t-59 8.5q-3 0 -3 7t3 7q40 0 54.5 9.5t15.5 35.5q3 120 35 193q-48 63 -112 63q-63 0 -100.5 -60
t-37.5 -175v-358q0 -44 15.5 -56.5t73.5 -12.5q2 0 2 -6t-2 -6q-21 0 -61.5 1t-60.5 1q-19 0 -52.5 -1t-45.5 -1q-3 0 -3 6t3 6q42 0 54.5 13t12.5 56v225q0 36 -12 44.5t-58 8.5q-4 0 -4 7t4 7q40 0 54.5 9.5t14.5 35.5q4 133 67 203t170 70q65 0 111 -25q51 60 144 60
q75 0 119 -34q10 16 10 36q0 3 6 3t6 -3v-409q80 80 162 80zM857 9q53 0 85.5 46t32.5 129q0 82 -37 128t-93 46q-60 0 -116 -58v-233q51 -58 128 -58z" />
    <glyph glyph-name=".notdef" horiz-adv-x="501" 
d="M94 -275v1000h317v-1000h-317zM168 626h65v-38h-66v-32h166v32h-66v38h66v32h-165v-32zM167 426h166v34h-66v69h-100v-103zM200 460v35h33v-35h-33zM167 365h66v-36h-66v-34h100v70h66v33h-166v-33zM301 273h-134v-34h166v99h-32v-65zM233 160h34v24h34v-48h-101v80h-33
v-113h166v113h-100v-56zM167 -70h166v113h-166v-113zM200 -37v48h101v-48h-101zM167 -126h70l-70 -47v-33h166v33h-101l69 47h32v34h-166v-34z" />
    <glyph glyph-name=".null" horiz-adv-x="0" 
 />
    <glyph glyph-name="nonmarkingreturn" horiz-adv-x="333" 
 />
    <glyph glyph-name="space" unicode=" " horiz-adv-x="234" 
 />
    <glyph glyph-name="exclam" unicode="!" horiz-adv-x="250" 
d="M75 619q-2 10 50 10q48 -1 50 -10q-24 -116 -43 -430q0 -3 -9 -3t-9 3q-14 303 -39 430zM120 -11q-21 0 -34 12.5t-13 34.5q0 20 13 32t34 12q46 0 46 -44q0 -47 -46 -47z" />
    <glyph glyph-name="quotedbl" unicode="&#x22;" horiz-adv-x="286" 
d="M56 365l-16 243q-1 16 45 28q38 9 37 -1l-54 -269q-1 -1 -4 -2t-5.5 -1t-2.5 2zM200 365l-16 243q-1 16 45 28q38 9 37 -1l-54 -269q-1 -1 -4 -2t-5.5 -1t-2.5 2z" />
    <glyph glyph-name="numbersign" unicode="#" horiz-adv-x="526" 
d="M463 315q5 0 5 -20t-5 -20h-71l-28 -158h64q4 0 4 -20.5t-4 -20.5h-71l-28 -156q0 -2 -4 -2.5t-10 0t-11.5 1.5t-9.5 3t-4 3l27 151h-147l-28 -156q0 -2 -4 -2.5t-10 0t-11.5 1.5t-9.5 3t-4 3l27 151h-67q-3 0 -4 10t0 20.5t3 10.5h75l28 158h-67q-3 0 -4 10t0 20t3 10
h75l30 167q0 7 27 -1q12 -4 11 -7l-28 -159h147l30 167q0 7 27 -1q12 -4 11 -7l-28 -159h64zM324 117l28 158h-147l-28 -158h147z" />
    <glyph glyph-name="dollar" unicode="$" horiz-adv-x="413" 
d="M371 124q0 -53 -39.5 -90.5t-105.5 -44.5v-91q0 -7 -11.5 -7t-11.5 7v90h-2q-77 0 -126 35q-8 5 -8 20l-10 101q0 4 5.5 5t6.5 -3q16 -52 52 -92t82 -48v208l-16 9q-29 15 -45.5 25.5t-36.5 27t-29 37t-9 45.5q0 52 39 84t97 37v82q0 7 11.5 7t11.5 -7v-81q54 -2 99 -23
q15 -6 15 -17l6 -89q0 -4 -5 -5t-7 3q-7 34 -36.5 69t-71.5 44v-190l18 -9l37.5 -20t33 -21t30.5 -26.5t18 -31.5t8 -40zM125 387q0 -58 78 -102v179q-37 0 -57.5 -21.5t-20.5 -55.5zM226 5q34 2 58 22t24 61q0 63 -82 113v-196z" />
    <glyph glyph-name="percent" unicode="%" horiz-adv-x="574" 
d="M150 303q-54 0 -89.5 37.5t-35.5 92.5q0 53 36 90t89 37t87.5 -37.5t34.5 -92.5q0 -54 -34.5 -90.5t-87.5 -36.5zM107 -6q-1 -1 -7.5 1.5t-12.5 6.5t-5 6l371 544q1 2 8 -1t12.5 -7.5t4.5 -6.5zM157 315q32 0 42 27t10 81q0 125 -65 125q-32 0 -44 -29.5t-12 -82.5
q0 -121 69 -121zM427 -5q-54 0 -89.5 37.5t-35.5 92.5q0 53 36 90.5t89 37.5t87.5 -38t34.5 -92t-34.5 -91t-87.5 -37zM434 8q32 0 42 27t10 81q0 124 -65 124q-56 0 -56 -111q0 -121 69 -121z" />
    <glyph glyph-name="ampersand" unicode="&#x26;" horiz-adv-x="700" 
d="M702 12q3 0 3.5 -3t-0.5 -6t-3 -3h-118q-42 0 -130 67q-79 -79 -200 -79q-93 0 -141.5 43t-48.5 105q0 56 35.5 98t101.5 90q-18 27 -29 50q-29 61 -29 109q0 69 47.5 116t123.5 47q50 0 85 -23.5t35 -75.5q0 -13 -3 -26t-6 -23.5t-12 -22.5t-14 -19.5t-18.5 -19.5
l-19 -17t-22.5 -17.5t-22.5 -16l-25 -16.5t-23.5 -16q74 -114 213 -221q29 56 29 126q0 40 -15.5 59.5t-57.5 19.5q-3 0 -3.5 6t3.5 6l214 1q4 0 4 -6t-4 -6q-47 0 -62 -12.5t-25 -49.5q-27 -94 -67 -156q125 -91 205 -108zM207 533q0 -78 53 -166q51 40 78.5 77.5
t27.5 85.5q0 44 -23 69t-62 25q-74 0 -74 -91zM305 21q79 0 136 57q-13 9 -23 18q-131 105 -207 215q-76 -62 -76 -136q0 -64 48 -109t122 -45z" />
    <glyph glyph-name="quotesingle" unicode="'" horiz-adv-x="142" 
d="M56 365l-16 243q-1 16 45 28q38 9 37 -1l-54 -269q-1 -1 -4 -2t-5.5 -1t-2.5 2z" />
    <glyph glyph-name="parenleft" unicode="(" horiz-adv-x="309" 
d="M61 304q0 142 56 255t157 166q2 1 4 -1.5t0 -4.5q-140 -137 -140 -415t140 -415q3 -2 -1 -5q-2 -1 -3 -1q-101 54 -157 166.5t-56 254.5z" />
    <glyph glyph-name="parenright" unicode=")" horiz-adv-x="309" 
d="M248 304q0 -142 -56 -255t-157 -166q-2 -1 -4 1.5t0 4.5q140 137 140 415t-140 415q-2 1 0 4t4 2q101 -54 157 -166.5t56 -254.5z" />
    <glyph glyph-name="asterisk" unicode="*" horiz-adv-x="448" 
d="M226 529l-3 128q-1 16 51 28q35 7 33 0l-71 -156q-1 -3 -5.5 -3t-4.5 3zM204 511l-124 37q-16 5 -10 62q4 28 9 27l128 -117q1 -1 1 -3.5t-1.5 -4t-2.5 -1.5zM422 484l-171 19q-2 0 -3.5 4.5t0.5 5.5l122 43q14 5 41 -39q20 -34 11 -33zM141 380q-9 -14 -60 9
q-25 12 -24 17l149 85q2 2 6 -1t2 -5zM268 313l-35 168q-1 1 1 3.5t4.5 3.5t2.5 0l78 -103q10 -13 -26 -54q-24 -26 -25 -18z" />
    <glyph glyph-name="plus" unicode="+" horiz-adv-x="398" 
d="M364 210q4 0 4 -20.5t-4 -20.5h-144v-144q0 -3 -10.5 -4t-21 -0.5t-10.5 2.5v146h-144q-3 0 -4 10.5t0 20.5t3 10h145v144q0 4 21 4t21 -4v-144h144z" />
    <glyph glyph-name="comma" unicode="," horiz-adv-x="222" 
d="M102 77q31 0 48.5 -22.5t17.5 -66.5q0 -87 -80 -170q-4 -3 -7 0t-1 7q40 53 40 124q0 28 -8 46q-8 -3 -17 -3q-20 0 -31.5 11.5t-11.5 30.5q0 43 50 43z" />
    <glyph glyph-name="hyphen" unicode="-" horiz-adv-x="323" 
d="M32 163q-3 0 -4 10.5t-0.5 22t2.5 11.5l261 47q3 0 4 -10.5t0 -22t-4 -11.5z" />
    <glyph glyph-name="period" unicode="." horiz-adv-x="199" 
d="M100 -11q-21 0 -34 12.5t-13 34.5q0 20 13 32t34 12q46 0 46 -44q0 -47 -46 -47z" />
    <glyph glyph-name="slash" unicode="/" horiz-adv-x="343" 
d="M66 -164q-1 -4 -21 2t-19 10l252 882q1 2 5.5 1.5t10.5 -2t11 -3.5t9 -4.5t3 -4.5z" />
    <glyph glyph-name="zero" unicode="0" horiz-adv-x="477" 
d="M240 -13q-90 0 -148.5 59t-58.5 150q0 89 58.5 146t149.5 57q89 0 146 -58t57 -148t-57.5 -148t-146.5 -58zM251 2q57 0 86.5 48t29.5 130q0 101 -39 152.5t-97 51.5t-90 -49.5t-32 -129.5q0 -90 39 -146.5t103 -56.5z" />
    <glyph glyph-name="one" unicode="1" horiz-adv-x="332" 
d="M135 305q0 44 -15 56.5t-70 12.5q-3 0 -3 6t3 6q14 0 53 -1t63 -1t63 1t53 1q3 0 3 -6t-3 -6q-53 0 -69 -13t-16 -56v-224q0 -44 15 -56.5t70 -12.5q3 0 3 -6t-3 -6q-14 0 -53 1t-63 1t-63 -1t-53 -1q-3 0 -3 6t3 6q53 0 69 13t16 56v224z" />
    <glyph glyph-name="two" unicode="2" horiz-adv-x="402" 
d="M37 17q129 106 175.5 161t46.5 106q0 40 -24 65.5t-62 25.5q-76 0 -113 -125q0 -1 -3.5 -1.5t-6 1t-2.5 3.5l40 155q1 4 9 1q3 -1 2 -3q-6 -27 14 -27q7 0 41 10t63 10q52 0 82 -27t30 -71q0 -53 -47 -102.5t-161 -137.5q-7 -7 5 -7q145 0 185.5 9.5t50.5 53.5q1 3 6.5 2
t5.5 -3l-16 -105q0 -11 -9 -11h-305q-5 0 -8 6.5t1 10.5z" />
    <glyph glyph-name="three" unicode="3" horiz-adv-x="390" 
d="M215 130q67 -7 101.5 -46.5t34.5 -92.5q0 -77 -75 -151.5t-218 -114.5q-2 0 -4.5 2t-2.5 5t2 4q62 20 107 50.5t68.5 64.5t34 65.5t10.5 62.5q0 55 -28 92t-84 37q-23 0 -48 -6q-2 0 -3.5 2.5t-1.5 5.5t2 4q76 19 108.5 55.5t32.5 98.5q0 108 -82 108q-89 0 -125 -118
q-1 -1 -4 -1.5t-5.5 1t-2.5 3.5l37 146q1 2 4 2t5.5 -1.5t2.5 -2.5q-7 -28 15 -28q7 0 42 11t64 11q56 0 88 -33.5t32 -80.5q0 -48 -29 -91t-78 -64z" />
    <glyph glyph-name="four" unicode="4" horiz-adv-x="452" 
d="M415 45q3 0 4 -11t-0.5 -22t-4.5 -11q-27 2 -81 4v-155q0 -11 -8 -14l-48 -24q-9 -5 -9 6v188q-62 2 -238 2q-5 0 -7.5 4t0.5 8l295 376q2 3 8.5 1.5t6.5 -5.5v-350zM81 39q83 0 187 2v247l-192 -242q-6 -7 5 -7z" />
    <glyph glyph-name="five" unicode="5" horiz-adv-x="409" 
d="M119 319q-13 0 -15 -15l-20 -108q269 -3 269 -187q0 -84 -66 -148.5t-219 -135.5q-4 -2 -7 3.5t1 7.5q120 61 169 123t49 133q0 83 -55 129t-157 46q-12 0 -10 12l32 178q1 7 3 8.5t10 2.5q201 24 224 34q13 5 18 21q0 2 3 2.5t5.5 -1t2.5 -3.5l-20 -80q-4 -12 -9.5 -15
t-18.5 -3z" />
    <glyph glyph-name="six" unicode="6" horiz-adv-x="465" 
d="M300 284q67 0 99.5 -36.5t32.5 -88.5q0 -71 -59.5 -121.5t-142.5 -50.5q-86 0 -135.5 58t-49.5 163q0 143 96 270t259 183q4 1 6 -4t-1 -7q-138 -64 -213.5 -182.5t-75.5 -243.5q0 -93 38.5 -155t103.5 -62q46 0 74.5 33.5t28.5 91.5q0 54 -25 87.5t-73 33.5
q-43 0 -95 -43q-2 -2 -4.5 -1t-4.5 3.5t-1 4.5q56 67 142 67z" />
    <glyph glyph-name="seven" unicode="7" horiz-adv-x="429" 
d="M165 -217q-6 -15 -21 -24l-56 -34q-2 -1 -5 2t-2 5l266 590q3 7 -5 7q-76 0 -119 -0.5t-80.5 -3.5t-53.5 -6.5t-29.5 -12.5t-17.5 -18t-9 -27q-1 -5 -8 -1q-4 1 -3 4l36 149q4 3 12 -1q-4 -17 4.5 -21.5t42.5 -4.5h265q4 0 7.5 -4.5t1.5 -8.5z" />
    <glyph glyph-name="eight" unicode="8" horiz-adv-x="489" 
d="M299 344q36 -19 58 -33t47.5 -36.5t38 -50.5t12.5 -62q0 -75 -62.5 -125t-150.5 -50q-87 0 -142 48t-55 115q0 57 38.5 108.5t97.5 81.5q-79 51 -79 113q0 58 49 89.5t108 31.5q60 0 98 -32.5t38 -72.5q0 -32 -25 -65t-71 -60zM240 557q-34 0 -55.5 -19.5t-21.5 -52.5
q0 -23 9 -41.5t30.5 -36.5t37 -28t48.5 -29q45 48 45 103q0 47 -26.5 75.5t-66.5 28.5zM269 6q54 0 88 34t34 89q0 34 -12 61.5t-39.5 50t-46.5 34.5t-58 33q-37 21 -40 23q-78 -56 -78 -154q0 -69 43 -120t109 -51z" />
    <glyph glyph-name="nine" unicode="9" horiz-adv-x="465" 
d="M174 108q-70 0 -105.5 41.5t-35.5 94.5q0 68 52.5 111.5t131.5 43.5q93 0 148 -63.5t55 -168.5q0 -141 -96 -266.5t-259 -175.5q-3 -1 -5.5 4t1.5 7q137 57 212.5 174.5t75.5 236.5q0 38 -8 77t-24.5 75t-46.5 58.5t-69 22.5q-46 0 -71.5 -31t-25.5 -85q0 -55 27 -90.5
t78 -35.5q44 0 88 36q3 3 8 -0.5t3 -6.5q-51 -59 -134 -59z" />
    <glyph glyph-name="colon" unicode=":" horiz-adv-x="199" 
d="M100 270q-21 0 -34 12.5t-13 34.5q0 20 13 32t34 12q46 0 46 -44q0 -47 -46 -47zM100 -11q-21 0 -34 12.5t-13 34.5q0 20 13 32t34 12q46 0 46 -44q0 -47 -46 -47z" />
    <glyph glyph-name="semicolon" unicode=";" horiz-adv-x="225" 
d="M102 270q-21 0 -34 12.5t-13 34.5q0 20 13 32t34 12q46 0 46 -44q0 -47 -46 -47zM105 77q31 0 48.5 -22.5t17.5 -66.5q0 -87 -80 -170q-4 -3 -7 0t-1 7q40 53 40 124q0 28 -8 46q-7 -3 -17 -3q-20 0 -31.5 11.5t-11.5 30.5q0 43 50 43z" />
    <glyph glyph-name="less" unicode="&#x3c;" horiz-adv-x="407" 
d="M370 67q9 -4 7 -30q-3 -13 -7 -12l-334 148q-5 3 -5 17.5t5 16.5l334 147q4 2 6 -5q5 -21 -4 -34l-2 -2l-286 -123z" />
    <glyph glyph-name="equal" unicode="=" horiz-adv-x="468" 
d="M34 239q-3 0 -4 10.5t0 20.5t3 10h401q4 0 4 -20.5t-4 -20.5h-400zM34 99q-3 0 -4 10.5t0 20.5t3 10h401q4 0 4 -20.5t-4 -20.5h-400z" />
    <glyph glyph-name="greater" unicode="&#x3e;" horiz-adv-x="407" 
d="M371 206q5 -3 5 -17.5t-5 -16.5l-334 -147q-4 -2 -6 5q-5 21 4 34l2 2l286 123l-286 123q-9 4 -7 30q3 13 7 12z" />
    <glyph glyph-name="question" unicode="?" horiz-adv-x="331" 
d="M160 611q-22 0 -30 -12.5t-11 -33.5q-7 -49 -42 -49q-17 0 -27 11.5t-10 25.5q0 29 36 50.5t86 21.5q60 0 99.5 -31t39.5 -89q0 -12 -2 -23.5t-4.5 -19.5t-9 -18.5l-10 -16t-13 -15.5l-13 -13.5l-14.5 -14t-14 -12.5q-34 -33 -48 -61t-14 -63q0 -22 6 -54q0 -2 -3 -3.5
t-6.5 -1.5t-3.5 2q-26 60 -26 120q0 26 10.5 47t25 36l29 30.5t25 39.5t10.5 54q0 41 -18.5 67t-47.5 26zM148 -11q-21 0 -34 12.5t-13 34.5q0 20 13 32t34 12q46 0 46 -44q0 -47 -46 -47z" />
    <glyph glyph-name="at" unicode="@" horiz-adv-x="721" 
d="M467 52q-35 0 -48.5 23.5t-5.5 64.5l8 42q-35 -60 -76.5 -96t-78.5 -36q-27 0 -42 19.5t-10 61.5q12 82 77.5 153.5t126.5 71.5q33 0 48 -21q17 11 20 28q1 1 5.5 1.5t8.5 -0.5t4 -2l-41 -224q-7 -28 0 -46.5t34 -18.5q43 0 79.5 44.5t36.5 118.5q0 98 -71 167t-175 69
q-113 0 -180.5 -79.5t-67.5 -193.5q0 -120 76 -193t199 -73q90 0 167 47q1 1 3.5 -0.5t3 -4t-0.5 -3.5q-89 -71 -205 -71q-125 0 -207.5 74t-82.5 199q0 138 98 229.5t230 91.5q112 0 182.5 -67t70.5 -163q0 -85 -55.5 -149t-130.5 -64zM297 94q38 0 82 56.5t58 120.5
q5 27 -5 45t-34 17q-38 -1 -76 -51t-49 -115q-12 -73 24 -73z" />
    <glyph glyph-name="A" unicode="A" horiz-adv-x="704" 
d="M702 12q4 0 4 -6t-4 -6q-19 0 -59 2t-59 2q-22 0 -55.5 -2t-51.5 -2q-5 0 -5 6t5 6q51 0 62.5 15.5t-9.5 59.5l-86 180h-239l-59 -137q-49 -118 84 -118q4 0 4 -6t-4 -6q-19 0 -55 2t-63 2q-25 0 -58.5 -2t-53.5 -2q-4 0 -4 6t4 6q41 0 66.5 25.5t58.5 101.5l211 494
q2 3 8 3t7 -3l238 -496q34 -73 58 -99t55 -26zM214 288h220l-116 242z" />
    <glyph glyph-name="B" unicode="B" horiz-adv-x="565" 
d="M337 352q80 -7 128.5 -53.5t48.5 -114.5q0 -81 -58.5 -134.5t-146.5 -53.5q-20 0 -71.5 3t-74.5 3q-24 0 -64.5 -1t-55.5 -1q-2 0 -2 6t2 6q52 0 68 13t16 56v463q0 43 -15.5 56t-66.5 13q-3 0 -3 6t3 6q14 0 54 -1.5t64 -1.5q17 0 59 3t60 3q86 0 129 -36t43 -96
q0 -48 -31 -85.5t-86 -58.5zM262 612q-37 0 -49.5 -12.5t-12.5 -57.5v-190q25 -1 45 -1q69 0 102.5 38t33.5 100q0 56 -29 89.5t-90 33.5zM294 15q142 0 142 144q0 76 -43.5 122.5t-120.5 47.5q-28 1 -72 -2v-246q0 -37 18.5 -51.5t75.5 -14.5z" />
    <glyph glyph-name="C" unicode="C" horiz-adv-x="685" 
d="M414 636q111 0 189 -37q7 -4 8.5 -7.5t2.5 -15.5l13 -122q0 -3 -5.5 -4t-6.5 3q-49 167 -207 167q-123 0 -198.5 -82t-75.5 -220q0 -133 81.5 -223.5t197.5 -90.5q79 0 129.5 39.5t80.5 122.5q1 3 6 2t5 -3l-10 -112q-2 -18 -12 -23q-93 -43 -200 -43q-160 0 -261.5 91
t-101.5 237q0 143 103 232t262 89z" />
    <glyph glyph-name="D" unicode="D" horiz-adv-x="694" 
d="M307 -4q-18 0 -73 3t-80 3q-24 0 -64.5 -1t-55.5 -1q-2 0 -2 6t2 6q53 0 68.5 12.5t15.5 56.5v463q0 43 -15 56t-68 13q-2 0 -2 6t2 6q15 0 55 -1.5t64 -1.5q23 0 72 2.5t67 2.5q157 0 254.5 -86.5t97.5 -217.5q0 -146 -98 -236.5t-240 -90.5zM297 12q118 0 190.5 76
t72.5 213q0 133 -71 221.5t-187 88.5q-64 0 -87.5 -13t-23.5 -56v-450q0 -44 21.5 -62t84.5 -18z" />
    <glyph glyph-name="E" unicode="E" horiz-adv-x="540" 
d="M479 150q0 2 3 2.5t6 -0.5t3 -3q-9 -65 -9 -134q0 -15 -16 -15h-423q-2 0 -2 6t2 6q53 0 68 12.5t15 56.5v463q0 43 -15 56t-68 13q-2 0 -2 6t2 6h406q9 0 9 -9l2 -125q0 -3 -5.5 -3t-5.5 3q-6 54 -37 83t-81 29h-55q-47 0 -62 -13t-15 -50v-204h115q50 0 72.5 17
t22.5 55q0 2 6 2t6 -2q0 -22 -0.5 -47t-0.5 -36q0 -15 1 -45.5t1 -48.5q0 -2 -6 -2t-6 2q0 44 -23 63.5t-75 19.5h-113v-229q0 -38 14 -50.5t59 -12.5h71q53 0 88 33.5t48 94.5z" />
    <glyph glyph-name="F" unicode="F" horiz-adv-x="512" 
d="M458 616l2 -125q0 -3 -5.5 -3t-5.5 3q-6 54 -37 83t-81 29h-55q-45 0 -61 -12.5t-16 -47.5v-219h96q54 0 78 17.5t24 54.5q0 2 6 2t6 -2q0 -22 -0.5 -47t-0.5 -36q0 -15 1 -45.5t1 -48.5q0 -2 -6 -2t-6 2q0 44 -25 63.5t-81 19.5h-93v-217q0 -46 21.5 -59.5t97.5 -13.5
q2 0 2 -6t-2 -6q-20 0 -71.5 1t-85.5 1q-23 0 -64 -1t-56 -1q-3 0 -3 6t3 6q54 0 69.5 12.5t15.5 56.5v463q0 43 -15 56t-68 13q-2 0 -2 6t2 6h406q9 0 9 -9z" />
    <glyph glyph-name="G" unicode="G" horiz-adv-x="717" 
d="M411 -12q-166 0 -264 94t-98 233q0 145 107 233t271 88q113 0 176 -37q8 -4 9.5 -6.5t2.5 -15.5l13 -121q0 -3 -5 -4t-7 2q-22 73 -74 119t-138 46q-117 0 -193.5 -79t-76.5 -210q0 -87 33 -159.5t103.5 -120t166.5 -47.5q69 0 96.5 26.5t27.5 95.5q0 73 -17 90t-94 17
q-4 0 -5.5 4t0 8t4.5 4q114 -8 229 -2q4 0 4.5 -7t-4.5 -7q-34 1 -41.5 -18t-7.5 -99q0 -40 3.5 -63t3.5 -25q0 -6 -2 -8t-9 -4q-124 -27 -214 -27z" />
    <glyph glyph-name="H" unicode="H" horiz-adv-x="760" 
d="M724 12q3 0 3 -6t-3 -6q-14 0 -55.5 1t-65.5 1q-29 0 -70 -1t-54 -1q-3 0 -3 6t3 6q56 0 71.5 12.5t15.5 56.5v233h-373v-233q0 -44 15.5 -56.5t71.5 -12.5q2 0 2 -6t-2 -6q-15 0 -56 1t-69 1q-24 0 -65 -1t-56 -1q-2 0 -2 6t2 6q55 0 70.5 12.5t15.5 56.5v463
q0 43 -15.5 56t-69.5 13q-2 0 -2 6t2 6q15 0 55.5 -1.5t64.5 -1.5q28 0 69.5 1.5t55.5 1.5q2 0 2 -6t-2 -6q-55 0 -71 -14t-16 -57v-206h373v206q0 44 -16 57.5t-71 13.5q-3 0 -3 6t3 6q13 0 54 -1.5t70 -1.5q24 0 65.5 1.5t55.5 1.5q3 0 3 -6t-3 -6q-54 0 -70 -13t-16 -56
v-463q0 -44 15.5 -56.5t70.5 -12.5z" />
    <glyph glyph-name="I" unicode="I" horiz-adv-x="334" 
d="M204 81q0 -44 14.5 -56.5t68.5 -12.5q2 0 2 -6t-2 -6q-15 0 -55 1t-66 1q-24 0 -64.5 -1t-55.5 -1q-3 0 -3 6t3 6q53 0 68.5 12.5t15.5 56.5v463q0 43 -15.5 56t-68.5 13q-3 0 -3 6t3 6q15 0 55.5 -1.5t64.5 -1.5q26 0 66.5 1.5t54.5 1.5q2 0 2 -6t-2 -6
q-52 0 -67.5 -13.5t-15.5 -57.5v-461z" />
    <glyph glyph-name="J" unicode="J" horiz-adv-x="325" 
d="M283 625q2 0 2 -6t-2 -6q-45 0 -58 -13.5t-13 -57.5v-566q0 -101 -47.5 -160t-136.5 -59q-35 0 -55.5 12t-20.5 33q0 16 10 26.5t27 10.5t29 -10t17 -21.5t14.5 -21.5t22.5 -10q66 0 66 170v598q0 43 -18 56t-78 13q-2 0 -2 6t2 6q18 0 62 -1.5t70 -1.5q24 0 60 1.5
t49 1.5z" />
    <glyph glyph-name="K" unicode="K" horiz-adv-x="651" 
d="M645 12q3 0 3 -6t-3 -6h-112q-42 0 -48 2q-11 5 -42 47l-72 96l-149 189l-31 -30v-223q0 -44 14.5 -56.5t68.5 -12.5q3 0 3 -6t-3 -6q-15 0 -55 1t-65 1q-24 0 -64.5 -1t-55.5 -1q-2 0 -2 6t2 6q53 0 68.5 12.5t15.5 56.5v463q0 43 -15 56t-68 13q-2 0 -2 6t2 6
q15 0 55 -1.5t64 -1.5q25 0 65.5 1.5t54.5 1.5q2 0 2 -6t-2 -6q-52 0 -67.5 -13.5t-15.5 -57.5v-212l209 210q38 38 31.5 55.5t-58.5 17.5q-2 0 -2 6t2 6q14 0 51 -1.5t68 -1.5q30 0 64 1.5t46 1.5q3 0 3 -6t-3 -6q-99 0 -178 -79l-150 -149l144 -186l49.5 -63.5t40.5 -47.5
l30.5 -33t26 -21.5t20.5 -13t20 -6.5t18.5 -2h21.5z" />
    <glyph glyph-name="L" unicode="L" horiz-adv-x="535" 
d="M190 543v-458q0 -40 13.5 -51.5t62.5 -11.5h96q60 0 98.5 36.5t50.5 99.5q0 2 2.5 2.5t5.5 -0.5t3 -3q-9 -86 -9 -142q0 -15 -15 -15h-464q-2 0 -2 6t2 6q53 0 68 12.5t15 56.5v463q0 43 -15 56t-68 13q-2 0 -2 6t2 6q14 0 54.5 -1.5t64.5 -1.5q25 0 65.5 1.5t54.5 1.5
q2 0 2 -6t-2 -6q-53 0 -68 -13.5t-15 -56.5z" />
    <glyph glyph-name="M" unicode="M" horiz-adv-x="839" 
d="M816 12q3 0 3 -6t-3 -6q-15 0 -55.5 1t-64.5 1t-61.5 -1t-50.5 -1q-2 0 -2 6t2 6q49 0 63 13t12 56l-19 445l-224 -519q-2 -4 -8.5 -4t-8.5 4l-247 517l-8 -412q-1 -53 18.5 -76.5t65.5 -23.5q2 0 2 -6t-2 -6q-14 0 -46 1t-51 1t-50.5 -1t-43.5 -1q-3 0 -3 6t3 6
q81 0 82 100l9 455q-30 46 -84 46q-3 0 -3 6t3 6q12 0 36 -1t32 -1q13 0 32 1t23 1q13 0 21 -9t25 -43l223 -460l212 487q11 25 30 25q3 0 16.5 -1t24.5 -1q20 0 46 1t38 1q2 0 2 -6t-2 -6q-50 0 -71.5 -15.5t-20.5 -55.5l21 -461q2 -44 16.5 -56.5t67.5 -12.5z" />
    <glyph glyph-name="N" unicode="N" horiz-adv-x="728" 
d="M707 625q3 0 3 -6t-3 -6q-80 0 -80 -101v-524q0 -3 -5 -4t-7 1l-466 558q-2 2 -3 4v-435q0 -52 19 -76t59 -24q3 0 3 -6t-3 -6q-12 0 -41 1t-48 1q-18 0 -50.5 -1t-45.5 -1q-2 0 -2 6t2 6q43 0 62.5 24t19.5 76v461q-41 40 -83 40q-3 0 -3 6t3 6q12 0 36.5 -1t34.5 -1
q17 0 40 1t28 1q8 0 12 -4t14 -19t21 -29l378 -458v397q0 52 -18 76.5t-59 24.5q-2 0 -2 6t2 6q13 0 42 -1.5t48 -1.5q17 0 48.5 1.5t43.5 1.5z" />
    <glyph glyph-name="O" unicode="O" horiz-adv-x="766" 
d="M366 -12q-141 0 -229 94t-88 230q0 78 32 141.5t83.5 102.5t112.5 59.5t124 20.5q142 0 229 -95t87 -222q0 -138 -103.5 -234.5t-247.5 -96.5zM401 10q101 0 166.5 74.5t65.5 206.5q0 142 -75 231.5t-198 89.5q-107 0 -167 -70.5t-60 -194.5q0 -144 75 -240.5t193 -96.5z
" />
    <glyph glyph-name="P" unicode="P" horiz-adv-x="544" 
d="M196 85q0 -46 20.5 -59.5t94.5 -13.5q3 0 3 -6t-3 -6q-19 0 -69 1t-82 1q-23 0 -63.5 -1t-55.5 -1q-3 0 -3 6t3 6q52 0 67 12.5t15 56.5v463q0 43 -15 56t-67 13q-3 0 -3 6t3 6q15 0 55 -1.5t63 -1.5q15 0 63.5 3t75.5 3q92 0 148.5 -40.5t57.5 -123.5q1 -97 -66 -149.5
t-154 -52.5q-29 0 -49 5q-1 0 -1.5 2.5t0 5t1.5 4t3 1.5q15 -4 35 -4q62 0 105 43t43 124q0 79 -41 124t-108 45q-47 0 -61.5 -12t-14.5 -58v-457z" />
    <glyph glyph-name="Q" unicode="Q" horiz-adv-x="766" 
d="M745 -164q2 1 3.5 -1.5t1.5 -5t-1 -3.5q-50 -12 -84 -12q-70 0 -148 46t-134 128h-17q-141 0 -229 94t-88 230q0 78 32 141.5t83.5 102.5t112.5 59.5t124 20.5q142 0 229 -95t87 -222q0 -111 -69 -197.5t-177 -118.5q41 -74 109 -122t129 -48q23 0 36 3zM133 347
q0 -144 75 -240.5t193 -96.5q101 0 166.5 74.5t65.5 206.5q0 142 -75 231.5t-198 89.5q-107 0 -167 -70.5t-60 -194.5z" />
    <glyph glyph-name="R" unicode="R" horiz-adv-x="678" 
d="M687 12q3 0 3 -6t-3 -6h-137q-50 0 -253 309q-27 -5 -50 -5q-5 0 -47 3v-226q0 -44 14.5 -56.5t68.5 -12.5q3 0 3 -6t-3 -6q-15 0 -55 1t-65 1q-24 0 -64.5 -1t-55.5 -1q-2 0 -2 6t2 6q53 0 68.5 12.5t15.5 56.5v463q0 43 -15 56t-67 13q-3 0 -3 6t3 6q14 0 54 -1.5
t64 -1.5q21 0 71.5 3t70.5 3q80 0 124.5 -35.5t44.5 -95.5q0 -54 -31.5 -98t-83.5 -69q124 -179 195 -248.5t133 -69.5zM200 331q29 -3 59 -3q75 0 107 33.5t32 104.5q0 79 -33 112.5t-95 33.5q-39 0 -54.5 -14.5t-15.5 -55.5v-211z" />
    <glyph glyph-name="S" unicode="S" horiz-adv-x="495" 
d="M150 511q0 -29 10.5 -53t35 -45.5t41.5 -33t54 -33.5q39 -24 56 -36t44 -36.5t38.5 -52t11.5 -61.5q0 -75 -55.5 -123.5t-151.5 -48.5q-81 0 -144 36q-9 5 -10 19l-11 140q-1 4 4.5 5t6.5 -3q9 -34 22.5 -63t34.5 -56.5t52 -43.5t68 -16q49 0 82 26t33 85q0 34 -11 61.5
t-36 51t-43.5 36.5t-55.5 35q-37 23 -53 34.5t-41.5 35t-36 49.5t-10.5 59q0 75 57 116t134 41q62 0 119 -23q15 -7 15 -18l6 -120q0 -4 -5.5 -5t-6.5 3q-4 22 -13 44.5t-25.5 47t-44.5 40t-63 15.5q-53 0 -80.5 -31t-27.5 -78z" />
    <glyph glyph-name="T" unicode="T" horiz-adv-x="636" 
d="M194 606q-62 0 -95.5 -33.5t-48.5 -109.5q0 -2 -3 -2.5t-6 0.5t-3 2q14 95 14 184q0 5 6 5t6 -5q0 -22 54 -22q86 -3 201 -3q52 0 112 1.5t81 1.5q68 0 76 25q1 4 6 4t5 -4q-9 -92 -9 -187q0 -2 -5.5 -2t-6.5 2q-4 77 -35.5 110t-97.5 33q-58 0 -73 -11t-15 -53v-461
q0 -44 16.5 -56.5t78.5 -12.5q2 0 2 -6t-2 -6q-16 0 -60 1t-73 1q-27 0 -71 -1t-61 -1q-2 0 -2 6t2 6q61 0 78.5 12.5t17.5 56.5v463q0 42 -15.5 52t-73.5 10z" />
    <glyph glyph-name="U" unicode="U" horiz-adv-x="699" 
d="M572 512q0 101 -88 101q-3 0 -3 6t3 6q14 0 47 -1.5t54 -1.5q17 0 48.5 1.5t44.5 1.5q2 0 2 -6t-2 -6q-80 0 -80 -101v-283q0 -113 -65 -177.5t-174 -64.5q-112 0 -179.5 64t-67.5 173v320q0 43 -15 56t-68 13q-2 0 -2 6t2 6q15 0 55 -1.5t64 -1.5q26 0 66 1.5t53 1.5
q3 0 3 -6t-3 -6q-52 0 -67 -13.5t-15 -57.5v-283q0 -118 52 -179.5t147 -61.5q89 0 138.5 55.5t49.5 154.5v284z" />
    <glyph glyph-name="V" unicode="V" horiz-adv-x="665" 
d="M668 625q3 0 3 -6t-3 -6q-70 0 -105 -86l-208 -526q-1 -4 -10.5 -4t-11.5 4l-249 541q-18 38 -36.5 54.5t-47.5 16.5q-3 0 -3 6t3 6q12 0 37 -1.5t44 -1.5q40 0 83.5 1.5t54.5 1.5q3 0 3 -6t-3 -6q-87 0 -53 -71l203 -442l171 432q17 40 0.5 60.5t-69.5 20.5q-3 0 -3 6
t3 6q15 0 48.5 -1.5t60.5 -1.5q19 0 45.5 1.5t42.5 1.5z" />
    <glyph glyph-name="W" unicode="W" horiz-adv-x="927" 
d="M931 625q3 0 3 -6t-3 -6q-71 0 -105 -86l-208 -526q-2 -4 -11 -4t-11 4l-130 281l-111 -281q-1 -4 -10.5 -4t-11.5 4l-249 541q-19 41 -36.5 56t-47.5 15q-3 0 -3 6t3 6q12 0 37 -1.5t44 -1.5q35 0 74.5 1.5t49.5 1.5q3 0 3 -6t-3 -6q-42 0 -52 -14t8 -57l207 -444
l85 213l-107 231q-17 38 -35 54.5t-44 16.5q-3 0 -3 6t3 6q12 0 36 -1.5t41 -1.5q28 0 57 1.5t36 1.5q3 0 3 -6t-3 -6q-31 0 -33 -12.5t19 -58.5l68 -146l54 136q17 43 11 62t-38 19q-2 0 -2 6t2 6q8 0 26 -1.5t40 -1.5q18 0 44 1.5t41 1.5q2 0 2 -6t-2 -6q-68 0 -101 -86
l-64 -159l127 -270l171 431q32 84 -64 84q-3 0 -3 6t3 6q15 0 47 -1.5t57 -1.5q20 0 46 1.5t43 1.5z" />
    <glyph glyph-name="X" unicode="X" horiz-adv-x="651" 
d="M637 12q2 0 2 -6t-2 -6q-13 0 -45.5 1t-52.5 1q-29 0 -71 -1t-57 -1q-2 0 -2 6t2 6q35 0 44.5 8t-5.5 31l-149 227l-120 -169q-33 -47 -25 -72t56 -25q3 0 3 -6t-3 -6q-16 0 -51.5 1t-64.5 1q-18 0 -42 -1t-39 -1q-3 0 -3 6t3 6q71 0 142 99l134 183l-161 245
q-27 40 -52.5 57t-58.5 17q-2 0 -2 6t2 6q13 0 39.5 -1.5t38.5 -1.5q29 0 75 1.5t61 1.5q3 0 3 -6t-3 -6q-35 0 -44 -8.5t5 -31.5l145 -220l111 157q35 50 28 76.5t-55 26.5q-3 0 -3 6t3 6q16 0 51.5 -1.5t64.5 -1.5q18 0 42 1.5t39 1.5q3 0 3 -6t-3 -6q-69 0 -147 -106
l-124 -169l168 -255q26 -39 53 -55t67 -16z" />
    <glyph glyph-name="Y" unicode="Y" horiz-adv-x="611" 
d="M616 625q2 0 2 -6t-2 -6q-35 0 -73.5 -28.5t-68.5 -77.5l-129 -200v-226q0 -44 14.5 -56.5t67.5 -12.5q3 0 3 -6t-3 -6q-14 0 -54 1t-65 1q-24 0 -64.5 -1t-55.5 -1q-2 0 -2 6t2 6q53 0 68.5 12.5t15.5 56.5v210l-162 240q-30 46 -55 64t-55 18q-3 0 -3 6t3 6
q11 0 35 -1.5t35 -1.5q30 0 80 1.5t64 1.5q2 0 2 -6t-2 -6q-73 0 -38 -49l157 -233l116 182q30 47 22 73.5t-53 26.5q-2 0 -2 6t2 6q16 0 53 -1.5t67 -1.5q17 0 40 1.5t38 1.5z" />
    <glyph glyph-name="Z" unicode="Z" horiz-adv-x="597" 
d="M56 13l387 587q3 5 2.5 6.5t-7.5 1.5q-65 0 -102 -0.5t-78 -2.5t-61 -4.5t-43 -9t-33 -13.5t-22 -20.5t-18.5 -27.5t-15.5 -36q0 -2 -3.5 -2t-6 1.5t-2.5 2.5l40 159q0 1 3.5 1.5t6 -1t2.5 -2.5q-3 -18 7.5 -23t49.5 -5h365q5 0 7.5 -5t-0.5 -8l-382 -585q-4 -5 -3 -6.5
t8 -1.5h245q129 0 150 119q1 2 6 2t5 -2l-14 -130q0 -10 -9 -10q-149 2 -478 2q-5 0 -7 4.5t1 8.5z" />
    <glyph glyph-name="bracketleft" unicode="[" horiz-adv-x="274" 
d="M85 -106v821q0 7 1.5 8.5t7.5 1.5h142q3 0 3 -6t-3 -6q-54 0 -70 -14t-16 -57v-676q0 -43 16 -57t70 -14q3 0 3 -6t-3 -6h-142q-6 0 -7.5 2t-1.5 9z" />
    <glyph glyph-name="backslash" unicode="\" horiz-adv-x="343" 
d="M277 -164l-251 881q-1 2 3 4.5t9 4.5t11 3.5t10.5 2t5.5 -1.5l252 -882q1 -1 -3 -3.5t-9.5 -4.5t-11.5 -3.5t-10.5 -1.5t-5.5 1z" />
    <glyph glyph-name="bracketright" unicode="]" horiz-adv-x="274" 
d="M189 -106q0 -7 -1.5 -9t-7.5 -2h-142q-3 0 -3 6t3 6q54 0 70 14t16 57v676q0 43 -16 57t-70 14q-3 0 -3 6t3 6h142q6 0 7.5 -1.5t1.5 -8.5v-821z" />
    <glyph glyph-name="asciicircum" unicode="^" horiz-adv-x="392" 
d="M333 380q1 -1 -1 -3t-4.5 -2.5t-3.5 0.5l-128 165l-128 -165q-2 -2 -6.5 0.5t-3.5 4.5l127 249q1 5 11 5t11 -5z" />
    <glyph glyph-name="underscore" unicode="_" horiz-adv-x="398" 
d="M34 -77q-3 0 -4 10.5t0 21t3 10.5h331q4 0 4 -21t-4 -21h-330z" />
    <glyph glyph-name="grave" unicode="`" horiz-adv-x="213" 
d="M39 727q-3 9 39 0q27 -6 28 -11l48 -240q0 -1 -2 -2.5t-5 -1.5t-3 2z" />
    <glyph glyph-name="a" unicode="a" horiz-adv-x="420" 
d="M414 54q5 2 6.5 -3.5t-2.5 -7.5l-103 -49q-4 -2 -9 -2q-13 0 -23.5 17.5t-14.5 47.5l-50 -33q-45 -31 -85 -31q-38 0 -59 19.5t-21 49.5q0 32 25.5 53.5t81.5 42.5l107 39v66q0 114 -61 114q-33 0 -50 -23t-22 -52q-6 -44 -41 -44q-18 0 -27 9t-9 22q0 38 65.5 72.5
t120.5 34.5q41 0 63.5 -26.5t22.5 -76.5v-185q0 -66 39 -66q18 0 46 12zM228 48l39 24v6v105l-84 -34q-55 -21 -55 -61q0 -24 15.5 -39.5t39.5 -15.5q20 0 45 15z" />
    <glyph glyph-name="b" unicode="b" horiz-adv-x="511" 
d="M313 399q68 0 115 -48.5t47 -136.5q0 -107 -65.5 -167t-153.5 -60q-77 0 -137 44l-79 -36q-4 -1 -6 3t1 7q30 20 43 40.5t13 57.5v493q0 36 -6.5 51.5t-24.5 15.5t-45 -13q-2 -1 -4.5 1.5t-2.5 6t2 4.5l129 62q3 1 5 1q3 0 6.5 -3t3.5 -6v-400q79 83 159 83zM285 6
q56 0 87 45t31 128q0 89 -34.5 136t-90.5 47q-60 0 -124 -64v-161q0 -66 42 -98.5t89 -32.5z" />
    <glyph glyph-name="c" unicode="c" horiz-adv-x="413" 
d="M231 -12q-96 0 -146 59t-50 138q0 95 68.5 152.5t153.5 57.5q45 0 81.5 -18t36.5 -45q0 -15 -10.5 -25t-27.5 -10q-32 0 -48 36q-11 22 -25.5 32t-41.5 10q-54 0 -84 -43.5t-30 -115.5q0 -84 41 -137.5t125 -53.5q57 0 100 32q2 1 4.5 -0.5t3.5 -3.5t-1 -4
q-67 -61 -150 -61z" />
    <glyph glyph-name="d" unicode="d" horiz-adv-x="512" 
d="M504 58q2 1 4.5 -1.5t3 -5.5t-1.5 -4l-115 -55q-6 -2 -7 -2q-13 0 -22 21t-10 59q-81 -83 -164 -83q-65 0 -111 53t-46 139q0 105 72 162.5t157 57.5q51 0 92 -23v220q0 36 -7 51.5t-25 15.5q-13 0 -44 -13q-3 -1 -5.5 1.5t-2.5 5.5t2 4l130 63q2 1 5 1t6.5 -3t3.5 -6
v-605q0 -36 8 -51.5t27 -15.5q25 0 50 14zM234 25q61 0 122 63v224q-46 66 -117 66q-61 0 -96.5 -43.5t-35.5 -125.5q0 -83 35.5 -133.5t91.5 -50.5z" />
    <glyph glyph-name="e" unicode="e" horiz-adv-x="409" 
d="M363 58q2 2 5.5 -2.5t1.5 -7.5q-67 -60 -148 -60q-87 0 -137 56.5t-50 136.5q0 89 62 151.5t152 62.5q58 0 88.5 -29.5t30.5 -84.5q0 -27 -12 -27l-247 -1q-2 -22 -2 -34q0 -87 41 -140t116 -53q46 0 99 32zM215 375q-42 0 -69 -28.5t-35 -79.5l182 4q0 104 -78 104z" />
    <glyph glyph-name="f" unicode="f" horiz-adv-x="305" 
d="M319 726q52 0 84.5 -15.5t32.5 -38.5q0 -16 -11.5 -25.5t-26.5 -9.5q-23 0 -43 29q-27 42 -72 42q-56 0 -88.5 -66.5t-32.5 -202.5v-64q62 3 125 10q7 0 7 -23q0 -5 -1.5 -11.5t-4 -10t-4.5 -3.5q-52 13 -122 15v-271q0 -44 17 -56.5t80 -12.5q3 0 3 -6t-3 -6
q-23 0 -65.5 1t-64.5 1q-19 0 -52.5 -1t-45.5 -1q-3 0 -3 6t3 6q42 0 54.5 13t12.5 56v225q0 36 -12 44.5t-59 8.5q-3 0 -3 7t3 7q40 0 54.5 9.5t15.5 35.5q5 163 59.5 235.5t162.5 72.5z" />
    <glyph glyph-name="g" unicode="g" horiz-adv-x="446" 
d="M252 27q91 -1 124 -16q53 -24 53 -87q0 -83 -75 -144t-174 -61q-68 0 -108.5 31.5t-40.5 79.5q0 74 102 144q-76 12 -76 69q0 53 72 107q-35 17 -55 47.5t-20 66.5q0 57 46.5 93t116.5 36q63 0 104 -31q56 33 107 33q6 0 6 -24q0 -30 -8 -36q-1 -1 -2 0q-32 15 -68 15
q-14 0 -21 -1q33 -36 33 -84q0 -55 -46 -93.5t-115 -38.5q-31 0 -63 10q-34 -27 -34 -60t31 -44.5t111 -11.5zM191 377q-69 0 -69 -88q0 -66 32 -103.5t74 -37.5q32 0 51.5 23.5t19.5 71.5q0 61 -31.5 97.5t-76.5 36.5zM225 -250q66 0 107 35.5t41 95.5q0 25 -8.5 42t-20 26
t-34.5 13.5t-42 6t-53 1.5q-40 0 -58 2q-63 -41 -63 -105q0 -55 35 -86t96 -31z" />
    <glyph glyph-name="h" unicode="h" horiz-adv-x="500" 
d="M480 12q3 0 3 -6t-3 -6q-11 0 -42.5 1t-50.5 1t-51 -1t-42 -1q-3 0 -3 6t3 6q37 0 49 13.5t12 55.5v156q0 115 -90 115q-63 0 -116 -58v-213q0 -42 12 -55.5t50 -13.5q3 0 3 -6t-3 -6q-11 0 -42.5 1t-50.5 1q-20 0 -51 -1t-42 -1q-3 0 -3 6t3 6q37 0 49 13.5t12 55.5v515
q0 68 -31 68q-14 0 -44 -14q-3 -1 -5.5 1.5t-2.5 6t2 4.5l131 63h3q10 0 10 -9v-404q73 85 154 85q55 0 85 -32t30 -91v-193q0 -42 12 -55.5t50 -13.5z" />
    <glyph glyph-name="i" unicode="i" horiz-adv-x="271" 
d="M137 509q-22 0 -34.5 12t-12.5 34q0 20 12.5 32t34.5 12q21 0 33 -12t12 -32q0 -22 -12 -34t-33 -12zM51 0q-3 0 -3 6t3 6q37 0 49 13.5t12 55.5v186q0 67 -32 67q-17 0 -44 -14q-3 -1 -5 1.5t-2 6t2 4.5l133 62l4 1q3 0 6.5 -3t3.5 -6q0 -4 -0.5 -20.5t-1 -43
t-0.5 -54.5v-187q0 -42 11.5 -55.5t49.5 -13.5q3 0 3 -6t-3 -6q-11 0 -42.5 1t-50.5 1q-20 0 -51 -1t-42 -1z" />
    <glyph glyph-name="j" unicode="j" horiz-adv-x="258" 
d="M129 509q-22 0 -34.5 12t-12.5 34q0 20 12.5 32t34.5 12q21 0 33 -12t12 -32q0 -22 -12 -34t-33 -12zM170 386q0 -4 -0.5 -20.5t-1 -43t-0.5 -54.5v-316q0 -101 -32 -152.5t-115 -81.5q-2 -1 -4.5 4.5t-0.5 6.5q49 21 69 67t20 133v338q0 67 -31 67q-17 0 -44 -14
q-3 -1 -5.5 1.5t-2.5 6t2 4.5l134 62q2 1 3 1q9 0 9 -9z" />
    <glyph glyph-name="k" unicode="k" horiz-adv-x="491" 
d="M486 12q2 0 2 -6t-2 -6q-11 0 -42.5 1t-50.5 1q-28 0 -66 -1t-51 -1q-2 0 -2 6t2 6q67 0 39 41l-122 163l-44 -35v-100q0 -42 12 -55.5t50 -13.5q3 0 3 -6t-3 -6q-11 0 -42.5 1t-50.5 1q-20 0 -51 -1t-42 -1q-3 0 -3 6t3 6q37 0 49 13.5t12 55.5v515q0 68 -31 68
q-14 0 -44 -14q-3 -1 -5.5 1.5t-2.5 6t2 4.5l129 62q3 1 5 1q3 0 6.5 -3t3.5 -6v-518l127 106q37 29 30 49.5t-53 20.5q-3 0 -3 6t3 6q14 0 49.5 -1t66.5 -1q28 0 61 1t44 1q2 0 2 -6t-2 -6q-87 0 -177 -74l-55 -44l130 -175q50 -69 114 -69z" />
    <glyph glyph-name="l" unicode="l" horiz-adv-x="260" 
d="M39 0q-3 0 -3 6t3 6q37 0 49 13.5t12 55.5v515q0 36 -6.5 52t-23.5 16q-15 0 -45 -14q-2 -1 -4.5 1.5t-3 6t1.5 4.5l132 62q2 1 4 1q3 0 7 -3t4 -6v-635q0 -42 11.5 -55.5t49.5 -13.5q3 0 3 -6t-3 -6q-11 0 -43 1t-51 1t-51 -1t-43 -1z" />
    <glyph glyph-name="m" unicode="m" horiz-adv-x="766" 
d="M745 12q4 0 4 -6t-4 -6q-11 0 -42 1t-51 1q-19 0 -50.5 -1t-42.5 -1q-2 0 -2 6t2 6q38 0 50 13.5t12 55.5v156q0 115 -84 115q-61 0 -112 -59v-15v-197q0 -42 12 -55.5t50 -13.5q2 0 2 -6t-2 -6q-12 0 -43.5 1t-50.5 1t-50 -1t-42 -1q-3 0 -3 6t3 6q37 0 49 13.5t12 55.5
v156q0 115 -84 115q-60 0 -110 -57v-214q0 -42 11.5 -55.5t49.5 -13.5q3 0 3 -6t-3 -6q-11 0 -42.5 1t-50.5 1t-50 -1t-42 -1q-3 0 -3 6t3 6q37 0 48.5 13.5t11.5 55.5v196q0 63 -34 63q-15 0 -53 -15q-3 -1 -5 1.5t-2 5.5t2 4l120 58q3 1 6 1q6 0 12.5 -9t12 -28.5
t5.5 -44.5q69 84 147 84q93 0 108 -88q73 88 151 88q110 0 110 -123v-193q0 -42 11.5 -55.5t49.5 -13.5z" />
    <glyph glyph-name="n" unicode="n" horiz-adv-x="519" 
d="M498 12q3 0 3 -6t-3 -6q-11 0 -42.5 1t-50.5 1t-50 -1t-42 -1q-3 0 -3 6t3 6q37 0 48.5 13.5t11.5 55.5v159q0 58 -21.5 85.5t-68.5 27.5q-63 0 -115 -57v-215q0 -42 11.5 -55.5t49.5 -13.5q3 0 3 -6t-3 -6q-11 0 -42.5 1t-50.5 1t-50 -1t-42 -1q-3 0 -3 6t3 6
q37 0 48.5 13.5t11.5 55.5v196q0 63 -34 63q-15 0 -53 -15q-3 -1 -5 1.5t-2 5.5t2 4l120 58q3 1 6 1q6 0 12.5 -9t12 -28.5t5.5 -44.5q73 86 153 86q55 0 85.5 -32t30.5 -91v-195q0 -42 11.5 -55.5t49.5 -13.5z" />
    <glyph glyph-name="o" unicode="o" horiz-adv-x="481" 
d="M232 -13q-88 0 -142.5 61.5t-54.5 149.5q0 96 66 148.5t149 52.5q88 0 142 -61.5t54 -144.5q0 -92 -62.5 -149t-151.5 -57zM261 6q109 0 109 158q0 96 -43.5 155.5t-109.5 59.5q-51 0 -79 -38t-28 -111q0 -95 42.5 -159.5t108.5 -64.5z" />
    <glyph glyph-name="p" unicode="p" horiz-adv-x="511" 
d="M320 399q64 0 109 -50t45 -134q0 -111 -68.5 -169.5t-147.5 -58.5q-58 0 -103 23v-204q0 -43 18 -56t81 -13q2 0 2 -6t-2 -6q-17 0 -60.5 1t-69.5 1q-19 0 -50.5 -1t-42.5 -1q-3 0 -3 6t3 6q39 0 50 13t11 56v469q0 35 -7.5 50.5t-27.5 15.5q-19 0 -52 -15
q-2 -1 -4.5 1.5t-3 5.5t1.5 4l117 56q4 2 7 2q13 0 22 -20.5t10 -58.5q82 83 165 83zM286 9q52 0 84.5 46t32.5 129t-36.5 128.5t-93.5 45.5q-60 0 -118 -60v-227q54 -62 131 -62z" />
    <glyph glyph-name="q" unicode="q" horiz-adv-x="490" 
d="M476 -263q2 0 2 -6t-2 -6q-11 0 -43 1t-51 1q-22 0 -58.5 -1t-51.5 -1q-2 0 -2 6t2 6q50 0 64.5 13t14.5 56v263q-80 -82 -158 -82q-66 0 -112 49.5t-46 135.5q0 58 19.5 103.5t52 71.5t70 39t77.5 13q70 0 134 -36l70 25q4 3 6 -3q1 -5 -2 -6q-49 -28 -49 -84v-489
q0 -43 12 -56t51 -13zM229 24q59 0 122 63v181q0 52 -36 81.5t-90 29.5q-117 0 -117 -174q0 -87 33 -134t88 -47z" />
    <glyph glyph-name="r" unicode="r" horiz-adv-x="367" 
d="M279 395q22 0 42.5 -13t20.5 -31q0 -14 -9.5 -23.5t-25.5 -9.5q-15 0 -33.5 16t-35.5 16q-13 0 -26.5 -10t-43.5 -44v-215q0 -42 18 -55.5t78 -13.5q3 0 3 -6t-3 -6q-15 0 -58.5 1t-69.5 1q-19 0 -50 -1t-42 -1q-3 0 -3 6t3 6q37 0 48.5 13.5t11.5 55.5v196q0 63 -34 63
q-15 0 -53 -15q-3 -1 -5 1.5t-2 5.5t2 4l120 58q3 1 6 1q6 0 12.5 -9t12 -28t5.5 -44q41 47 65 64t46 17z" />
    <glyph glyph-name="s" unicode="s" horiz-adv-x="338" 
d="M104 328q0 -18 6.5 -33t21.5 -27.5t26.5 -19.5t33.5 -19q27 -14 38.5 -21t30 -22t26.5 -33t8 -41q0 -51 -38 -87t-105 -36q-53 0 -97 30q-6 4 -6 12l-2 81q0 3 5.5 3.5t6.5 -2.5q38 -105 122 -105q64 0 61 61q0 20 -7 35.5t-22.5 28t-27 19.5t-33.5 18q-26 13 -37.5 20
t-29 21.5t-25 32.5t-7.5 42q0 55 40.5 83.5t97.5 28.5q40 0 75 -15q9 -4 9 -11q0 -10 -1 -35.5t-1 -40.5q0 -2 -6 -2t-6 2q0 31 -33.5 56.5t-71.5 25.5q-52 0 -52 -50z" />
    <glyph glyph-name="t" unicode="t" horiz-adv-x="338" 
d="M312 54q2 1 4.5 -0.5t3 -4.5t-1.5 -5q-69 -56 -131 -56q-97 0 -97 84v233q0 35 -9.5 45t-42.5 10q-3 0 -3 7t3 7q88 2 101 77q1 3 8 3t7 -3v-76q48 1 137 10q7 0 7 -23q0 -5 -1.5 -11.5t-4 -10t-4.5 -3.5q-56 13 -134 15v-246q0 -80 78 -80q42 0 80 28z" />
    <glyph glyph-name="u" unicode="u" horiz-adv-x="495" 
d="M487 58q4 2 7 -3.5t-1 -7.5l-121 -57q-2 -1 -4 -1q-10 0 -19 24t-9 62q-75 -84 -156 -84q-51 0 -80 32t-29 91v153q0 72 -29 72q-12 0 -33 -9q-2 -1 -4.5 1.5t-2.5 5.5t2 4l115 53q2 1 4 1q3 0 7 -3t4 -6v-235q0 -115 84 -115q63 0 118 57v174q0 72 -30 72q-12 0 -33 -9
q-4 -3 -6 4q-1 6 2 7l115 53q2 1 4 1q3 0 6.5 -3t3.5 -6v-277q0 -64 34 -64q15 0 51 13z" />
    <glyph glyph-name="v" unicode="v" horiz-adv-x="435" 
d="M435 386q2 0 2 -6t-2 -6q-26 0 -44.5 -17.5t-35.5 -58.5l-125 -297q-2 -5 -11 -5t-11 5l-142 302q-20 44 -34 57.5t-34 13.5q-3 0 -3 6t3 6q9 0 33 -1t40 -1q26 0 61.5 1t47.5 1q3 0 3 -6t-3 -6q-36 0 -51 -8.5t-4 -30.5l119 -250l90 217q14 37 -2.5 54.5t-67.5 17.5
q-2 0 -2 6t2 6q14 0 45 -1t56 -1q15 0 36 1t34 1z" />
    <glyph glyph-name="w" unicode="w" horiz-adv-x="673" 
d="M672 386q3 0 3 -6t-3 -6q-25 0 -43 -17t-36 -59l-124 -297q-2 -4 -11.5 -4t-10.5 4l-115 242l-102 -242q-1 -4 -10.5 -4t-11.5 4l-142 302q-20 44 -34 57.5t-34 13.5q-3 0 -3 6t3 6q9 0 33 -1t40 -1q24 0 58 1t47 1q3 0 3 -6t-3 -6q-34 0 -48.5 -8.5t-3.5 -30.5l121 -249
l75 183l-16 34q-21 44 -33.5 57.5t-31.5 13.5q-2 0 -2 6t2 6q9 0 32.5 -1t37.5 -1q25 0 59 1t46 1q3 0 3 -6t-3 -6q-33 0 -47.5 -9t-3.5 -30l119 -250l89 217q29 72 -69 72q-2 0 -2 6t2 6q14 0 45 -1t56 -1q15 0 36 1t33 1z" />
    <glyph glyph-name="x" unicode="x" horiz-adv-x="439" 
d="M429 12q2 0 2 -6t-2 -6q-11 0 -33.5 1t-32.5 1q-25 0 -59.5 -1t-46.5 -1q-3 0 -3 6t3 6q27 0 30.5 8t-11.5 31l-74 112l-55 -80q-26 -35 -20 -53t54 -18q3 0 3 -6t-3 -6q-14 0 -45 1t-55 1q-15 0 -36 -1t-34 -1q-2 0 -2 6t2 6q61 0 116 77l65 89l-83 125q-47 71 -94 71
q-2 0 -2 6t2 6q10 0 31 -1t31 -1q25 0 59.5 1t46.5 1q2 0 2 -6t-2 -6q-26 0 -30 -8t11 -31l67 -102l47 70q27 37 20.5 54t-54.5 17q-2 0 -2 6t2 6q14 0 45 -1t56 -1q15 0 36 1t34 1q2 0 2 -6t-2 -6q-60 0 -116 -77l-58 -79l90 -135q47 -71 98 -71z" />
    <glyph glyph-name="y" unicode="y" horiz-adv-x="434" 
d="M433 386q3 0 3 -6t-3 -6q-27 0 -45.5 -19t-35.5 -63l-120 -320q-54 -142 -102 -197.5t-113 -55.5q-53 0 -53 41q0 16 10 24.5t25 8.5q19 0 38.5 -12t35.5 -12q36 0 67 47.5t80 174.5l-154 312q-23 44 -35 57.5t-31 13.5q-2 0 -2 6t2 6q11 0 35 -1t35 -1q25 0 59 1t46 1
q2 0 2 -6t-2 -6q-36 0 -49.5 -8.5t-2.5 -30.5l129 -266l77 221q16 45 0.5 64.5t-66.5 19.5q-2 0 -2 6t2 6q14 0 45 -1t56 -1q15 0 35.5 1t33.5 1z" />
    <glyph glyph-name="z" unicode="z" horiz-adv-x="405" 
d="M40 12l237 354q4 7 -5 7q-108 0 -155.5 -18.5t-64.5 -73.5q0 -2 -3.5 -2t-6 1.5t-2.5 2.5l35 134q0 1 3.5 1.5t6 -0.5t2.5 -3q-4 -17 6.5 -23t41.5 -6h215q4 0 7 -4t1 -8l-235 -352q-3 -7 5 -7q131 0 172 18t60 84q1 2 6 2t5 -2l-2 -106q0 -11 -9 -11h-313q-4 0 -6.5 4
t-0.5 8z" />
    <glyph glyph-name="braceleft" unicode="{" horiz-adv-x="289" 
d="M32 298q-3 0 -3 6.5t3 6.5q24 3 40 22.5t23.5 53.5t10 66t2.5 76q0 86 12 126.5t40.5 55t89.5 14.5q4 0 4 -6t-4 -6q-34 0 -52.5 -27.5t-20.5 -78.5q-1 -66 -2 -94.5t-5 -67.5t-10 -53.5t-18.5 -34t-30 -30t-44.5 -22.5q20 -9 34.5 -17t26.5 -21.5t19 -22.5t12.5 -30.5
t8.5 -35.5t5 -48t2.5 -56.5t1.5 -72.5q2 -51 20.5 -78.5t52.5 -27.5q4 0 4 -6t-4 -6q-90 0 -116 36t-26 161q0 45 -2.5 77t-10 65.5t-23.5 53t-40 22.5z" />
    <glyph glyph-name="bar" unicode="|" horiz-adv-x="168" 
d="M65 -154v885q0 7 20.5 7t20.5 -7v-885q0 -8 -20.5 -8t-20.5 8z" />
    <glyph glyph-name="braceright" unicode="}" horiz-adv-x="283" 
d="M251 298q-24 -3 -40 -22.5t-23.5 -53t-10 -65.5t-2.5 -77q0 -125 -26 -161t-116 -36q-4 0 -4 6t4 6q34 0 52.5 27.5t20.5 78.5q1 50 1.5 72.5t2.5 56.5t5 48t8.5 35.5t12.5 30.5t19 22.5t26.5 21.5t34.5 17q-27 12 -44.5 22.5t-30 30t-18.5 34t-10 53.5t-5 67.5t-2 94.5
q-2 51 -20.5 78.5t-52.5 27.5q-4 0 -4 6t4 6q61 0 89.5 -14.5t40.5 -55t12 -126.5q0 -44 2.5 -76t10 -66t23.5 -53.5t40 -22.5q3 0 3 -6.5t-3 -6.5z" />
    <glyph glyph-name="asciitilde" unicode="~" horiz-adv-x="443" 
d="M314 200q19 0 35 7t22 13t18 19q2 2 5.5 -1.5t1.5 -5.5q-36 -48 -58.5 -64.5t-49.5 -16.5q-28 0 -77.5 18t-80.5 18q-8 0 -15 -0.5t-13.5 -3t-10 -4t-9.5 -6.5l-8.5 -7t-9.5 -9l-9 -9q-1 -1 -3 0t-3.5 3.5t-0.5 3.5q59 81 115 81q20 0 70.5 -18t80.5 -18z" />
    <glyph glyph-name="uni00A0" unicode="&#xa0;" horiz-adv-x="234" 
 />
    <glyph glyph-name="exclamdown" unicode="&#xa1;" horiz-adv-x="250" 
d="M130 365q21 0 34 -12.5t13 -34.5q0 -20 -13 -32t-34 -12q-46 0 -46 44q0 47 46 47zM175 -265q2 -10 -50 -10q-48 1 -50 10q24 116 43 430q0 3 9 3t9 -3q14 -303 39 -430z" />
    <glyph glyph-name="cent" unicode="&#xa2;" horiz-adv-x="537" 
d="M481 140q1 4 6 3t5 -4l-12 -106q-1 -13 -14 -18q-77 -27 -160 -27h-7v-90q0 -7 -11.5 -7t-11.5 7v91q-64 5 -113 29.5t-75.5 61.5t-39.5 76.5t-13 79.5q0 96 68 163.5t173 78.5v83q0 7 11.5 7t11.5 -7v-81h12q92 0 152 -29q11 -5 11 -17l9 -103q0 -3 -5.5 -4t-6.5 3
q-41 129 -172 134v-460q6 -1 18 -1q121 0 164 137zM115 251q0 -87 41.5 -157.5t119.5 -86.5v456q-72 -6 -116.5 -65t-44.5 -147z" />
    <glyph glyph-name="sterling" unicode="&#xa3;" horiz-adv-x="432" 
d="M368 125q0 1 3 1.5t6 -0.5t3 -2q-9 -52 -9 -109q0 -15 -15 -15h-328q-2 0 -2 5.5t2 6.5q52 13 70.5 36t17.5 62q-1 56 -19 108h-46q-7 0 -7 11.5t7 11.5h39q-17 53 -17 90q0 75 49.5 112t123.5 37q46 0 90 -16q15 -4 16 -19l7 -101q0 -4 -5.5 -4t-6.5 4q-31 121 -115 121
q-48 0 -70 -29.5t-22 -71.5t25 -123h109q7 0 7 -11.5t-7 -11.5h-103q10 -37 10 -70q0 -64 -50 -105h120q63 0 84.5 15t32.5 67z" />
    <glyph glyph-name="currency" unicode="&#xa4;" horiz-adv-x="414" 
d="M363 64l-30 -29l-48 55q-42 -25 -89 -25q-40 0 -73 20l-44 -50l-25 25l44 46q-37 40 -37 96q0 54 38 90l-50 50l30 27l51 -55q38 21 81 21q42 0 77 -22l50 53l24 -24l-49 -50q36 -38 36 -91q0 -51 -35 -88zM215 84q34 0 54 25t20 71q0 55 -27.5 95.5t-73.5 40.5
q-32 0 -51 -23.5t-19 -69.5q0 -54 25 -96.5t72 -42.5z" />
    <glyph glyph-name="yen" unicode="&#xa5;" horiz-adv-x="484" 
d="M476 468q3 0 3 -6t-3 -6q-65 0 -118 -90l-81 -137v-16h101q7 0 7 -11t-7 -11h-273q-7 0 -7 11t7 11h103v1l-111 171q-26 39 -47.5 55t-50.5 16q-3 0 -3 6t3 6q9 0 33 -1.5t34 -1.5q26 0 72 1.5t59 1.5q3 0 3 -6t-3 -6q-64 0 -35 -46l106 -162l68 119q22 40 14 64.5
t-41 24.5q-3 0 -3 6t3 6q14 0 46.5 -1.5t59.5 -1.5q13 0 31.5 1.5t29.5 1.5zM378 151q7 0 7 -11t-7 -11h-101v-48q0 -44 15 -56.5t69 -12.5q2 0 2 -6t-2 -6q-15 0 -54 1t-65 1q-22 0 -63 -1t-56 -1q-2 0 -2 6t2 6q54 0 69.5 12.5t15.5 56.5v48h-103q-7 0 -7 11t7 11h273z
" />
    <glyph glyph-name="brokenbar" unicode="&#xa6;" horiz-adv-x="168" 
d="M65 360v371q0 7 20.5 7t20.5 -7v-371q0 -7 -20.5 -7t-20.5 7zM65 -154v370q0 8 20.5 8t20.5 -8v-370q0 -8 -20.5 -8t-20.5 8z" />
    <glyph glyph-name="section" unicode="&#xa7;" horiz-adv-x="449" 
d="M326 31q41 -38 41 -88q0 -64 -46 -97.5t-109 -33.5q-51 0 -87 18q-11 7 -12 17l-7 101q0 3 5.5 3t6.5 -3q8 -36 46 -74.5t84 -38.5q28 0 46 17.5t18 54.5q0 39 -24.5 70t-59.5 53l-70 45.5t-59.5 61t-24.5 86.5q0 37 14.5 66t54.5 65q-38 38 -38 87q0 64 45.5 97.5
t108.5 33.5q52 0 87 -19q11 -5 11 -16l8 -102q0 -2 -6 -2t-6 2q-8 36 -46 75t-84 39q-28 0 -45.5 -18t-17.5 -54q0 -33 17.5 -60.5t43.5 -45.5l56 -39t56 -41.5t43.5 -54t17.5 -75.5q0 -37 -14 -66t-54 -64zM127 260q0 -44 21 -80t45.5 -54.5t65 -45t57.5 -40.5q25 31 25 83
q0 44 -21 80.5t-45.5 55t-64 45t-56.5 41.5q-27 -33 -27 -85z" />
    <glyph glyph-name="dieresis" unicode="&#xa8;" horiz-adv-x="322" 
d="M74 475q-45 0 -45 44q0 20 12 31.5t33 11.5q43 0 43 -43q0 -44 -43 -44zM249 475q-21 0 -33 11.5t-12 32.5q0 20 12 31t33 11q43 0 43 -42q0 -44 -43 -44z" />
    <glyph glyph-name="copyright" unicode="&#xa9;" horiz-adv-x="720" 
d="M371 -103q-54 0 -106 18.5t-95.5 54t-70.5 92.5t-27 128q0 134 98 221.5t230 87.5q113 0 183 -67t70 -163q0 -93 -72 -161.5t-177 -68.5q-90 0 -135 46.5t-45 109.5q0 77 53 123t120 46q37 0 66.5 -14.5t30.5 -37.5q0 -13 -8.5 -22t-22.5 -9q-22 0 -37 28q-25 37 -58 37
q-76 0 -76 -123q0 -69 35.5 -113t112.5 -44q70 0 119.5 45t49.5 129q0 98 -69.5 167t-171.5 69q-115 0 -180 -75t-65 -188q0 -90 42.5 -156.5t104.5 -97t130 -30.5q57 0 100.5 9.5t94.5 37.5q1 0 3 -1t2.5 -3t-0.5 -3q-94 -72 -229 -72z" />
    <glyph glyph-name="ordfeminine" unicode="&#xaa;" horiz-adv-x="280" 
d="M271 407q2 1 4.5 -1t2.5 -4.5t-1 -3.5l-68 -32q-10 -5 -19.5 6t-11.5 34l-40 -21q-37 -20 -59 -20q-21 0 -33.5 11t-12.5 28q0 16 12 26.5t43 21.5l89 32v54q0 46 -12 60t-33 14q-18 0 -30 -14.5t-16 -36.5q-4 -27 -26 -27q-12 0 -19.5 7.5t-7.5 16.5q0 24 45.5 48
t80.5 24q26 0 43 -18t17 -54v-117q0 -34 11 -40.5t41 6.5zM137 397l40 21v1v54l-66 -25q-27 -11 -27 -29q0 -12 8 -20t20 -8q11 0 25 6zM260 315q4 0 4 -14.5t-4 -14.5h-224q-3 0 -4 7t0 14.5t3 7.5h225z" />
    <glyph glyph-name="guillemotleft" unicode="&#xab;" horiz-adv-x="459" 
d="M237 40l-179 149q-4 5 -4 12t4 11l179 149q1 2 3 1.5t3.5 -3t0.5 -3.5l-117 -155l117 -155q1 -3 -3 -6q-3 -2 -4 0zM392 40l-179 149q-10 11 0 23l179 149q1 2 3.5 1t3.5 -2.5t0 -3.5l-116 -155l116 -155q1 -1 0 -3.5t-3 -3.5t-4 1z" />
    <glyph glyph-name="logicalnot" unicode="&#xac;" horiz-adv-x="395" 
d="M364 268v-191q0 -3 -10 -4t-20.5 0t-10.5 3v152h-289q-3 0 -4 10t0 20t3 10h331z" />
    <glyph glyph-name="uni00AD" unicode="&#xad;" horiz-adv-x="323" 
d="M32 163q-3 0 -4 10.5t-0.5 22t2.5 11.5l261 47q3 0 4 -10.5t0 -22t-4 -11.5z" />
    <glyph glyph-name="registered" unicode="&#xae;" horiz-adv-x="748" 
d="M395 725q127 0 206 -79t79 -195q0 -131 -91.5 -222t-221.5 -91q-116 0 -205.5 78.5t-89.5 209.5q0 130 96 214.5t227 84.5zM396 166q111 0 175.5 69.5t64.5 185.5q0 123 -77.5 202t-196.5 79q-116 0 -179.5 -71.5t-63.5 -176.5q0 -131 84 -209.5t193 -78.5zM564 281
q2 -1 2 -5t-2 -4h-83q-17 0 -98 162q-21 -4 -52 -4v-102q0 -29 8.5 -36.5t41.5 -7.5q1 0 1 -6t-1 -6q-9 0 -33 1t-40 1q-12 0 -38 -1t-33 -1q-1 0 -1 6t1 6q31 0 39 7.5t8 36.5v216q0 28 -8.5 36t-38.5 8q-1 0 -1 6t1 6q10 0 34.5 -0.5t36.5 -0.5q13 0 42 1.5t40 1.5
q93 0 93 -66q0 -60 -55 -87q48 -95 73.5 -128.5t62.5 -39.5zM331 448q53 -7 77.5 7t24.5 58q0 76 -59 76q-26 0 -34.5 -7.5t-8.5 -40.5v-93z" />
    <glyph glyph-name="macron" unicode="&#xaf;" horiz-adv-x="345" 
d="M47 481q-7 0 -7 15t7 15h251q7 0 7 -15t-7 -15h-251z" />
    <glyph glyph-name="degree" unicode="&#xb0;" horiz-adv-x="332" 
d="M167 373q-61 0 -99.5 37t-38.5 93q0 53 38.5 90t99.5 37t98.5 -37t37.5 -92t-37.5 -91.5t-98.5 -36.5zM174 385q42 0 55 26.5t13 82.5q0 125 -81 125q-41 0 -55.5 -29t-14.5 -84q0 -121 83 -121z" />
    <glyph glyph-name="plusminus" unicode="&#xb1;" horiz-adv-x="398" 
d="M34 232q-3 0 -4 10t0 20.5t3 10.5h145v145q0 4 21 4t21 -4v-145h144q4 0 4 -20.5t-4 -20.5h-144v-144q0 -3 -10.5 -4t-21 0t-10.5 3v145h-144zM364 38q4 0 4 -18.5t-4 -18.5h-330q-3 0 -4 9.5t0 18.5t3 9h331z" />
    <glyph glyph-name="uni00B2" unicode="&#xb2;" horiz-adv-x="251" 
d="M29 408q11 38 67.5 116t56.5 124q0 28 -13 43.5t-35 15.5q-24 0 -41.5 -16t-23.5 -41q-1 -5 -10 -1q-2 2 -2 4q22 76 96 76q40 0 61 -20t21 -52q0 -33 -30.5 -71.5t-66.5 -76t-45 -61.5q-1 -4 2 -4q94 0 115.5 7.5t30.5 43.5q0 2 3.5 2t3.5 -2l-1 -88q0 -4 -4 -4h-182
q-5 0 -3 5z" />
    <glyph glyph-name="uni00B3" unicode="&#xb3;" horiz-adv-x="251" 
d="M142 573q77 -16 77 -78q0 -40 -27.5 -69.5t-76.5 -29.5q-71 0 -93 69q0 2 2.5 4t6 1.5t3.5 -2.5q20 -52 72 -52q60 0 60 69q0 37 -20.5 58.5t-54.5 21.5q-3 0 -3 5.5t3 5.5q29 0 45.5 22t16.5 50q0 26 -14 41.5t-36 15.5t-40 -16t-23 -39q-1 -5 -10 -1q-2 2 -2 4
q22 76 96 76q39 0 60.5 -20.5t21.5 -52.5q0 -27 -18 -49.5t-46 -33.5z" />
    <glyph glyph-name="acute" unicode="&#xb4;" horiz-adv-x="212" 
d="M69 474q0 -2 -3 -2t-5.5 1.5t-2.5 2.5l49 240q2 8 45 14q24 3 22 -3z" />
    <glyph glyph-name="paragraph" unicode="&#xb6;" horiz-adv-x="642" 
d="M336 -193q-29 0 -47.5 13t-18.5 33q0 16 9.5 26t25.5 10q18 0 27.5 -9.5t11.5 -20.5t10 -20.5t24 -9.5q26 0 37 40t11 139v117q-33 -3 -73 -3q-56 0 -106.5 14t-95 43t-71 82.5t-26.5 124.5q0 119 72 180.5t200 61.5q21 0 69.5 -3t79.5 -3q19 0 56.5 1.5t53.5 1.5
q2 0 2 -6t-2 -6q-89 0 -89 -81l1 -477q0 -130 -38 -189t-123 -59z" />
    <glyph glyph-name="periodcentered" unicode="&#xb7;" horiz-adv-x="195" 
d="M97 154q-21 0 -34 12.5t-13 34.5q0 20 13 32t34 12q46 0 46 -44q0 -47 -46 -47z" />
    <glyph glyph-name="cedilla" unicode="&#xb8;" horiz-adv-x="232" 
d="M115 -2q-14 -50 -9 -63.5t41 -34.5q54 -31 54 -77q0 -38 -27 -68t-80 -30q-66 0 -66 40q0 13 9 22t23 9q13 0 21 -8t10.5 -17t11.5 -17t24 -8q32 0 32 35q0 26 -18.5 46.5t-66.5 46.5q-13 7 -14 11.5t6 18.5q12 29 36 95z" />
    <glyph glyph-name="uni00B9" unicode="&#xb9;" horiz-adv-x="262" 
d="M45 403q-2 0 -2 5.5t2 5.5q46 0 56.5 11t10.5 58v118v12q0 58 -9 64.5t-64 -16.5q-4 -2 -7 3.5t1 7.5l119 56q3 1 6.5 -1.5t3.5 -5.5v-238q0 -48 9.5 -58.5t53.5 -10.5q3 0 3 -5.5t-3 -5.5q-11 0 -40 1t-47 1t-50 -1t-43 -1z" />
    <glyph glyph-name="ordmasculine" unicode="&#xba;" horiz-adv-x="317" 
d="M154 359q-57 0 -92 40.5t-35 98.5q0 63 43 97.5t96 34.5q57 0 91.5 -40t34.5 -95q0 -56 -41 -96t-97 -40zM169 374q34 0 54 27.5t20 75.5q0 58 -27 97.5t-69 39.5q-34 0 -52.5 -25.5t-18.5 -71.5q0 -58 26.5 -100.5t66.5 -42.5zM38 286q-3 0 -4 7t0 14.5t3 7.5h243
q4 0 4 -14.5t-4 -14.5h-242z" />
    <glyph glyph-name="guillemotright" unicode="&#xbb;" horiz-adv-x="459" 
d="M67 361l179 -149q4 -4 4 -11t-4 -12l-179 -149q-2 -4 -6 1q-2 3 -1 5l117 154l-117 156q-1 2 3 5q3 2 4 0zM222 361l180 -149q10 -12 0 -23l-180 -149q-2 -4 -6 1q-2 3 -1 5l117 154l-117 156q-1 2 3 5q3 2 4 0z" />
    <glyph glyph-name="onequarter" unicode="&#xbc;" horiz-adv-x="601" 
d="M225 320q3 0 3 -5.5t-3 -5.5q-11 0 -40 1t-47 1t-50 -1t-43 -1q-2 0 -2 5.5t2 5.5q46 0 56.5 11t10.5 58v119v12v32.5t-3 20t-6 12t-13 1t-20 -5l-31 -13.5q-5 -3 -7 5q-2 4 1 5l119 57q3 1 6.5 -1.5t3.5 -5.5v-238q0 -48 9.5 -58.5t53.5 -10.5zM439 627q0 1 2 1t4 -0.5
t5 -1.5t5.5 -2t4.5 -2.5t3 -2.5t1 -2l-280 -617q0 -2 -6.5 0t-12.5 6t-6 5zM575 11q1 0 1 -6t-1 -6q-9 0 -29 0.5t-34 0.5q-17 0 -43.5 -0.5t-36.5 -0.5q-2 0 -2 6t2 6q35 0 44 5t9 25v51q-68 2 -125 2q-3 0 -4.5 2.5t0.5 4.5l158 222q2 2 9.5 1.5t7.5 -3.5v-208q12 0 44 2
q2 0 2 -13.5t-2 -13.5q-28 2 -44 2v-49q0 -20 6.5 -25t37.5 -5zM395 109q40 0 90 2v145l-92 -144q-1 -3 2 -3z" />
    <glyph glyph-name="onehalf" unicode="&#xbd;" horiz-adv-x="610" 
d="M45 309q-2 0 -2 5.5t2 5.5q46 0 56.5 11t10.5 58v119v12v32.5t-3 20t-6 12t-13 1t-20 -5l-31 -13.5q-5 -3 -7 5q-2 4 1 5l119 57q3 1 6.5 -1.5t3.5 -5.5v-238q0 -48 9.5 -58.5t53.5 -10.5q3 0 3 -5.5t-3 -5.5q-11 0 -40 1t-47 1t-50 -1t-43 -1zM184 0q0 -2 -6.5 0
t-12.5 6t-6 5l280 616q0 1 2 1t4 -0.5t5 -1.5t5.5 -2t4.5 -2.5t3 -2.5t1 -2zM388 6q10 35 42 78.5t57 84t25 77.5q0 28 -13 42.5t-35 14.5q-24 0 -41.5 -15.5t-23.5 -39.5q0 -2 -3.5 -2.5t-6 1t-2.5 3.5q22 76 96 76q40 0 61 -20t21 -51q0 -33 -30.5 -72t-66.5 -76.5
t-45 -61.5q-1 -3 2 -3q94 0 115.5 7.5t30.5 43.5q0 1 3.5 1t3.5 -1l-1 -88q0 -5 -4 -5h-182q-5 0 -3 6z" />
    <glyph glyph-name="threequarters" unicode="&#xbe;" horiz-adv-x="590" 
d="M219 401q0 -39 -27.5 -68.5t-76.5 -29.5q-72 0 -93 69q0 2 2.5 3.5t6 1t3.5 -2.5q20 -52 72 -52q60 0 60 69q0 37 -20.5 58t-54.5 21q-3 0 -3 6t3 6q29 0 45.5 22t16.5 50q0 26 -14 41.5t-36 15.5t-40 -16t-23 -38q-1 -6 -10 -2q-2 2 -2 4q22 76 96 76q38 0 60 -20.5
t22 -51.5q0 -28 -18.5 -51t-46.5 -33q78 -14 78 -78zM428 627q0 1 2 1t4 -0.5t5 -1.5t5.5 -2t4.5 -2.5t3 -2.5t1 -2l-280 -617q0 -2 -6.5 0t-12.5 6t-6 5zM564 11q1 0 1 -6t-1 -6q-9 0 -29 0.5t-34 0.5q-17 0 -43.5 -0.5t-36.5 -0.5q-1 0 -1 6t1 6q35 0 44 5t9 25v51
q-68 2 -125 2q-3 0 -4.5 2.5t0.5 4.5l158 222q2 2 9.5 1.5t7.5 -3.5v-208q12 0 44 2q2 0 2 -13.5t-2 -13.5q-28 2 -44 2v-49q0 -20 6.5 -25t37.5 -5zM384 109q40 0 90 2v145l-92 -144q-2 -3 2 -3z" />
    <glyph glyph-name="questiondown" unicode="&#xbf;" horiz-adv-x="327" 
d="M179 361q21 0 34 -12.5t13 -34.5q0 -20 -13 -32t-34 -12q-46 0 -46 44q0 47 46 47zM167 -261q22 0 30 12.5t11 33.5q7 49 42 49q17 0 27 -11.5t10 -25.5q0 -29 -36 -50.5t-86 -21.5q-60 0 -99.5 31t-39.5 89q0 12 2 23.5t4.5 19.5t9 18.5l10 16t13 15.5l13 13.5l14.5 14
t14 12.5q34 33 48 61t14 63q0 22 -6 54q0 2 3 3.5t6.5 1.5t3.5 -2q26 -60 26 -120q0 -26 -10.5 -47t-25 -36l-29 -30.5t-25 -39.5t-10.5 -54q0 -41 18.5 -67t47.5 -26z" />
    <glyph glyph-name="Agrave" unicode="&#xc0;" horiz-adv-x="704" 
d="M221 756q-10 2 13 13q43 20 58 17q113 -74 155 -97q2 -1 2.5 -4t-1.5 -5t-5 -1q-112 50 -222 77zM702 12q4 0 4 -6t-4 -6q-19 0 -59 2t-59 2q-22 0 -55.5 -2t-51.5 -2q-5 0 -5 6t5 6q51 0 62.5 15.5t-9.5 59.5l-86 180h-239l-59 -137q-49 -118 84 -118q4 0 4 -6t-4 -6
q-19 0 -55 2t-63 2q-25 0 -58.5 -2t-53.5 -2q-4 0 -4 6t4 6q41 0 66.5 25.5t58.5 101.5l211 494q2 3 8 3t7 -3l238 -496q34 -73 58 -99t55 -26zM214 288h220l-116 242z" />
    <glyph glyph-name="Aacute" unicode="&#xc1;" horiz-adv-x="704" 
d="M247 678q-4 -1 -6 4t1 7q35 18 90 53.5l66 42.5q10 7 56 -15q19 -9 18 -13q-1 -1 -3 -1q-118 -30 -222 -78zM702 12q4 0 4 -6t-4 -6q-19 0 -59 2t-59 2q-22 0 -55.5 -2t-51.5 -2q-5 0 -5 6t5 6q51 0 62.5 15.5t-9.5 59.5l-86 180h-239l-59 -137q-49 -118 84 -118
q4 0 4 -6t-4 -6q-19 0 -55 2t-63 2q-25 0 -58.5 -2t-53.5 -2q-4 0 -4 6t4 6q41 0 66.5 25.5t58.5 101.5l211 494q2 3 8 3t7 -3l238 -496q34 -73 58 -99t55 -26zM214 288h220l-116 242z" />
    <glyph glyph-name="Acircumflex" unicode="&#xc2;" horiz-adv-x="704" 
d="M235 648q-1 0 -3 1t-3 3t0 3l103 100q12 11 23 0l102 -100q2 -1 1.5 -3t-3 -3.5t-3.5 -0.5l-108 54zM702 12q4 0 4 -6t-4 -6q-19 0 -59 2t-59 2q-22 0 -55.5 -2t-51.5 -2q-5 0 -5 6t5 6q51 0 62.5 15.5t-9.5 59.5l-86 180h-239l-59 -137q-49 -118 84 -118q4 0 4 -6t-4 -6
q-19 0 -55 2t-63 2q-25 0 -58.5 -2t-53.5 -2q-4 0 -4 6t4 6q41 0 66.5 25.5t58.5 101.5l211 494q2 3 8 3t7 -3l238 -496q34 -73 58 -99t55 -26zM214 288h220l-116 242z" />
    <glyph glyph-name="Atilde" unicode="&#xc3;" horiz-adv-x="704" 
d="M218 717q-2 -2 -5.5 1t-1.5 6q43 65 85 65q14 0 56.5 -12t67.5 -12q28 0 50 27q2 2 5.5 -1.5t1.5 -5.5q-26 -39 -43 -52.5t-37 -13.5t-62 12.5t-67 12.5q-7 0 -12.5 -1t-9.5 -2.5t-8.5 -5l-6.5 -5t-6.5 -6.5t-6.5 -7zM702 12q4 0 4 -6t-4 -6q-19 0 -59 2t-59 2
q-22 0 -55.5 -2t-51.5 -2q-5 0 -5 6t5 6q51 0 62.5 15.5t-9.5 59.5l-86 180h-239l-59 -137q-49 -118 84 -118q4 0 4 -6t-4 -6q-19 0 -55 2t-63 2q-25 0 -58.5 -2t-53.5 -2q-4 0 -4 6t4 6q41 0 66.5 25.5t58.5 101.5l211 494q2 3 8 3t7 -3l238 -496q34 -73 58 -99t55 -26z
M214 288h220l-116 242z" />
    <glyph glyph-name="Adieresis" unicode="&#xc4;" horiz-adv-x="704" 
d="M257 714q-45 0 -45 44q0 20 12 31.5t33 11.5q43 0 43 -43q0 -44 -43 -44zM432 714q-21 0 -33 11.5t-12 32.5q0 20 12 31t33 11q43 0 43 -42q0 -44 -43 -44zM702 12q4 0 4 -6t-4 -6q-19 0 -59 2t-59 2q-22 0 -55.5 -2t-51.5 -2q-5 0 -5 6t5 6q51 0 62.5 15.5t-9.5 59.5
l-86 180h-239l-59 -137q-49 -118 84 -118q4 0 4 -6t-4 -6q-19 0 -55 2t-63 2q-25 0 -58.5 -2t-53.5 -2q-4 0 -4 6t4 6q41 0 66.5 25.5t58.5 101.5l211 494q2 3 8 3t7 -3l238 -496q34 -73 58 -99t55 -26zM214 288h220l-116 242z" />
    <glyph glyph-name="Aring" unicode="&#xc5;" horiz-adv-x="704" 
d="M339 663q-42 0 -67 24t-25 56q0 36 31.5 56.5t69.5 20.5t64.5 -23t26.5 -56q0 -35 -30.5 -56.5t-69.5 -21.5zM328 809q-31 0 -31 -46q0 -33 16 -60.5t41 -27.5q34 0 34 48q0 35 -17.5 60.5t-42.5 25.5zM702 12q4 0 4 -6t-4 -6q-19 0 -59 2t-59 2q-22 0 -55.5 -2t-51.5 -2
q-5 0 -5 6t5 6q51 0 62.5 15.5t-9.5 59.5l-86 180h-239l-59 -137q-49 -118 84 -118q4 0 4 -6t-4 -6q-19 0 -55 2t-63 2q-25 0 -58.5 -2t-53.5 -2q-4 0 -4 6t4 6q41 0 66.5 25.5t58.5 101.5l211 494q2 3 8 3t7 -3l238 -496q34 -73 58 -99t55 -26zM214 288h220l-116 242z" />
    <glyph glyph-name="AE" unicode="&#xc6;" horiz-adv-x="877" 
d="M816 150q1 3 6.5 2.5t5.5 -3.5q-9 -65 -9 -134q0 -15 -16 -15h-413q-2 0 -2 6t2 6q53 0 68 12.5t15 56.5v233h-169l-125 -186q-78 -116 48 -116q5 0 5 -6t-5 -6q-20 0 -58.5 2t-67.5 2q-23 0 -52.5 -2t-47.5 -2q-5 0 -5 6t5 6q67 0 149 120l300 442q19 27 8 33t-72 6
q-2 0 -2 6t2 6h400q9 0 9 -9l2 -125q0 -3 -5.5 -3t-5.5 3q-3 45 -35.5 78.5t-78.5 33.5h-52q-45 0 -60.5 -12.5t-15.5 -47.5v-207h107q50 0 72.5 17t22.5 55q0 2 6 2t6 -2q0 -22 -0.5 -47t-0.5 -36q0 -15 1 -45.5t1 -48.5q0 -2 -6 -2t-6 2q0 44 -23 63.5t-75 19.5h-105v-229
q0 -38 14 -50.5t58 -12.5h68q46 0 84 36.5t48 91.5zM319 336h154v228z" />
    <glyph glyph-name="Ccedilla" unicode="&#xc7;" horiz-adv-x="685" 
d="M623 166q1 3 6 2t5 -3l-10 -112q-2 -18 -12 -23q-93 -43 -200 -43h-2q-11 -43 -5 -55t40 -32q54 -31 54 -77q0 -38 -27 -68t-80 -30q-66 0 -66 40q0 13 9 22t23 9q13 0 21 -8t10.5 -17t11.5 -17t24 -8q32 0 32 35q0 26 -18.5 46.5t-66.5 46.5q-13 7 -14 11.5t6 18.5
q13 32 32 83q-154 5 -250.5 95.5t-96.5 232.5q0 143 103 232t262 89q111 0 189 -37q7 -4 8.5 -7.5t2.5 -15.5l13 -122q0 -3 -5.5 -4t-6.5 3q-49 167 -207 167q-123 0 -198.5 -82t-75.5 -220q0 -133 81.5 -223.5t197.5 -90.5q79 0 129.5 39.5t80.5 122.5z" />
    <glyph glyph-name="Egrave" unicode="&#xc8;" horiz-adv-x="540" 
d="M170 756q-10 2 13 13q43 20 58 17q113 -74 155 -97q2 -1 2.5 -4t-1.5 -5t-5 -1q-112 50 -222 77zM479 150q0 2 3 2.5t6 -0.5t3 -3q-9 -65 -9 -134q0 -15 -16 -15h-423q-2 0 -2 6t2 6q53 0 68 12.5t15 56.5v463q0 43 -15 56t-68 13q-2 0 -2 6t2 6h406q9 0 9 -9l2 -125
q0 -3 -5.5 -3t-5.5 3q-6 54 -37 83t-81 29h-55q-47 0 -62 -13t-15 -50v-204h115q50 0 72.5 17t22.5 55q0 2 6 2t6 -2q0 -22 -0.5 -47t-0.5 -36q0 -15 1 -45.5t1 -48.5q0 -2 -6 -2t-6 2q0 44 -23 63.5t-75 19.5h-113v-229q0 -38 14 -50.5t59 -12.5h71q53 0 88 33.5t48 94.5z
" />
    <glyph glyph-name="Eacute" unicode="&#xc9;" horiz-adv-x="540" 
d="M196 679q-4 -2 -6 3t1 7q27 14 53.5 30.5l56 36.5t46.5 30q10 6 54 -15q22 -10 19 -14q0 -1 -2 -1q-108 -27 -222 -77zM479 150q0 2 3 2.5t6 -0.5t3 -3q-9 -65 -9 -134q0 -15 -16 -15h-423q-2 0 -2 6t2 6q53 0 68 12.5t15 56.5v463q0 43 -15 56t-68 13q-2 0 -2 6t2 6h406
q9 0 9 -9l2 -125q0 -3 -5.5 -3t-5.5 3q-6 54 -37 83t-81 29h-55q-47 0 -62 -13t-15 -50v-204h115q50 0 72.5 17t22.5 55q0 2 6 2t6 -2q0 -22 -0.5 -47t-0.5 -36q0 -15 1 -45.5t1 -48.5q0 -2 -6 -2t-6 2q0 44 -23 63.5t-75 19.5h-113v-229q0 -38 14 -50.5t59 -12.5h71
q53 0 88 33.5t48 94.5z" />
    <glyph glyph-name="Ecircumflex" unicode="&#xca;" horiz-adv-x="540" 
d="M185 687q-1 0 -3 1t-3 3t0 3l103 101q12 11 23 0l102 -101q2 -1 1.5 -3t-3 -3.5t-3.5 -0.5l-108 54zM479 150q0 2 3 2.5t6 -0.5t3 -3q-9 -65 -9 -134q0 -15 -16 -15h-423q-2 0 -2 6t2 6q53 0 68 12.5t15 56.5v463q0 43 -15 56t-68 13q-2 0 -2 6t2 6h406q9 0 9 -9l2 -125
q0 -3 -5.5 -3t-5.5 3q-6 54 -37 83t-81 29h-55q-47 0 -62 -13t-15 -50v-204h115q50 0 72.5 17t22.5 55q0 2 6 2t6 -2q0 -22 -0.5 -47t-0.5 -36q0 -15 1 -45.5t1 -48.5q0 -2 -6 -2t-6 2q0 44 -23 63.5t-75 19.5h-113v-229q0 -38 14 -50.5t59 -12.5h71q53 0 88 33.5t48 94.5z
" />
    <glyph glyph-name="Edieresis" unicode="&#xcb;" horiz-adv-x="540" 
d="M206 714q-45 0 -45 44q0 20 12 31.5t33 11.5q43 0 43 -43q0 -44 -43 -44zM381 714q-21 0 -33 11.5t-12 32.5q0 20 12 31t33 11q43 0 43 -42q0 -44 -43 -44zM479 150q0 2 3 2.5t6 -0.5t3 -3q-9 -65 -9 -134q0 -15 -16 -15h-423q-2 0 -2 6t2 6q53 0 68 12.5t15 56.5v463
q0 43 -15 56t-68 13q-2 0 -2 6t2 6h406q9 0 9 -9l2 -125q0 -3 -5.5 -3t-5.5 3q-6 54 -37 83t-81 29h-55q-47 0 -62 -13t-15 -50v-204h115q50 0 72.5 17t22.5 55q0 2 6 2t6 -2q0 -22 -0.5 -47t-0.5 -36q0 -15 1 -45.5t1 -48.5q0 -2 -6 -2t-6 2q0 44 -23 63.5t-75 19.5h-113
v-229q0 -38 14 -50.5t59 -12.5h71q53 0 88 33.5t48 94.5z" />
    <glyph glyph-name="Igrave" unicode="&#xcc;" horiz-adv-x="334" 
d="M266 679q-112 50 -222 77q-10 2 13 13q43 20 58 17q113 -74 155 -97q2 -1 2.5 -4t-1.5 -5t-5 -1zM204 81q0 -44 14.5 -56.5t68.5 -12.5q2 0 2 -6t-2 -6q-15 0 -55 1t-66 1q-24 0 -64.5 -1t-55.5 -1q-3 0 -3 6t3 6q53 0 68.5 12.5t15.5 56.5v463q0 43 -15.5 56t-68.5 13
q-3 0 -3 6t3 6q15 0 55.5 -1.5t64.5 -1.5q26 0 66.5 1.5t54.5 1.5q2 0 2 -6t-2 -6q-52 0 -67.5 -13.5t-15.5 -57.5v-461z" />
    <glyph glyph-name="Iacute" unicode="&#xcd;" horiz-adv-x="334" 
d="M70 679q-4 -2 -6 3t1 7q27 14 53.5 30.5l56 36.5t46.5 30q10 6 54 -15q22 -10 19 -14q0 -1 -2 -1q-108 -27 -222 -77zM204 81q0 -44 14.5 -56.5t68.5 -12.5q2 0 2 -6t-2 -6q-15 0 -55 1t-66 1q-24 0 -64.5 -1t-55.5 -1q-3 0 -3 6t3 6q53 0 68.5 12.5t15.5 56.5v463
q0 43 -15.5 56t-68.5 13q-3 0 -3 6t3 6q15 0 55.5 -1.5t64.5 -1.5q26 0 66.5 1.5t54.5 1.5q2 0 2 -6t-2 -6q-52 0 -67.5 -13.5t-15.5 -57.5v-461z" />
    <glyph glyph-name="Icircumflex" unicode="&#xce;" horiz-adv-x="334" 
d="M53 694l103 101q12 11 23 0l102 -101q2 -1 1.5 -3t-3 -3.5t-3.5 -0.5l-108 54l-109 -54q-1 0 -3 1t-3 3t0 3zM204 81q0 -44 14.5 -56.5t68.5 -12.5q2 0 2 -6t-2 -6q-15 0 -55 1t-66 1q-24 0 -64.5 -1t-55.5 -1q-3 0 -3 6t3 6q53 0 68.5 12.5t15.5 56.5v463q0 43 -15.5 56
t-68.5 13q-3 0 -3 6t3 6q15 0 55.5 -1.5t64.5 -1.5q26 0 66.5 1.5t54.5 1.5q2 0 2 -6t-2 -6q-52 0 -67.5 -13.5t-15.5 -57.5v-461z" />
    <glyph glyph-name="Idieresis" unicode="&#xcf;" horiz-adv-x="334" 
d="M95 714q-45 0 -45 44q0 20 12 31.5t33 11.5q44 0 44 -43q0 -44 -44 -44zM240 714q-45 0 -45 44q0 42 45 42q43 0 43 -42q0 -44 -43 -44zM204 81q0 -44 14.5 -56.5t68.5 -12.5q2 0 2 -6t-2 -6q-15 0 -55 1t-66 1q-24 0 -64.5 -1t-55.5 -1q-3 0 -3 6t3 6q53 0 68.5 12.5
t15.5 56.5v463q0 43 -15.5 56t-68.5 13q-3 0 -3 6t3 6q15 0 55.5 -1.5t64.5 -1.5q26 0 66.5 1.5t54.5 1.5q2 0 2 -6t-2 -6q-52 0 -67.5 -13.5t-15.5 -57.5v-461z" />
    <glyph glyph-name="Eth" unicode="&#xd0;" horiz-adv-x="694" 
d="M293 627q157 0 254.5 -86.5t97.5 -217.5q0 -146 -98 -236.5t-240 -90.5q-18 0 -73 3t-80 3q-24 0 -64.5 -1t-55.5 -1q-2 0 -2 6t2 6q53 0 68.5 12.5t15.5 56.5v219h-65q-5 0 -5 11t5 11h65v222q0 43 -15 56t-68 13q-2 0 -2 6t2 6q15 0 55 -1.5t64 -1.5q23 0 72 2.5
t67 2.5zM297 12q118 0 190.5 76t72.5 213q0 133 -71 221.5t-187 88.5q-64 0 -87.5 -13t-23.5 -56v-220h136q4 0 4 -11t-4 -11h-136v-208q0 -44 21.5 -62t84.5 -18z" />
    <glyph glyph-name="Ntilde" unicode="&#xd1;" horiz-adv-x="728" 
d="M253 697q-2 -2 -5.5 1.5t-1.5 5.5q42 66 85 66q14 0 56 -12.5t68 -12.5q27 0 50 27q2 2 5.5 -1t1.5 -6q-26 -38 -43 -51.5t-37 -13.5t-62 12t-67 12q-7 0 -12.5 -1t-9.5 -2.5t-8.5 -5l-6.5 -5t-6.5 -6.5t-6.5 -7zM707 625q3 0 3 -6t-3 -6q-80 0 -80 -101v-524q0 -3 -5 -4
t-7 1l-466 558q-2 2 -3 4v-435q0 -52 19 -76t59 -24q3 0 3 -6t-3 -6q-12 0 -41 1t-48 1q-18 0 -50.5 -1t-45.5 -1q-2 0 -2 6t2 6q43 0 62.5 24t19.5 76v461q-41 40 -83 40q-3 0 -3 6t3 6q12 0 36.5 -1t34.5 -1q17 0 40 1t28 1q8 0 12 -4t14 -19t21 -29l378 -458v397
q0 52 -18 76.5t-59 24.5q-2 0 -2 6t2 6q13 0 42 -1.5t48 -1.5q17 0 48.5 1.5t43.5 1.5z" />
    <glyph glyph-name="Ograve" unicode="&#xd2;" horiz-adv-x="766" 
d="M484 679q-112 50 -222 77q-10 2 13 13q43 20 58 17q113 -74 155 -97q2 -1 2.5 -4t-1.5 -5t-5 -1zM366 -12q-141 0 -229 94t-88 230q0 78 32 141.5t83.5 102.5t112.5 59.5t124 20.5q142 0 229 -95t87 -222q0 -138 -103.5 -234.5t-247.5 -96.5zM401 10q101 0 166.5 74.5
t65.5 206.5q0 142 -75 231.5t-198 89.5q-107 0 -167 -70.5t-60 -194.5q0 -144 75 -240.5t193 -96.5z" />
    <glyph glyph-name="Oacute" unicode="&#xd3;" horiz-adv-x="766" 
d="M288 679q-4 -2 -6 3t1 7q27 14 53.5 30.5l56 36.5t46.5 30q10 6 54 -15q22 -10 19 -14q0 -1 -2 -1q-108 -27 -222 -77zM366 -12q-141 0 -229 94t-88 230q0 78 32 141.5t83.5 102.5t112.5 59.5t124 20.5q142 0 229 -95t87 -222q0 -138 -103.5 -234.5t-247.5 -96.5zM401 10
q101 0 166.5 74.5t65.5 206.5q0 142 -75 231.5t-198 89.5q-107 0 -167 -70.5t-60 -194.5q0 -144 75 -240.5t193 -96.5z" />
    <glyph glyph-name="Ocircumflex" unicode="&#xd4;" horiz-adv-x="766" 
d="M271 694l103 101q12 11 23 0l102 -101q2 -1 1.5 -3t-3 -3.5t-3.5 -0.5l-108 54l-109 -54q-1 0 -3 1t-3 3t0 3zM366 -12q-141 0 -229 94t-88 230q0 78 32 141.5t83.5 102.5t112.5 59.5t124 20.5q142 0 229 -95t87 -222q0 -138 -103.5 -234.5t-247.5 -96.5zM401 10
q101 0 166.5 74.5t65.5 206.5q0 142 -75 231.5t-198 89.5q-107 0 -167 -70.5t-60 -194.5q0 -144 75 -240.5t193 -96.5z" />
    <glyph glyph-name="Otilde" unicode="&#xd5;" horiz-adv-x="766" 
d="M463 745q27 0 50 27q2 2 5.5 -1t1.5 -6q-26 -38 -43 -51.5t-37 -13.5t-62 12t-67 12q-7 0 -12.5 -1t-9.5 -2.5t-8.5 -5l-6.5 -5t-6.5 -6.5t-6.5 -7t-5.5 1.5t-1.5 5.5q42 66 85 66q14 0 56 -12.5t68 -12.5zM366 -12q-141 0 -229 94t-88 230q0 78 32 141.5t83.5 102.5
t112.5 59.5t124 20.5q142 0 229 -95t87 -222q0 -138 -103.5 -234.5t-247.5 -96.5zM401 10q101 0 166.5 74.5t65.5 206.5q0 142 -75 231.5t-198 89.5q-107 0 -167 -70.5t-60 -194.5q0 -144 75 -240.5t193 -96.5z" />
    <glyph glyph-name="Odieresis" unicode="&#xd6;" horiz-adv-x="766" 
d="M298 714q-45 0 -45 44q0 20 12 31.5t33 11.5q43 0 43 -43q0 -44 -43 -44zM473 714q-21 0 -33 11.5t-12 32.5q0 20 12 31t33 11q43 0 43 -42q0 -44 -43 -44zM366 -12q-141 0 -229 94t-88 230q0 78 32 141.5t83.5 102.5t112.5 59.5t124 20.5q142 0 229 -95t87 -222
q0 -138 -103.5 -234.5t-247.5 -96.5zM401 10q101 0 166.5 74.5t65.5 206.5q0 142 -75 231.5t-198 89.5q-107 0 -167 -70.5t-60 -194.5q0 -144 75 -240.5t193 -96.5z" />
    <glyph glyph-name="multiply" unicode="&#xd7;" horiz-adv-x="385" 
d="M223 190l101 -102q2 -2 -4.5 -10t-15 -14.5t-10.5 -4.5l-101 101l-102 -102q-2 -2 -10.5 4.5t-15 14.5t-5.5 9l104 104l-102 102q-2 2 4.5 10t14.5 14.5t9 5.5l103 -103l101 101q2 2 10.5 -4.5t15 -14.5t4.5 -10z" />
    <glyph glyph-name="Oslash" unicode="&#xd8;" horiz-adv-x="774" 
d="M625 546q92 -94 92 -227q0 -138 -103.5 -234.5t-247.5 -96.5q-124 0 -212 78l-73 -74q-1 -2 -6 1t-8 8t-1 7l72 73q-89 92 -89 231q0 78 32 141.5t83.5 102.5t112.5 59.5t124 20.5q123 0 209 -76l69 70q2 2 7 -0.5t8 -6.5t1 -6zM133 347q0 -124 56 -214l376 381
q-76 98 -205 98q-107 0 -167 -70.5t-60 -194.5zM401 10q101 0 166.5 74.5t65.5 206.5q0 122 -56 206l-375 -382q76 -105 199 -105z" />
    <glyph glyph-name="Ugrave" unicode="&#xd9;" horiz-adv-x="699" 
d="M473 679q-112 50 -222 77q-10 2 13 13q43 20 58 17q113 -74 155 -97q2 -1 2.5 -4t-1.5 -5t-5 -1zM572 512q0 101 -88 101q-3 0 -3 6t3 6q14 0 47 -1.5t54 -1.5q17 0 48.5 1.5t44.5 1.5q2 0 2 -6t-2 -6q-80 0 -80 -101v-283q0 -113 -65 -177.5t-174 -64.5
q-112 0 -179.5 64t-67.5 173v320q0 43 -15 56t-68 13q-2 0 -2 6t2 6q15 0 55 -1.5t64 -1.5q26 0 66 1.5t53 1.5q3 0 3 -6t-3 -6q-52 0 -67 -13.5t-15 -57.5v-283q0 -118 52 -179.5t147 -61.5q89 0 138.5 55.5t49.5 154.5v284z" />
    <glyph glyph-name="Uacute" unicode="&#xda;" horiz-adv-x="699" 
d="M277 679q-4 -2 -6 3t1 7q27 14 53.5 30.5l56 36.5t46.5 30q10 6 54 -15q22 -10 19 -14q0 -1 -2 -1q-108 -27 -222 -77zM572 512q0 101 -88 101q-3 0 -3 6t3 6q14 0 47 -1.5t54 -1.5q17 0 48.5 1.5t44.5 1.5q2 0 2 -6t-2 -6q-80 0 -80 -101v-283q0 -113 -65 -177.5
t-174 -64.5q-112 0 -179.5 64t-67.5 173v320q0 43 -15 56t-68 13q-2 0 -2 6t2 6q15 0 55 -1.5t64 -1.5q26 0 66 1.5t53 1.5q3 0 3 -6t-3 -6q-52 0 -67 -13.5t-15 -57.5v-283q0 -118 52 -179.5t147 -61.5q89 0 138.5 55.5t49.5 154.5v284z" />
    <glyph glyph-name="Ucircumflex" unicode="&#xdb;" horiz-adv-x="699" 
d="M260 694l103 101q11 11 23 0l102 -101q2 -1 1.5 -3t-3 -3.5t-3.5 -0.5l-108 54l-109 -54q-1 0 -3 1t-3 3t0 3zM572 512q0 101 -88 101q-3 0 -3 6t3 6q14 0 47 -1.5t54 -1.5q17 0 48.5 1.5t44.5 1.5q2 0 2 -6t-2 -6q-80 0 -80 -101v-283q0 -113 -65 -177.5t-174 -64.5
q-112 0 -179.5 64t-67.5 173v320q0 43 -15 56t-68 13q-2 0 -2 6t2 6q15 0 55 -1.5t64 -1.5q26 0 66 1.5t53 1.5q3 0 3 -6t-3 -6q-52 0 -67 -13.5t-15 -57.5v-283q0 -118 52 -179.5t147 -61.5q89 0 138.5 55.5t49.5 154.5v284z" />
    <glyph glyph-name="Udieresis" unicode="&#xdc;" horiz-adv-x="699" 
d="M287 714q-45 0 -45 44q0 20 12 31.5t33 11.5q43 0 43 -43q0 -44 -43 -44zM462 714q-21 0 -33 11.5t-12 32.5q0 20 12 31t33 11q43 0 43 -42q0 -44 -43 -44zM572 512q0 101 -88 101q-3 0 -3 6t3 6q14 0 47 -1.5t54 -1.5q17 0 48.5 1.5t44.5 1.5q2 0 2 -6t-2 -6
q-80 0 -80 -101v-283q0 -113 -65 -177.5t-174 -64.5q-112 0 -179.5 64t-67.5 173v320q0 43 -15 56t-68 13q-2 0 -2 6t2 6q15 0 55 -1.5t64 -1.5q26 0 66 1.5t53 1.5q3 0 3 -6t-3 -6q-52 0 -67 -13.5t-15 -57.5v-283q0 -118 52 -179.5t147 -61.5q89 0 138.5 55.5t49.5 154.5
v284z" />
    <glyph glyph-name="Yacute" unicode="&#xdd;" horiz-adv-x="611" 
d="M222 679q-4 -2 -6 3t1 7q27 14 53.5 30.5l56 36.5t46.5 30q10 6 54 -15q22 -10 19 -14q0 -1 -2 -1q-108 -27 -222 -77zM616 625q2 0 2 -6t-2 -6q-35 0 -73.5 -28.5t-68.5 -77.5l-129 -200v-226q0 -44 14.5 -56.5t67.5 -12.5q3 0 3 -6t-3 -6q-14 0 -54 1t-65 1
q-24 0 -64.5 -1t-55.5 -1q-2 0 -2 6t2 6q53 0 68.5 12.5t15.5 56.5v210l-162 240q-30 46 -55 64t-55 18q-3 0 -3 6t3 6q11 0 35 -1.5t35 -1.5q30 0 80 1.5t64 1.5q2 0 2 -6t-2 -6q-73 0 -38 -49l157 -233l116 182q30 47 22 73.5t-53 26.5q-2 0 -2 6t2 6q16 0 53 -1.5
t67 -1.5q17 0 40 1.5t38 1.5z" />
    <glyph glyph-name="Thorn" unicode="&#xde;" horiz-adv-x="540" 
d="M276 147q62 0 104 43.5t42 125.5q0 80 -43.5 124t-115.5 44q-31 0 -68 -7v-392q0 -46 20.5 -59.5t94.5 -13.5q3 0 3 -6t-3 -6q-20 0 -70 1t-81 1q-23 0 -62 -1t-54 -1q-2 0 -2 6t2 6q50 0 64.5 12.5t14.5 56.5v463q0 43 -14.5 56t-64.5 13q-2 0 -2 6t2 6q15 0 54 -1.5
t62 -1.5q31 0 81 1.5t70 1.5q3 0 3 -6t-3 -6q-74 0 -94.5 -14t-20.5 -60v-47q45 7 93 7q96 0 155 -38.5t61 -124.5q2 -67 -32.5 -115t-83 -68t-101.5 -20q-24 0 -49 5q-2 0 -2.5 3.5t1 6.5t3.5 3q24 -4 36 -4z" />
    <glyph glyph-name="germandbls" unicode="&#xdf;" horiz-adv-x="521" 
d="M349 -11q-41 0 -65.5 18t-24.5 48q0 34 34 34q16 0 26.5 -12.5t15.5 -27.5t17 -27.5t30 -12.5q27 0 43 21.5t13 54.5q-2 35 -23 63.5t-61 66.5q-30 30 -44 45.5t-29 45t-15 57.5q0 29 14.5 58t32.5 50t32.5 53t14.5 68q0 47 -20.5 83t-67.5 36q-58 0 -88.5 -70
t-30.5 -195v-365q0 -44 11.5 -56.5t51.5 -12.5q3 0 3 -6t-3 -6q-17 0 -47 0.5t-46 0.5q-20 0 -54.5 -0.5t-46.5 -0.5q-3 0 -3 6t3 6q43 0 55.5 13t12.5 56l-1 231q0 34 -11.5 43t-57.5 9q-4 0 -4 7t4 7q46 0 56 12t13 58q10 143 60.5 210.5t151.5 67.5q63 0 96 -29t33 -69
q0 -32 -19 -62t-41 -49.5t-41 -47t-19 -54.5q0 -22 14.5 -47.5t28.5 -40.5l44 -45q33 -33 49 -50.5t33 -49t17 -59.5q0 -52 -41 -93t-106 -41z" />
    <glyph glyph-name="agrave" unicode="&#xe0;" horiz-adv-x="420" 
d="M218 474l-105 253q-3 9 39 0q27 -6 28 -11l48 -240q0 -1 -2 -2.5t-5 -1.5t-3 2zM414 54q5 2 6.5 -3.5t-2.5 -7.5l-103 -49q-4 -2 -9 -2q-13 0 -23.5 17.5t-14.5 47.5l-50 -33q-45 -31 -85 -31q-38 0 -59 19.5t-21 49.5q0 32 25.5 53.5t81.5 42.5l107 39v66q0 114 -61 114
q-33 0 -50 -23t-22 -52q-6 -44 -41 -44q-18 0 -27 9t-9 22q0 38 65.5 72.5t120.5 34.5q41 0 63.5 -26.5t22.5 -76.5v-185q0 -66 39 -66q18 0 46 12zM228 48l39 24v6v105l-84 -34q-55 -21 -55 -61q0 -24 15.5 -39.5t39.5 -15.5q20 0 45 15z" />
    <glyph glyph-name="aacute" unicode="&#xe1;" horiz-adv-x="420" 
d="M210 474q0 -2 -3 -2t-5.5 1.5t-2.5 2.5l49 240q2 8 45 14q24 3 22 -3zM414 54q5 2 6.5 -3.5t-2.5 -7.5l-103 -49q-4 -2 -9 -2q-13 0 -23.5 17.5t-14.5 47.5l-50 -33q-45 -31 -85 -31q-38 0 -59 19.5t-21 49.5q0 32 25.5 53.5t81.5 42.5l107 39v66q0 114 -61 114
q-33 0 -50 -23t-22 -52q-6 -44 -41 -44q-18 0 -27 9t-9 22q0 38 65.5 72.5t120.5 34.5q41 0 63.5 -26.5t22.5 -76.5v-185q0 -66 39 -66q18 0 46 12zM228 48l39 24v6v105l-84 -34q-55 -21 -55 -61q0 -24 15.5 -39.5t39.5 -15.5q20 0 45 15z" />
    <glyph glyph-name="acircumflex" unicode="&#xe2;" horiz-adv-x="420" 
d="M144 474q0 -2 -3 -2t-5.5 1.5t-2.5 2.5l68 249q1 5 11 5t12 -5l67 -249q1 -2 -2 -3q-7 -3 -8 1l-68 155zM414 54q5 2 6.5 -3.5t-2.5 -7.5l-103 -49q-4 -2 -9 -2q-13 0 -23.5 17.5t-14.5 47.5l-50 -33q-45 -31 -85 -31q-38 0 -59 19.5t-21 49.5q0 32 25.5 53.5t81.5 42.5
l107 39v66q0 114 -61 114q-33 0 -50 -23t-22 -52q-6 -44 -41 -44q-18 0 -27 9t-9 22q0 38 65.5 72.5t120.5 34.5q41 0 63.5 -26.5t22.5 -76.5v-185q0 -66 39 -66q18 0 46 12zM228 48l39 24v6v105l-84 -34q-55 -21 -55 -61q0 -24 15.5 -39.5t39.5 -15.5q20 0 45 15z" />
    <glyph glyph-name="atilde" unicode="&#xe3;" horiz-adv-x="420" 
d="M86 478q-2 -2 -5.5 1t-1.5 6q43 65 85 65q14 0 56.5 -12t67.5 -12q28 0 50 27q2 2 5.5 -1.5t1.5 -5.5q-26 -39 -43 -52.5t-37 -13.5t-62 12.5t-67 12.5q-7 0 -12.5 -1t-9.5 -2.5t-8.5 -5l-6.5 -5t-6.5 -6.5t-6.5 -7zM414 54q5 2 6.5 -3.5t-2.5 -7.5l-103 -49q-4 -2 -9 -2
q-13 0 -23.5 17.5t-14.5 47.5l-50 -33q-45 -31 -85 -31q-38 0 -59 19.5t-21 49.5q0 32 25.5 53.5t81.5 42.5l107 39v66q0 114 -61 114q-33 0 -50 -23t-22 -52q-6 -44 -41 -44q-18 0 -27 9t-9 22q0 38 65.5 72.5t120.5 34.5q41 0 63.5 -26.5t22.5 -76.5v-185q0 -66 39 -66
q18 0 46 12zM228 48l39 24v6v105l-84 -34q-55 -21 -55 -61q0 -24 15.5 -39.5t39.5 -15.5q20 0 45 15z" />
    <glyph glyph-name="adieresis" unicode="&#xe4;" horiz-adv-x="420" 
d="M125 475q-45 0 -45 44q0 20 12 31.5t33 11.5q43 0 43 -43q0 -44 -43 -44zM300 475q-21 0 -33 11.5t-12 32.5q0 20 12 31t33 11q43 0 43 -42q0 -44 -43 -44zM414 54q5 2 6.5 -3.5t-2.5 -7.5l-103 -49q-4 -2 -9 -2q-13 0 -23.5 17.5t-14.5 47.5l-50 -33q-45 -31 -85 -31
q-38 0 -59 19.5t-21 49.5q0 32 25.5 53.5t81.5 42.5l107 39v66q0 114 -61 114q-33 0 -50 -23t-22 -52q-6 -44 -41 -44q-18 0 -27 9t-9 22q0 38 65.5 72.5t120.5 34.5q41 0 63.5 -26.5t22.5 -76.5v-185q0 -66 39 -66q18 0 46 12zM228 48l39 24v6v105l-84 -34q-55 -21 -55 -61
q0 -24 15.5 -39.5t39.5 -15.5q20 0 45 15z" />
    <glyph glyph-name="aring" unicode="&#xe5;" horiz-adv-x="420" 
d="M203 468q-41 0 -66 23.5t-25 55.5q0 36 31 57t70 21q37 0 64 -23.5t27 -56.5q0 -35 -30.5 -56t-70.5 -21zM193 614q-31 0 -31 -47q0 -34 15.5 -61t41.5 -27q34 0 34 48q0 35 -17.5 61t-42.5 26zM414 54q5 2 6.5 -3.5t-2.5 -7.5l-103 -49q-4 -2 -9 -2q-13 0 -23.5 17.5
t-14.5 47.5l-50 -33q-45 -31 -85 -31q-38 0 -59 19.5t-21 49.5q0 32 25.5 53.5t81.5 42.5l107 39v66q0 114 -61 114q-33 0 -50 -23t-22 -52q-6 -44 -41 -44q-18 0 -27 9t-9 22q0 38 65.5 72.5t120.5 34.5q41 0 63.5 -26.5t22.5 -76.5v-185q0 -66 39 -66q18 0 46 12zM228 48
l39 24v6v105l-84 -34q-55 -21 -55 -61q0 -24 15.5 -39.5t39.5 -15.5q20 0 45 15z" />
    <glyph glyph-name="ae" unicode="&#xe6;" horiz-adv-x="592" 
d="M558 58q2 2 5.5 -2.5t1.5 -7.5q-64 -60 -143 -60q-105 0 -144 81l-66 -46q-45 -30 -88 -30q-40 0 -60.5 19.5t-20.5 50.5q0 32 24.5 52t79.5 41l108 41q-2 52 -4 80.5t-8 54t-17 35.5t-29 10q-67 0 -76 -86q0 -39 -38 -39q-37 0 -37 34t58.5 71.5t114.5 37.5
q30 0 53 -17.5t33 -48.5q60 66 149 66q51 0 78.5 -31.5t27.5 -88.5q0 -21 -12 -21l-223 -1q-2 -24 -2 -38q2 -191 132 -191q64 0 103 34zM420 375q-37 0 -61 -28.5t-32 -78.5l157 3q0 50 -17.5 77t-46.5 27zM222 47l52 32q-15 36 -18 91v14l-87 -35q-51 -21 -51 -61
q0 -25 14.5 -40.5t42.5 -15.5q22 0 47 15z" />
    <glyph glyph-name="ccedilla" unicode="&#xe7;" horiz-adv-x="413" 
d="M374 57q2 1 4.5 -0.5t3.5 -3.5t-1 -4q-67 -61 -150 -61h-6q-11 -43 -5.5 -55.5t40.5 -32.5q54 -31 54 -77q0 -38 -27 -68t-80 -30q-66 0 -66 40q0 13 9 22t23 9q13 0 21 -8t10.5 -17t11.5 -17t24 -8q32 0 32 35q0 26 -18.5 46.5t-66.5 46.5q-13 7 -14 11.5t6 18.5
q14 35 32 85q-86 6 -131 64t-45 132q0 95 68.5 152.5t153.5 57.5q45 0 81.5 -18t36.5 -45q0 -15 -10.5 -25t-27.5 -10q-32 0 -48 36q-11 22 -25.5 32t-41.5 10q-54 0 -84 -43.5t-30 -115.5q0 -84 41 -137.5t125 -53.5q57 0 100 32z" />
    <glyph glyph-name="egrave" unicode="&#xe8;" horiz-adv-x="409" 
d="M234 474l-105 253q-3 9 39 0q27 -6 28 -11l48 -240q0 -1 -2 -2.5t-5 -1.5t-3 2zM363 58q2 2 5.5 -2.5t1.5 -7.5q-67 -60 -148 -60q-87 0 -137 56.5t-50 136.5q0 89 62 151.5t152 62.5q58 0 88.5 -29.5t30.5 -84.5q0 -27 -12 -27l-247 -1q-2 -22 -2 -34q0 -87 41 -140
t116 -53q46 0 99 32zM215 375q-42 0 -69 -28.5t-35 -79.5l182 4q0 104 -78 104z" />
    <glyph glyph-name="eacute" unicode="&#xe9;" horiz-adv-x="409" 
d="M226 474q0 -2 -3 -2t-5.5 1.5t-2.5 2.5l49 240q2 8 45 14q24 3 22 -3zM363 58q2 2 5.5 -2.5t1.5 -7.5q-67 -60 -148 -60q-87 0 -137 56.5t-50 136.5q0 89 62 151.5t152 62.5q58 0 88.5 -29.5t30.5 -84.5q0 -27 -12 -27l-247 -1q-2 -22 -2 -34q0 -87 41 -140t116 -53
q46 0 99 32zM215 375q-42 0 -69 -28.5t-35 -79.5l182 4q0 104 -78 104z" />
    <glyph glyph-name="ecircumflex" unicode="&#xea;" horiz-adv-x="409" 
d="M160 474q0 -2 -3 -2t-5.5 1.5t-2.5 2.5l68 249q1 5 11 5t12 -5l67 -249q1 -2 -2 -3q-7 -3 -8 1l-68 155zM363 58q2 2 5.5 -2.5t1.5 -7.5q-67 -60 -148 -60q-87 0 -137 56.5t-50 136.5q0 89 62 151.5t152 62.5q58 0 88.5 -29.5t30.5 -84.5q0 -27 -12 -27l-247 -1
q-2 -22 -2 -34q0 -87 41 -140t116 -53q46 0 99 32zM215 375q-42 0 -69 -28.5t-35 -79.5l182 4q0 104 -78 104z" />
    <glyph glyph-name="edieresis" unicode="&#xeb;" horiz-adv-x="409" 
d="M141 475q-45 0 -45 44q0 20 12 31.5t33 11.5q43 0 43 -43q0 -44 -43 -44zM316 475q-21 0 -33 11.5t-12 32.5q0 20 12 31t33 11q43 0 43 -42q0 -44 -43 -44zM363 58q2 2 5.5 -2.5t1.5 -7.5q-67 -60 -148 -60q-87 0 -137 56.5t-50 136.5q0 89 62 151.5t152 62.5
q58 0 88.5 -29.5t30.5 -84.5q0 -27 -12 -27l-247 -1q-2 -22 -2 -34q0 -87 41 -140t116 -53q46 0 99 32zM215 375q-42 0 -69 -28.5t-35 -79.5l182 4q0 104 -78 104z" />
    <glyph glyph-name="igrave" unicode="&#xec;" horiz-adv-x="271" 
d="M38 727q-3 9 39 0q27 -6 28 -11l48 -240q0 -1 -2 -2.5t-5 -1.5t-3 2zM51 0q-3 0 -3 6t3 6q37 0 49 13.5t12 55.5v186q0 67 -32 67q-17 0 -44 -14q-3 -1 -5 1.5t-2 6t2 4.5l133 62l4 1q3 0 6.5 -3t3.5 -6q0 -4 -0.5 -20.5t-1 -43t-0.5 -54.5v-187q0 -42 11.5 -55.5
t49.5 -13.5q3 0 3 -6t-3 -6q-11 0 -42.5 1t-50.5 1q-20 0 -51 -1t-42 -1z" />
    <glyph glyph-name="iacute" unicode="&#xed;" horiz-adv-x="271" 
d="M135 474q0 -2 -3 -2t-5.5 1.5t-2.5 2.5l49 240q2 8 45 14q24 3 22 -3zM51 0q-3 0 -3 6t3 6q37 0 49 13.5t12 55.5v186q0 67 -32 67q-17 0 -44 -14q-3 -1 -5 1.5t-2 6t2 4.5l133 62l4 1q3 0 6.5 -3t3.5 -6q0 -4 -0.5 -20.5t-1 -43t-0.5 -54.5v-187q0 -42 11.5 -55.5
t49.5 -13.5q3 0 3 -6t-3 -6q-11 0 -42.5 1t-50.5 1q-20 0 -51 -1t-42 -1z" />
    <glyph glyph-name="icircumflex" unicode="&#xee;" horiz-adv-x="271" 
d="M216 476q1 -2 -2 -3q-7 -3 -8 1l-68 155l-69 -155q0 -2 -3 -2t-5.5 1.5t-2.5 2.5l68 249q1 5 11 5t12 -5zM51 0q-3 0 -3 6t3 6q37 0 49 13.5t12 55.5v186q0 67 -32 67q-17 0 -44 -14q-3 -1 -5 1.5t-2 6t2 4.5l133 62l4 1q3 0 6.5 -3t3.5 -6q0 -4 -0.5 -20.5t-1 -43
t-0.5 -54.5v-187q0 -42 11.5 -55.5t49.5 -13.5q3 0 3 -6t-3 -6q-11 0 -42.5 1t-50.5 1q-20 0 -51 -1t-42 -1z" />
    <glyph glyph-name="idieresis" unicode="&#xef;" horiz-adv-x="271" 
d="M65 475q-45 0 -45 44q0 20 12 31.5t33 11.5q44 0 44 -43q0 -44 -44 -44zM210 475q-45 0 -45 44q0 42 45 42q43 0 43 -42q0 -44 -43 -44zM51 0q-3 0 -3 6t3 6q37 0 49 13.5t12 55.5v186q0 67 -32 67q-17 0 -44 -14q-3 -1 -5 1.5t-2 6t2 4.5l133 62l4 1q3 0 6.5 -3t3.5 -6
q0 -4 -0.5 -20.5t-1 -43t-0.5 -54.5v-187q0 -42 11.5 -55.5t49.5 -13.5q3 0 3 -6t-3 -6q-11 0 -42.5 1t-50.5 1q-20 0 -51 -1t-42 -1z" />
    <glyph glyph-name="eth" unicode="&#xf0;" horiz-adv-x="470" 
d="M305 569q65 -75 100.5 -164t35.5 -178q0 -120 -61.5 -180t-156.5 -60q-87 0 -140.5 58t-53.5 141q0 101 66.5 157t144.5 56q56 0 101 -30q-27 92 -83 178l-133 -63q-3 -1 -6.5 4.5t-4.5 11t2 7.5l128 61q-70 95 -154 148q-6 2 1 8q3 2 5 1q111 -51 191 -137l103 49
q3 1 6.5 -4t4.5 -11t-2 -8zM251 6q56 0 86 42t30 143q0 55 -11 112q-44 77 -127 77q-55 0 -91 -43.5t-36 -121.5q0 -87 41.5 -148t107.5 -61z" />
    <glyph glyph-name="ntilde" unicode="&#xf1;" horiz-adv-x="519" 
d="M146 478q-2 -2 -5.5 1t-1.5 6q43 65 85 65q14 0 56.5 -12t67.5 -12q28 0 50 27q2 2 5.5 -1.5t1.5 -5.5q-26 -39 -43 -52.5t-37 -13.5t-62 12.5t-67 12.5q-7 0 -12.5 -1t-9.5 -2.5t-8.5 -5l-6.5 -5t-6.5 -6.5t-6.5 -7zM498 12q3 0 3 -6t-3 -6q-11 0 -42.5 1t-50.5 1
t-50 -1t-42 -1q-3 0 -3 6t3 6q37 0 48.5 13.5t11.5 55.5v159q0 58 -21.5 85.5t-68.5 27.5q-63 0 -115 -57v-215q0 -42 11.5 -55.5t49.5 -13.5q3 0 3 -6t-3 -6q-11 0 -42.5 1t-50.5 1t-50 -1t-42 -1q-3 0 -3 6t3 6q37 0 48.5 13.5t11.5 55.5v196q0 63 -34 63q-15 0 -53 -15
q-3 -1 -5 1.5t-2 5.5t2 4l120 58q3 1 6 1q6 0 12.5 -9t12 -28.5t5.5 -44.5q73 86 153 86q55 0 85.5 -32t30.5 -91v-195q0 -42 11.5 -55.5t49.5 -13.5z" />
    <glyph glyph-name="ograve" unicode="&#xf2;" horiz-adv-x="481" 
d="M142 727q-3 9 39 0q27 -6 28 -11l48 -240q0 -1 -2 -2.5t-5 -1.5t-3 2zM232 -13q-88 0 -142.5 61.5t-54.5 149.5q0 96 66 148.5t149 52.5q88 0 142 -61.5t54 -144.5q0 -92 -62.5 -149t-151.5 -57zM261 6q109 0 109 158q0 96 -43.5 155.5t-109.5 59.5q-51 0 -79 -38
t-28 -111q0 -95 42.5 -159.5t108.5 -64.5z" />
    <glyph glyph-name="oacute" unicode="&#xf3;" horiz-adv-x="481" 
d="M239 474q0 -2 -3 -2t-5.5 1.5t-2.5 2.5l49 240q2 8 45 14q24 3 22 -3zM232 -13q-88 0 -142.5 61.5t-54.5 149.5q0 96 66 148.5t149 52.5q88 0 142 -61.5t54 -144.5q0 -92 -62.5 -149t-151.5 -57zM261 6q109 0 109 158q0 96 -43.5 155.5t-109.5 59.5q-51 0 -79 -38
t-28 -111q0 -95 42.5 -159.5t108.5 -64.5z" />
    <glyph glyph-name="ocircumflex" unicode="&#xf4;" horiz-adv-x="481" 
d="M320 476q1 -2 -2 -3q-7 -3 -8 1l-68 155l-69 -155q0 -2 -3 -2t-5.5 1.5t-2.5 2.5l68 249q1 5 11 5t12 -5zM232 -13q-88 0 -142.5 61.5t-54.5 149.5q0 96 66 148.5t149 52.5q88 0 142 -61.5t54 -144.5q0 -92 -62.5 -149t-151.5 -57zM261 6q109 0 109 158q0 96 -43.5 155.5
t-109.5 59.5q-51 0 -79 -38t-28 -111q0 -95 42.5 -159.5t108.5 -64.5z" />
    <glyph glyph-name="otilde" unicode="&#xf5;" horiz-adv-x="481" 
d="M317 526q28 0 50 27q2 2 5.5 -1.5t1.5 -5.5q-26 -39 -43 -52.5t-37 -13.5t-62 12.5t-67 12.5q-7 0 -12.5 -1t-9.5 -2.5t-8.5 -5l-6.5 -5t-6.5 -6.5t-6.5 -7t-5.5 1t-1.5 6q43 65 85 65q14 0 56.5 -12t67.5 -12zM232 -13q-88 0 -142.5 61.5t-54.5 149.5q0 96 66 148.5
t149 52.5q88 0 142 -61.5t54 -144.5q0 -92 -62.5 -149t-151.5 -57zM261 6q109 0 109 158q0 96 -43.5 155.5t-109.5 59.5q-51 0 -79 -38t-28 -111q0 -95 42.5 -159.5t108.5 -64.5z" />
    <glyph glyph-name="odieresis" unicode="&#xf6;" horiz-adv-x="481" 
d="M154 475q-45 0 -45 44q0 20 12 31.5t33 11.5q43 0 43 -43q0 -44 -43 -44zM329 475q-21 0 -33 11.5t-12 32.5q0 20 12 31t33 11q43 0 43 -42q0 -44 -43 -44zM232 -13q-88 0 -142.5 61.5t-54.5 149.5q0 96 66 148.5t149 52.5q88 0 142 -61.5t54 -144.5q0 -92 -62.5 -149
t-151.5 -57zM261 6q109 0 109 158q0 96 -43.5 155.5t-109.5 59.5q-51 0 -79 -38t-28 -111q0 -95 42.5 -159.5t108.5 -64.5z" />
    <glyph glyph-name="divide" unicode="&#xf7;" horiz-adv-x="398" 
d="M198 304q-22 0 -34.5 12.5t-12.5 34.5q0 20 12.5 32t34.5 12q45 0 45 -44q0 -47 -45 -47zM34 169q-3 0 -4 10.5t0 20.5t3 10h331q4 0 4 -20.5t-4 -20.5h-330zM198 -11q-22 0 -34.5 12.5t-12.5 34.5q0 20 12.5 32t34.5 12q45 0 45 -44q0 -47 -45 -47z" />
    <glyph glyph-name="oslash" unicode="&#xf8;" horiz-adv-x="477" 
d="M392 337q54 -59 54 -144q0 -92 -62.5 -149t-151.5 -57q-76 0 -130 49l-50 -51q-1 -2 -6 1t-8.5 8t-1.5 7l50 52q-51 59 -51 145q0 96 66 148.5t149 52.5q75 0 127 -47l45 47q2 1 7 -1.5t8 -6.5t1 -6zM110 230q0 -71 25 -127l199 205q-44 71 -117 71q-51 0 -79 -38
t-28 -111zM261 6q109 0 109 158q0 71 -25 124l-199 -206q42 -76 115 -76z" />
    <glyph glyph-name="ugrave" unicode="&#xf9;" horiz-adv-x="495" 
d="M247 474l-105 253q-3 9 39 0q27 -6 28 -11l48 -240q0 -1 -2 -2.5t-5 -1.5t-3 2zM487 58q4 2 7 -3.5t-1 -7.5l-121 -57q-2 -1 -4 -1q-10 0 -19 24t-9 62q-75 -84 -156 -84q-51 0 -80 32t-29 91v153q0 72 -29 72q-12 0 -33 -9q-2 -1 -4.5 1.5t-2.5 5.5t2 4l115 53q2 1 4 1
q3 0 7 -3t4 -6v-235q0 -115 84 -115q63 0 118 57v174q0 72 -30 72q-12 0 -33 -9q-4 -3 -6 4q-1 6 2 7l115 53q2 1 4 1q3 0 6.5 -3t3.5 -6v-277q0 -64 34 -64q15 0 51 13z" />
    <glyph glyph-name="uacute" unicode="&#xfa;" horiz-adv-x="495" 
d="M239 474q0 -2 -3 -2t-5.5 1.5t-2.5 2.5l49 240q2 8 45 14q24 3 22 -3zM487 58q4 2 7 -3.5t-1 -7.5l-121 -57q-2 -1 -4 -1q-10 0 -19 24t-9 62q-75 -84 -156 -84q-51 0 -80 32t-29 91v153q0 72 -29 72q-12 0 -33 -9q-2 -1 -4.5 1.5t-2.5 5.5t2 4l115 53q2 1 4 1q3 0 7 -3
t4 -6v-235q0 -115 84 -115q63 0 118 57v174q0 72 -30 72q-12 0 -33 -9q-4 -3 -6 4q-1 6 2 7l115 53q2 1 4 1q3 0 6.5 -3t3.5 -6v-277q0 -64 34 -64q15 0 51 13z" />
    <glyph glyph-name="ucircumflex" unicode="&#xfb;" horiz-adv-x="495" 
d="M173 474q0 -2 -3 -2t-5.5 1.5t-2.5 2.5l68 249q1 5 11 5t12 -5l67 -249q1 -2 -2 -3q-7 -3 -8 1l-68 155zM487 58q4 2 7 -3.5t-1 -7.5l-121 -57q-2 -1 -4 -1q-10 0 -19 24t-9 62q-75 -84 -156 -84q-51 0 -80 32t-29 91v153q0 72 -29 72q-12 0 -33 -9q-2 -1 -4.5 1.5
t-2.5 5.5t2 4l115 53q2 1 4 1q3 0 7 -3t4 -6v-235q0 -115 84 -115q63 0 118 57v174q0 72 -30 72q-12 0 -33 -9q-4 -3 -6 4q-1 6 2 7l115 53q2 1 4 1q3 0 6.5 -3t3.5 -6v-277q0 -64 34 -64q15 0 51 13z" />
    <glyph glyph-name="udieresis" unicode="&#xfc;" horiz-adv-x="495" 
d="M154 475q-45 0 -45 44q0 20 12 31.5t33 11.5q43 0 43 -43q0 -44 -43 -44zM329 475q-21 0 -33 11.5t-12 32.5q0 20 12 31t33 11q43 0 43 -42q0 -44 -43 -44zM487 58q4 2 7 -3.5t-1 -7.5l-121 -57q-2 -1 -4 -1q-10 0 -19 24t-9 62q-75 -84 -156 -84q-51 0 -80 32t-29 91
v153q0 72 -29 72q-12 0 -33 -9q-2 -1 -4.5 1.5t-2.5 5.5t2 4l115 53q2 1 4 1q3 0 7 -3t4 -6v-235q0 -115 84 -115q63 0 118 57v174q0 72 -30 72q-12 0 -33 -9q-4 -3 -6 4q-1 6 2 7l115 53q2 1 4 1q3 0 6.5 -3t3.5 -6v-277q0 -64 34 -64q15 0 51 13z" />
    <glyph glyph-name="yacute" unicode="&#xfd;" horiz-adv-x="434" 
d="M222 474q0 -2 -3 -2t-5.5 1.5t-2.5 2.5l49 240q2 8 45 14q24 3 22 -3zM433 386q3 0 3 -6t-3 -6q-27 0 -45.5 -19t-35.5 -63l-120 -320q-54 -142 -102 -197.5t-113 -55.5q-53 0 -53 41q0 16 10 24.5t25 8.5q19 0 38.5 -12t35.5 -12q36 0 67 47.5t80 174.5l-154 312
q-23 44 -35 57.5t-31 13.5q-2 0 -2 6t2 6q11 0 35 -1t35 -1q25 0 59 1t46 1q2 0 2 -6t-2 -6q-36 0 -49.5 -8.5t-2.5 -30.5l129 -266l77 221q16 45 0.5 64.5t-66.5 19.5q-2 0 -2 6t2 6q14 0 45 -1t56 -1q15 0 35.5 1t33.5 1z" />
    <glyph glyph-name="thorn" unicode="&#xfe;" horiz-adv-x="492" 
d="M302 399q64 0 109.5 -50t45.5 -134q0 -111 -68.5 -169.5t-148.5 -58.5q-57 0 -102 23v-204q0 -43 18 -56t80 -13q3 0 3 -6t-3 -6q-17 0 -60.5 1t-68.5 1q-19 0 -51 -1t-43 -1q-2 0 -2 6t2 6q39 0 50.5 13t11.5 56v790q0 68 -31 68q-15 0 -45 -14q-2 -1 -4.5 2t-3 6t2.5 4
l129 62q2 1 5 1t6.5 -3t3.5 -6v-399q82 82 164 82zM268 9q53 0 85.5 46t32.5 129q0 82 -37 128t-93 46q-60 0 -118 -60v-228q53 -61 130 -61z" />
    <glyph glyph-name="ydieresis" unicode="&#xff;" horiz-adv-x="434" 
d="M137 475q-45 0 -45 44q0 20 12 31.5t33 11.5q43 0 43 -43q0 -44 -43 -44zM312 475q-21 0 -33 11.5t-12 32.5q0 20 12 31t33 11q43 0 43 -42q0 -44 -43 -44zM433 386q3 0 3 -6t-3 -6q-27 0 -45.5 -19t-35.5 -63l-120 -320q-54 -142 -102 -197.5t-113 -55.5q-53 0 -53 41
q0 16 10 24.5t25 8.5q19 0 38.5 -12t35.5 -12q36 0 67 47.5t80 174.5l-154 312q-23 44 -35 57.5t-31 13.5q-2 0 -2 6t2 6q11 0 35 -1t35 -1q25 0 59 1t46 1q2 0 2 -6t-2 -6q-36 0 -49.5 -8.5t-2.5 -30.5l129 -266l77 221q16 45 0.5 64.5t-66.5 19.5q-2 0 -2 6t2 6
q14 0 45 -1t56 -1q15 0 35.5 1t33.5 1z" />
    <glyph glyph-name="Amacron" unicode="&#x100;" horiz-adv-x="704" 
d="M218 720q-7 0 -7 15t7 15h251q7 0 7 -15t-7 -15h-251zM702 12q4 0 4 -6t-4 -6q-19 0 -59 2t-59 2q-22 0 -55.5 -2t-51.5 -2q-5 0 -5 6t5 6q51 0 62.5 15.5t-9.5 59.5l-86 180h-239l-59 -137q-49 -118 84 -118q4 0 4 -6t-4 -6q-19 0 -55 2t-63 2q-25 0 -58.5 -2t-53.5 -2
q-4 0 -4 6t4 6q41 0 66.5 25.5t58.5 101.5l211 494q2 3 8 3t7 -3l238 -496q34 -73 58 -99t55 -26zM214 288h220l-116 242z" />
    <glyph glyph-name="amacron" unicode="&#x101;" horiz-adv-x="420" 
d="M86 481q-7 0 -7 15t7 15h251q7 0 7 -15t-7 -15h-251zM414 54q5 2 6.5 -3.5t-2.5 -7.5l-103 -49q-4 -2 -9 -2q-13 0 -23.5 17.5t-14.5 47.5l-50 -33q-45 -31 -85 -31q-38 0 -59 19.5t-21 49.5q0 32 25.5 53.5t81.5 42.5l107 39v66q0 114 -61 114q-33 0 -50 -23t-22 -52
q-6 -44 -41 -44q-18 0 -27 9t-9 22q0 38 65.5 72.5t120.5 34.5q41 0 63.5 -26.5t22.5 -76.5v-185q0 -66 39 -66q18 0 46 12zM228 48l39 24v6v105l-84 -34q-55 -21 -55 -61q0 -24 15.5 -39.5t39.5 -15.5q20 0 45 15z" />
    <glyph glyph-name="Abreve" unicode="&#x102;" horiz-adv-x="704" 
d="M344 690q-90 0 -103 111q0 2 2.5 3t5.5 0.5t3 -1.5q5 -26 32 -45t60 -19t59.5 19t31.5 45q0 1 3 1.5t5.5 -0.5t2.5 -3q-13 -111 -102 -111zM702 12q4 0 4 -6t-4 -6q-19 0 -59 2t-59 2q-22 0 -55.5 -2t-51.5 -2q-5 0 -5 6t5 6q51 0 62.5 15.5t-9.5 59.5l-86 180h-239
l-59 -137q-49 -118 84 -118q4 0 4 -6t-4 -6q-19 0 -55 2t-63 2q-25 0 -58.5 -2t-53.5 -2q-4 0 -4 6t4 6q41 0 66.5 25.5t58.5 101.5l211 494q2 3 8 3t7 -3l238 -496q34 -73 58 -99t55 -26zM214 288h220l-116 242z" />
    <glyph glyph-name="abreve" unicode="&#x103;" horiz-adv-x="420" 
d="M212 471q-103 0 -103 153q0 2 2.5 3t5.5 0.5t3 -1.5q0 -42 26.5 -70.5t65.5 -28.5q38 0 64.5 29t26.5 70q0 1 2.5 1.5t5.5 -0.5t3 -3q0 -153 -102 -153zM414 54q5 2 6.5 -3.5t-2.5 -7.5l-103 -49q-4 -2 -9 -2q-13 0 -23.5 17.5t-14.5 47.5l-50 -33q-45 -31 -85 -31
q-38 0 -59 19.5t-21 49.5q0 32 25.5 53.5t81.5 42.5l107 39v66q0 114 -61 114q-33 0 -50 -23t-22 -52q-6 -44 -41 -44q-18 0 -27 9t-9 22q0 38 65.5 72.5t120.5 34.5q41 0 63.5 -26.5t22.5 -76.5v-185q0 -66 39 -66q18 0 46 12zM228 48l39 24v6v105l-84 -34q-55 -21 -55 -61
q0 -24 15.5 -39.5t39.5 -15.5q20 0 45 15z" />
    <glyph glyph-name="Aogonek" unicode="&#x104;" horiz-adv-x="706" 
d="M702 9q4 0 4 -5.5t-4 -5.5q-22 0 -53 1.5t-46 1.5q-53 0 -88 -35.5t-35 -91.5q0 -50 27 -83.5t77 -33.5q32 0 54 13q2 2 5.5 -2t1.5 -6q-49 -37 -107 -37q-57 0 -89.5 29t-32.5 79q0 35 17 65t38.5 48t41.5 41t25.5 43.5t-8.5 55.5l-87 181h-238l-59 -137
q-49 -118 84 -118q4 0 4 -6t-4 -6q-19 0 -55 2t-63 2q-25 0 -58.5 -2t-53.5 -2q-4 0 -4 6t4 6q41 0 66.5 25.5t57.5 101.5l212 494q2 3 8 3t7 -3l238 -497q33 -72 57.5 -99.5t55.5 -27.5zM214 288h219l-116 241z" />
    <glyph glyph-name="aogonek" unicode="&#x105;" horiz-adv-x="420" 
d="M414 54q5 2 6.5 -3.5t-2.5 -7.5l-103 -49q-1 -1 -2 -1q-2 -1 -3 -1q-65 -61 -65 -131q0 -48 24.5 -76t69.5 -28q32 0 61 21q2 1 4.5 -0.5t3.5 -3.5t-1 -4q-52 -45 -109 -45q-53 0 -83 28t-30 73q0 83 109 170q-22 14 -26 61l-50 -33q-45 -31 -85 -31q-38 0 -59 19.5
t-21 49.5q0 32 25.5 53.5t81.5 42.5l107 39v66q0 114 -61 114q-33 0 -50 -23t-22 -52q-6 -44 -41 -44q-18 0 -27 9t-9 22q0 38 65.5 72.5t120.5 34.5q41 0 63.5 -26.5t22.5 -76.5v-185q0 -66 39 -66q18 0 46 12zM228 48l39 24v6v105l-84 -34q-55 -21 -55 -61
q0 -24 15.5 -39.5t39.5 -15.5q20 0 45 15z" />
    <glyph glyph-name="Cacute" unicode="&#x106;" horiz-adv-x="685" 
d="M294 679q-4 -2 -6 3t1 7q27 14 53.5 30.5l56 36.5t46.5 30q10 6 54 -15q22 -10 19 -14q0 -1 -2 -1q-108 -27 -222 -77zM414 636q111 0 189 -37q7 -4 8.5 -7.5t2.5 -15.5l13 -122q0 -3 -5.5 -4t-6.5 3q-49 167 -207 167q-123 0 -198.5 -82t-75.5 -220q0 -133 81.5 -223.5
t197.5 -90.5q79 0 129.5 39.5t80.5 122.5q1 3 6 2t5 -3l-10 -112q-2 -18 -12 -23q-93 -43 -200 -43q-160 0 -261.5 91t-101.5 237q0 143 103 232t262 89z" />
    <glyph glyph-name="cacute" unicode="&#x107;" horiz-adv-x="413" 
d="M227 474q0 -2 -3 -2t-5.5 1.5t-2.5 2.5l49 240q2 8 45 14q24 3 22 -3zM231 -12q-96 0 -146 59t-50 138q0 95 68.5 152.5t153.5 57.5q45 0 81.5 -18t36.5 -45q0 -15 -10.5 -25t-27.5 -10q-32 0 -48 36q-11 22 -25.5 32t-41.5 10q-54 0 -84 -43.5t-30 -115.5
q0 -84 41 -137.5t125 -53.5q57 0 100 32q2 1 4.5 -0.5t3.5 -3.5t-1 -4q-67 -61 -150 -61z" />
    <glyph glyph-name="Ccircumflex" unicode="&#x108;" horiz-adv-x="685" 
d="M277 694l103 101q12 11 23 0l102 -101q2 -1 1.5 -3t-3 -3.5t-3.5 -0.5l-108 54l-109 -54q-1 0 -3 1t-3 3t0 3zM414 636q111 0 189 -37q7 -4 8.5 -7.5t2.5 -15.5l13 -122q0 -3 -5.5 -4t-6.5 3q-49 167 -207 167q-123 0 -198.5 -82t-75.5 -220q0 -133 81.5 -223.5
t197.5 -90.5q79 0 129.5 39.5t80.5 122.5q1 3 6 2t5 -3l-10 -112q-2 -18 -12 -23q-93 -43 -200 -43q-160 0 -261.5 91t-101.5 237q0 143 103 232t262 89z" />
    <glyph glyph-name="ccircumflex" unicode="&#x109;" horiz-adv-x="413" 
d="M308 476q1 -2 -2 -3q-7 -3 -8 1l-68 155l-69 -155q0 -2 -3 -2t-5.5 1.5t-2.5 2.5l68 249q1 5 11 5t12 -5zM231 -12q-96 0 -146 59t-50 138q0 95 68.5 152.5t153.5 57.5q45 0 81.5 -18t36.5 -45q0 -15 -10.5 -25t-27.5 -10q-32 0 -48 36q-11 22 -25.5 32t-41.5 10
q-54 0 -84 -43.5t-30 -115.5q0 -84 41 -137.5t125 -53.5q57 0 100 32q2 1 4.5 -0.5t3.5 -3.5t-1 -4q-67 -61 -150 -61z" />
    <glyph glyph-name="Cdotaccent" unicode="&#x10a;" horiz-adv-x="685" 
d="M391 713q-22 0 -34.5 12.5t-12.5 34.5q0 20 12.5 32t34.5 12q21 0 33 -12t12 -32q0 -47 -45 -47zM414 636q111 0 189 -37q7 -4 8.5 -7.5t2.5 -15.5l13 -122q0 -3 -5.5 -4t-6.5 3q-49 167 -207 167q-123 0 -198.5 -82t-75.5 -220q0 -133 81.5 -223.5t197.5 -90.5
q79 0 129.5 39.5t80.5 122.5q1 3 6 2t5 -3l-10 -112q-2 -18 -12 -23q-93 -43 -200 -43q-160 0 -261.5 91t-101.5 237q0 143 103 232t262 89z" />
    <glyph glyph-name="cdotaccent" unicode="&#x10b;" horiz-adv-x="413" 
d="M229 509q-22 0 -34.5 12t-12.5 34q0 20 12.5 32t34.5 12q21 0 33 -12t12 -32q0 -22 -12 -34t-33 -12zM231 -12q-96 0 -146 59t-50 138q0 95 68.5 152.5t153.5 57.5q45 0 81.5 -18t36.5 -45q0 -15 -10.5 -25t-27.5 -10q-32 0 -48 36q-11 22 -25.5 32t-41.5 10
q-54 0 -84 -43.5t-30 -115.5q0 -84 41 -137.5t125 -53.5q57 0 100 32q2 1 4.5 -0.5t3.5 -3.5t-1 -4q-67 -61 -150 -61z" />
    <glyph glyph-name="Ccaron" unicode="&#x10c;" horiz-adv-x="685" 
d="M379 687l-103 100q-2 2 1 5t5 2l109 -54l108 55q3 1 6 -3q1 -3 -1 -4l-102 -101q-12 -11 -23 0zM414 636q111 0 189 -37q7 -4 8.5 -7.5t2.5 -15.5l13 -122q0 -3 -5.5 -4t-6.5 3q-49 167 -207 167q-123 0 -198.5 -82t-75.5 -220q0 -133 81.5 -223.5t197.5 -90.5
q79 0 129.5 39.5t80.5 122.5q1 3 6 2t5 -3l-10 -112q-2 -18 -12 -23q-93 -43 -200 -43q-160 0 -261.5 91t-101.5 237q0 143 103 232t262 89z" />
    <glyph glyph-name="ccaron" unicode="&#x10d;" horiz-adv-x="413" 
d="M149 726q0 2 2.5 3.5t5.5 1t3 -1.5l69 -155l68 155q0 1 3 1.5t5.5 -1t1.5 -3.5l-67 -249q-2 -5 -11.5 -5t-11.5 5zM231 -12q-96 0 -146 59t-50 138q0 95 68.5 152.5t153.5 57.5q45 0 81.5 -18t36.5 -45q0 -15 -10.5 -25t-27.5 -10q-32 0 -48 36q-11 22 -25.5 32t-41.5 10
q-54 0 -84 -43.5t-30 -115.5q0 -84 41 -137.5t125 -53.5q57 0 100 32q2 1 4.5 -0.5t3.5 -3.5t-1 -4q-67 -61 -150 -61z" />
    <glyph glyph-name="Dcaron" unicode="&#x10e;" horiz-adv-x="694" 
d="M307 687l-103 100q-2 2 1 5t5 2l109 -54l108 55q3 1 6 -3q1 -3 -1 -4l-102 -101q-12 -11 -23 0zM307 -4q-18 0 -73 3t-80 3q-24 0 -64.5 -1t-55.5 -1q-2 0 -2 6t2 6q53 0 68.5 12.5t15.5 56.5v463q0 43 -15 56t-68 13q-2 0 -2 6t2 6q15 0 55 -1.5t64 -1.5q23 0 72 2.5
t67 2.5q157 0 254.5 -86.5t97.5 -217.5q0 -146 -98 -236.5t-240 -90.5zM297 12q118 0 190.5 76t72.5 213q0 133 -71 221.5t-187 88.5q-64 0 -87.5 -13t-23.5 -56v-450q0 -44 21.5 -62t84.5 -18z" />
    <glyph glyph-name="dcaron" unicode="&#x10f;" horiz-adv-x="512" 
d="M488 722q0 5 14.5 -0.5t28.5 -15.5t13 -15l-37 -242q-1 -2 -6 -1.5t-5 2.5zM504 58q2 1 4.5 -1.5t3 -5.5t-1.5 -4l-115 -55q-6 -2 -7 -2q-13 0 -22 21t-10 59q-81 -83 -164 -83q-65 0 -111 53t-46 139q0 105 72 162.5t157 57.5q51 0 92 -23v220q0 36 -7 51.5t-25 15.5
q-13 0 -44 -13q-3 -1 -5.5 1.5t-2.5 5.5t2 4l130 63q2 1 5 1t6.5 -3t3.5 -6v-605q0 -36 8 -51.5t27 -15.5q25 0 50 14zM234 25q61 0 122 63v224q-46 66 -117 66q-61 0 -96.5 -43.5t-35.5 -125.5q0 -83 35.5 -133.5t91.5 -50.5z" />
    <glyph glyph-name="Dcroat" unicode="&#x110;" horiz-adv-x="694" 
d="M293 627q157 0 254.5 -86.5t97.5 -217.5q0 -146 -98 -236.5t-240 -90.5q-18 0 -73 3t-80 3q-24 0 -64.5 -1t-55.5 -1q-2 0 -2 6t2 6q53 0 68.5 12.5t15.5 56.5v219h-65q-5 0 -5 11t5 11h65v222q0 43 -15 56t-68 13q-2 0 -2 6t2 6q15 0 55 -1.5t64 -1.5q23 0 72 2.5
t67 2.5zM297 12q118 0 190.5 76t72.5 213q0 133 -71 221.5t-187 88.5q-64 0 -87.5 -13t-23.5 -56v-220h136q4 0 4 -11t-4 -11h-136v-208q0 -44 21.5 -62t84.5 -18z" />
    <glyph glyph-name="dcroat" unicode="&#x111;" horiz-adv-x="512" 
d="M504 58q2 1 4.5 -1.5t3 -5.5t-1.5 -4l-115 -55q-6 -2 -7 -2q-13 0 -22 21t-10 59q-81 -83 -164 -83q-65 0 -111 53t-46 139q0 105 72 162.5t157 57.5q51 0 92 -23v126h-167q-6 0 -6 10.5t6 10.5h167v73q0 36 -7 51.5t-25 15.5q-13 0 -44 -13q-3 -1 -5.5 1.5t-2.5 5.5t2 4
l130 63q2 1 5 1t6.5 -3t3.5 -6v-193h65q5 0 5 -10.5t-5 -10.5h-65v-391q0 -36 8 -51.5t27 -15.5q25 0 50 14zM234 25q61 0 122 63v224q-46 66 -117 66q-61 0 -96.5 -43.5t-35.5 -125.5q0 -83 35.5 -133.5t91.5 -50.5z" />
    <glyph glyph-name="Emacron" unicode="&#x112;" horiz-adv-x="540" 
d="M167 720q-7 0 -7 15t7 15h251q7 0 7 -15t-7 -15h-251zM479 150q0 2 3 2.5t6 -0.5t3 -3q-9 -65 -9 -134q0 -15 -16 -15h-423q-2 0 -2 6t2 6q53 0 68 12.5t15 56.5v463q0 43 -15 56t-68 13q-2 0 -2 6t2 6h406q9 0 9 -9l2 -125q0 -3 -5.5 -3t-5.5 3q-6 54 -37 83t-81 29h-55
q-47 0 -62 -13t-15 -50v-204h115q50 0 72.5 17t22.5 55q0 2 6 2t6 -2q0 -22 -0.5 -47t-0.5 -36q0 -15 1 -45.5t1 -48.5q0 -2 -6 -2t-6 2q0 44 -23 63.5t-75 19.5h-113v-229q0 -38 14 -50.5t59 -12.5h71q53 0 88 33.5t48 94.5z" />
    <glyph glyph-name="emacron" unicode="&#x113;" horiz-adv-x="409" 
d="M102 481q-7 0 -7 15t7 15h251q7 0 7 -15t-7 -15h-251zM363 58q2 2 5.5 -2.5t1.5 -7.5q-67 -60 -148 -60q-87 0 -137 56.5t-50 136.5q0 89 62 151.5t152 62.5q58 0 88.5 -29.5t30.5 -84.5q0 -27 -12 -27l-247 -1q-2 -22 -2 -34q0 -87 41 -140t116 -53q46 0 99 32zM215 375
q-42 0 -69 -28.5t-35 -79.5l182 4q0 104 -78 104z" />
    <glyph glyph-name="Ebreve" unicode="&#x114;" horiz-adv-x="540" 
d="M293 690q-90 0 -103 111q0 2 2.5 3t5.5 0.5t3 -1.5q5 -26 32 -45t60 -19t59.5 19t31.5 45q0 1 3 1.5t5.5 -0.5t2.5 -3q-13 -111 -102 -111zM479 150q0 2 3 2.5t6 -0.5t3 -3q-9 -65 -9 -134q0 -15 -16 -15h-423q-2 0 -2 6t2 6q53 0 68 12.5t15 56.5v463q0 43 -15 56
t-68 13q-2 0 -2 6t2 6h406q9 0 9 -9l2 -125q0 -3 -5.5 -3t-5.5 3q-6 54 -37 83t-81 29h-55q-47 0 -62 -13t-15 -50v-204h115q50 0 72.5 17t22.5 55q0 2 6 2t6 -2q0 -22 -0.5 -47t-0.5 -36q0 -15 1 -45.5t1 -48.5q0 -2 -6 -2t-6 2q0 44 -23 63.5t-75 19.5h-113v-229
q0 -38 14 -50.5t59 -12.5h71q53 0 88 33.5t48 94.5z" />
    <glyph glyph-name="ebreve" unicode="&#x115;" horiz-adv-x="409" 
d="M228 471q-103 0 -103 153q0 2 2.5 3t5.5 0.5t3 -1.5q0 -42 26.5 -70.5t65.5 -28.5q38 0 64.5 29t26.5 70q0 1 2.5 1.5t5.5 -0.5t3 -3q0 -153 -102 -153zM363 58q2 2 5.5 -2.5t1.5 -7.5q-67 -60 -148 -60q-87 0 -137 56.5t-50 136.5q0 89 62 151.5t152 62.5
q58 0 88.5 -29.5t30.5 -84.5q0 -27 -12 -27l-247 -1q-2 -22 -2 -34q0 -87 41 -140t116 -53q46 0 99 32zM215 375q-42 0 -69 -28.5t-35 -79.5l182 4q0 104 -78 104z" />
    <glyph glyph-name="Edotaccent" unicode="&#x116;" horiz-adv-x="540" 
d="M293 713q-22 0 -34.5 12.5t-12.5 34.5q0 20 12.5 32t34.5 12q21 0 33 -12t12 -32q0 -47 -45 -47zM479 150q0 2 3 2.5t6 -0.5t3 -3q-9 -65 -9 -134q0 -15 -16 -15h-423q-2 0 -2 6t2 6q53 0 68 12.5t15 56.5v463q0 43 -15 56t-68 13q-2 0 -2 6t2 6h406q9 0 9 -9l2 -125
q0 -3 -5.5 -3t-5.5 3q-6 54 -37 83t-81 29h-55q-47 0 -62 -13t-15 -50v-204h115q50 0 72.5 17t22.5 55q0 2 6 2t6 -2q0 -22 -0.5 -47t-0.5 -36q0 -15 1 -45.5t1 -48.5q0 -2 -6 -2t-6 2q0 44 -23 63.5t-75 19.5h-113v-229q0 -38 14 -50.5t59 -12.5h71q53 0 88 33.5t48 94.5z
" />
    <glyph glyph-name="edotaccent" unicode="&#x117;" horiz-adv-x="409" 
d="M228 509q-22 0 -34.5 12t-12.5 34q0 20 12.5 32t34.5 12q21 0 33 -12t12 -32q0 -22 -12 -34t-33 -12zM363 58q2 2 5.5 -2.5t1.5 -7.5q-67 -60 -148 -60q-87 0 -137 56.5t-50 136.5q0 89 62 151.5t152 62.5q58 0 88.5 -29.5t30.5 -84.5q0 -27 -12 -27l-247 -1
q-2 -22 -2 -34q0 -87 41 -140t116 -53q46 0 99 32zM215 375q-42 0 -69 -28.5t-35 -79.5l182 4q0 104 -78 104z" />
    <glyph glyph-name="Eogonek" unicode="&#x118;" horiz-adv-x="540" 
d="M498 -222q2 1 4.5 -0.5t3.5 -3.5t-1 -4q-52 -45 -109 -45q-53 0 -83 28t-30 73q0 85 114 174h-354q-2 0 -2 6t2 6q53 0 68 12.5t15 56.5v463q0 43 -15 56t-68 13q-2 0 -2 6t2 6h406q9 0 9 -9l2 -125q0 -3 -5.5 -3t-5.5 3q-6 54 -37 83t-81 29h-55q-47 0 -62 -13t-15 -50
v-204h115q50 0 72.5 17t22.5 55q0 2 6 2t6 -2q0 -22 -0.5 -47t-0.5 -36q0 -15 1 -45.5t1 -48.5q0 -2 -6 -2t-6 2q0 44 -23 63.5t-75 19.5h-113v-229q0 -38 14 -50.5t59 -12.5h71q53 0 88 33.5t48 94.5q0 2 3 2.5t6 -0.5t3 -3q-9 -65 -9 -134q0 -15 -16 -15h-50
q-73 -67 -73 -139q0 -48 24.5 -76t69.5 -28q32 0 61 21z" />
    <glyph glyph-name="eogonek" unicode="&#x119;" horiz-adv-x="409" 
d="M368 -222q2 1 4.5 -0.5t3.5 -3.5t-1 -4q-45 -45 -98 -45q-51 0 -78 26t-27 70q0 86 112 176q-30 -9 -62 -9q-87 0 -137 56.5t-50 136.5q0 89 62 151.5t152 62.5q58 0 88.5 -29.5t30.5 -84.5q0 -27 -12 -27l-247 -1q-2 -22 -2 -34q0 -87 41 -140t116 -53q46 0 99 32
q2 2 5.5 -2.5t1.5 -7.5q-12 -10 -31 -24q-103 -85 -103 -173q0 -95 77 -95q27 0 55 22zM215 375q-42 0 -69 -28.5t-35 -79.5l182 4q0 104 -78 104z" />
    <glyph glyph-name="Ecaron" unicode="&#x11a;" horiz-adv-x="540" 
d="M281 687l-103 100q-2 2 1 5t5 2l109 -54l108 55q3 1 6 -3q1 -3 -1 -4l-102 -101q-12 -11 -23 0zM479 150q0 2 3 2.5t6 -0.5t3 -3q-9 -65 -9 -134q0 -15 -16 -15h-423q-2 0 -2 6t2 6q53 0 68 12.5t15 56.5v463q0 43 -15 56t-68 13q-2 0 -2 6t2 6h406q9 0 9 -9l2 -125
q0 -3 -5.5 -3t-5.5 3q-6 54 -37 83t-81 29h-55q-47 0 -62 -13t-15 -50v-204h115q50 0 72.5 17t22.5 55q0 2 6 2t6 -2q0 -22 -0.5 -47t-0.5 -36q0 -15 1 -45.5t1 -48.5q0 -2 -6 -2t-6 2q0 44 -23 63.5t-75 19.5h-113v-229q0 -38 14 -50.5t59 -12.5h71q53 0 88 33.5t48 94.5z
" />
    <glyph glyph-name="ecaron" unicode="&#x11b;" horiz-adv-x="409" 
d="M216 477l-68 249q0 2 2.5 3.5t5.5 1t3 -1.5l69 -155l68 155q0 1 3 1.5t5.5 -1t1.5 -3.5l-67 -249q-1 -5 -11 -5t-12 5zM363 58q2 2 5.5 -2.5t1.5 -7.5q-67 -60 -148 -60q-87 0 -137 56.5t-50 136.5q0 89 62 151.5t152 62.5q58 0 88.5 -29.5t30.5 -84.5q0 -27 -12 -27
l-247 -1q-2 -22 -2 -34q0 -87 41 -140t116 -53q46 0 99 32zM215 375q-42 0 -69 -28.5t-35 -79.5l182 4q0 104 -78 104z" />
    <glyph glyph-name="Gcircumflex" unicode="&#x11c;" horiz-adv-x="717" 
d="M283 694l103 101q12 11 23 0l102 -101q2 -1 1.5 -3t-3 -3.5t-3.5 -0.5l-108 54l-109 -54q-1 0 -3 1t-3 3t0 3zM411 -12q-166 0 -264 94t-98 233q0 145 107 233t271 88q113 0 176 -37q8 -4 9.5 -6.5t2.5 -15.5l13 -121q0 -3 -5 -4t-7 2q-22 73 -74 119t-138 46
q-117 0 -193.5 -79t-76.5 -210q0 -87 33 -159.5t103.5 -120t166.5 -47.5q69 0 96.5 26.5t27.5 95.5q0 73 -17 90t-94 17q-4 0 -5.5 4t0 8t4.5 4q114 -8 229 -2q4 0 4.5 -7t-4.5 -7q-34 1 -41.5 -18t-7.5 -99q0 -40 3.5 -63t3.5 -25q0 -6 -2 -8t-9 -4q-124 -27 -214 -27z" />
    <glyph glyph-name="gcircumflex" unicode="&#x11d;" horiz-adv-x="446" 
d="M148 474q0 -2 -3 -2t-5.5 1.5t-2.5 2.5l68 249q1 5 11 5t12 -5l67 -249q1 -2 -2 -3q-7 -3 -8 1l-68 155zM252 27q91 -1 124 -16q53 -24 53 -87q0 -83 -75 -144t-174 -61q-68 0 -108.5 31.5t-40.5 79.5q0 74 102 144q-76 12 -76 69q0 53 72 107q-35 17 -55 47.5t-20 66.5
q0 57 46.5 93t116.5 36q63 0 104 -31q56 33 107 33q6 0 6 -24q0 -30 -8 -36q-1 -1 -2 0q-32 15 -68 15q-14 0 -21 -1q33 -36 33 -84q0 -55 -46 -93.5t-115 -38.5q-31 0 -63 10q-34 -27 -34 -60t31 -44.5t111 -11.5zM191 377q-69 0 -69 -88q0 -66 32 -103.5t74 -37.5
q32 0 51.5 23.5t19.5 71.5q0 61 -31.5 97.5t-76.5 36.5zM225 -250q66 0 107 35.5t41 95.5q0 25 -8.5 42t-20 26t-34.5 13.5t-42 6t-53 1.5q-40 0 -58 2q-63 -41 -63 -105q0 -55 35 -86t96 -31z" />
    <glyph glyph-name="Gbreve" unicode="&#x11e;" horiz-adv-x="717" 
d="M397 690q-90 0 -103 111q0 2 2.5 3t5.5 0.5t3 -1.5q5 -26 32 -45t60 -19t59.5 19t31.5 45q0 1 3 1.5t5.5 -0.5t2.5 -3q-13 -111 -102 -111zM411 -12q-166 0 -264 94t-98 233q0 145 107 233t271 88q113 0 176 -37q8 -4 9.5 -6.5t2.5 -15.5l13 -121q0 -3 -5 -4t-7 2
q-22 73 -74 119t-138 46q-117 0 -193.5 -79t-76.5 -210q0 -87 33 -159.5t103.5 -120t166.5 -47.5q69 0 96.5 26.5t27.5 95.5q0 73 -17 90t-94 17q-4 0 -5.5 4t0 8t4.5 4q114 -8 229 -2q4 0 4.5 -7t-4.5 -7q-34 1 -41.5 -18t-7.5 -99q0 -40 3.5 -63t3.5 -25q0 -6 -2 -8t-9 -4
q-124 -27 -214 -27z" />
    <glyph glyph-name="gbreve" unicode="&#x11f;" horiz-adv-x="446" 
d="M216 471q-103 0 -103 153q0 2 2.5 3t5.5 0.5t3 -1.5q0 -42 26.5 -70.5t65.5 -28.5q38 0 64.5 29t26.5 70q0 1 2.5 1.5t5.5 -0.5t3 -3q0 -153 -102 -153zM252 27q91 -1 124 -16q53 -24 53 -87q0 -83 -75 -144t-174 -61q-68 0 -108.5 31.5t-40.5 79.5q0 74 102 144
q-76 12 -76 69q0 53 72 107q-35 17 -55 47.5t-20 66.5q0 57 46.5 93t116.5 36q63 0 104 -31q56 33 107 33q6 0 6 -24q0 -30 -8 -36q-1 -1 -2 0q-32 15 -68 15q-14 0 -21 -1q33 -36 33 -84q0 -55 -46 -93.5t-115 -38.5q-31 0 -63 10q-34 -27 -34 -60t31 -44.5t111 -11.5z
M191 377q-69 0 -69 -88q0 -66 32 -103.5t74 -37.5q32 0 51.5 23.5t19.5 71.5q0 61 -31.5 97.5t-76.5 36.5zM225 -250q66 0 107 35.5t41 95.5q0 25 -8.5 42t-20 26t-34.5 13.5t-42 6t-53 1.5q-40 0 -58 2q-63 -41 -63 -105q0 -55 35 -86t96 -31z" />
    <glyph glyph-name="Gdotaccent" unicode="&#x120;" horiz-adv-x="717" 
d="M398 713q-22 0 -34.5 12.5t-12.5 34.5q0 20 12.5 32t34.5 12q21 0 33 -12t12 -32q0 -47 -45 -47zM411 -12q-166 0 -264 94t-98 233q0 145 107 233t271 88q113 0 176 -37q8 -4 9.5 -6.5t2.5 -15.5l13 -121q0 -3 -5 -4t-7 2q-22 73 -74 119t-138 46q-117 0 -193.5 -79
t-76.5 -210q0 -87 33 -159.5t103.5 -120t166.5 -47.5q69 0 96.5 26.5t27.5 95.5q0 73 -17 90t-94 17q-4 0 -5.5 4t0 8t4.5 4q114 -8 229 -2q4 0 4.5 -7t-4.5 -7q-34 1 -41.5 -18t-7.5 -99q0 -40 3.5 -63t3.5 -25q0 -6 -2 -8t-9 -4q-124 -27 -214 -27z" />
    <glyph glyph-name="gdotaccent" unicode="&#x121;" horiz-adv-x="446" 
d="M216 509q-22 0 -34.5 12t-12.5 34q0 20 12.5 32t34.5 12q21 0 33 -12t12 -32q0 -22 -12 -34t-33 -12zM252 27q91 -1 124 -16q53 -24 53 -87q0 -83 -75 -144t-174 -61q-68 0 -108.5 31.5t-40.5 79.5q0 74 102 144q-76 12 -76 69q0 53 72 107q-35 17 -55 47.5t-20 66.5
q0 57 46.5 93t116.5 36q63 0 104 -31q56 33 107 33q6 0 6 -24q0 -30 -8 -36q-1 -1 -2 0q-32 15 -68 15q-14 0 -21 -1q33 -36 33 -84q0 -55 -46 -93.5t-115 -38.5q-31 0 -63 10q-34 -27 -34 -60t31 -44.5t111 -11.5zM191 377q-69 0 -69 -88q0 -66 32 -103.5t74 -37.5
q32 0 51.5 23.5t19.5 71.5q0 61 -31.5 97.5t-76.5 36.5zM225 -250q66 0 107 35.5t41 95.5q0 25 -8.5 42t-20 26t-34.5 13.5t-42 6t-53 1.5q-40 0 -58 2q-63 -41 -63 -105q0 -55 35 -86t96 -31z" />
    <glyph glyph-name="uni0122" unicode="&#x122;" horiz-adv-x="717" 
d="M678 246q4 0 4.5 -7t-4.5 -7q-34 1 -41.5 -18t-7.5 -99q0 -40 3.5 -63t3.5 -25q0 -6 -2 -8t-9 -4q-124 -27 -214 -27q-166 0 -264 94t-98 233q0 145 107 233t271 88q113 0 176 -37q8 -4 9.5 -6.5t2.5 -15.5l13 -121q0 -3 -5 -4t-7 2q-22 73 -74 119t-138 46
q-117 0 -193.5 -79t-76.5 -210q0 -87 33 -159.5t103.5 -120t166.5 -47.5q69 0 96.5 26.5t27.5 95.5q0 73 -17 90t-94 17q-4 0 -5.5 4t0 8t4.5 4q114 -8 229 -2zM419 -82q59 0 59 -75q0 -61 -64 -118q-5 -3 -9 3q-1 3 1 5q45 39 45 85q0 21 -7 31q-7 -17 -32 -17
q-19 0 -30 11.5t-11 31.5q0 43 48 43z" />
    <glyph glyph-name="uni0123" unicode="&#x123;" horiz-adv-x="446" 
d="M217 484q-59 0 -59 75q0 61 64 118q5 3 9 -3q1 -3 -1 -5q-45 -39 -45 -85q0 -21 7 -31q7 17 32 17q19 0 30 -11.5t11 -31.5q0 -43 -48 -43zM252 27q91 -1 124 -16q53 -24 53 -87q0 -83 -75 -144t-174 -61q-68 0 -108.5 31.5t-40.5 79.5q0 74 102 144q-76 12 -76 69
q0 53 72 107q-35 17 -55 47.5t-20 66.5q0 57 46.5 93t116.5 36q63 0 104 -31q56 33 107 33q6 0 6 -24q0 -30 -8 -36q-1 -1 -2 0q-32 15 -68 15q-14 0 -21 -1q33 -36 33 -84q0 -55 -46 -93.5t-115 -38.5q-31 0 -63 10q-34 -27 -34 -60t31 -44.5t111 -11.5zM191 377
q-69 0 -69 -88q0 -66 32 -103.5t74 -37.5q32 0 51.5 23.5t19.5 71.5q0 61 -31.5 97.5t-76.5 36.5zM225 -250q66 0 107 35.5t41 95.5q0 25 -8.5 42t-20 26t-34.5 13.5t-42 6t-53 1.5q-40 0 -58 2q-63 -41 -63 -105q0 -55 35 -86t96 -31z" />
    <glyph glyph-name="Hcircumflex" unicode="&#x124;" horiz-adv-x="760" 
d="M273 687q-1 0 -3 1t-3 3t0 3l103 101q12 11 23 0l102 -101q2 -1 1.5 -3t-3 -3.5t-3.5 -0.5l-108 54zM724 12q3 0 3 -6t-3 -6q-14 0 -55.5 1t-65.5 1q-29 0 -70 -1t-54 -1q-3 0 -3 6t3 6q56 0 71.5 12.5t15.5 56.5v233h-373v-233q0 -44 15.5 -56.5t71.5 -12.5q2 0 2 -6
t-2 -6q-15 0 -56 1t-69 1q-24 0 -65 -1t-56 -1q-2 0 -2 6t2 6q55 0 70.5 12.5t15.5 56.5v463q0 43 -15.5 56t-69.5 13q-2 0 -2 6t2 6q15 0 55.5 -1.5t64.5 -1.5q28 0 69.5 1.5t55.5 1.5q2 0 2 -6t-2 -6q-55 0 -71 -14t-16 -57v-206h373v206q0 44 -16 57.5t-71 13.5
q-3 0 -3 6t3 6q13 0 54 -1.5t70 -1.5q24 0 65.5 1.5t55.5 1.5q3 0 3 -6t-3 -6q-54 0 -70 -13t-16 -56v-463q0 -44 15.5 -56.5t70.5 -12.5z" />
    <glyph glyph-name="hcircumflex" unicode="&#x125;" horiz-adv-x="500" 
d="M18 722q-1 0 -3 1t-3 3t0 3l103 101q5 4 12 4t11 -4l102 -101q2 -1 1.5 -3t-3 -3.5t-3.5 -0.5l-108 54zM480 12q3 0 3 -6t-3 -6q-11 0 -42.5 1t-50.5 1t-51 -1t-42 -1q-3 0 -3 6t3 6q37 0 49 13.5t12 55.5v156q0 115 -90 115q-63 0 -116 -58v-213q0 -42 12 -55.5
t50 -13.5q3 0 3 -6t-3 -6q-11 0 -42.5 1t-50.5 1q-20 0 -51 -1t-42 -1q-3 0 -3 6t3 6q37 0 49 13.5t12 55.5v515q0 68 -31 68q-14 0 -44 -14q-3 -1 -5.5 1.5t-2.5 6t2 4.5l131 63h3q10 0 10 -9v-404q73 85 154 85q55 0 85 -32t30 -91v-193q0 -42 12 -55.5t50 -13.5z" />
    <glyph glyph-name="Hbar" unicode="&#x126;" horiz-adv-x="760" 
d="M724 12q3 0 3 -6t-3 -6q-14 0 -55.5 1t-65.5 1q-29 0 -70 -1t-54 -1q-3 0 -3 6t3 6q56 0 71.5 12.5t15.5 56.5v140h-373v-140q0 -44 15.5 -56.5t71.5 -12.5q2 0 2 -6t-2 -6q-15 0 -56 1t-69 1q-24 0 -65 -1t-56 -1q-2 0 -2 6t2 6q55 0 70.5 12.5t15.5 56.5v463
q0 43 -15.5 56t-69.5 13q-2 0 -2 6t2 6q15 0 55.5 -1.5t64.5 -1.5q28 0 69.5 1.5t55.5 1.5q2 0 2 -6t-2 -6q-55 0 -71 -14t-16 -57v-112h373v112q0 44 -16 57.5t-71 13.5q-3 0 -3 6t3 6q13 0 54 -1.5t70 -1.5q24 0 65.5 1.5t55.5 1.5q3 0 3 -6t-3 -6q-54 0 -70 -13t-16 -56
v-463q0 -44 15.5 -56.5t70.5 -12.5zM193 243h373v165h-373v-165z" />
    <glyph glyph-name="hbar" unicode="&#x127;" horiz-adv-x="501" 
d="M480 12q3 0 3 -6t-3 -6q-11 0 -42.5 1t-50.5 1t-51 -1t-42 -1q-3 0 -3 6t3 6q37 0 49 13.5t12 55.5v156q0 115 -90 115q-63 0 -116 -58v-213q0 -42 12 -55.5t50 -13.5q3 0 3 -6t-3 -6q-11 0 -42.5 1t-50.5 1q-20 0 -51 -1t-42 -1q-3 0 -3 6t3 6q37 0 49 13.5t12 55.5v421
h-75q-5 0 -5 10.5t5 10.5h75v73q0 68 -31 68q-14 0 -44 -14q-3 -1 -5.5 1.5t-2.5 6t2 4.5l131 63h3q10 0 10 -9v-193h157q5 0 5 -10.5t-5 -10.5h-157v-190q73 85 154 85q55 0 85 -32t30 -91v-193q0 -42 12 -55.5t50 -13.5z" />
    <glyph glyph-name="Itilde" unicode="&#x128;" horiz-adv-x="334" 
d="M42 697q-2 -2 -5.5 1.5t-1.5 5.5q42 66 85 66q14 0 56 -12.5t68 -12.5q27 0 50 27q2 2 5.5 -1t1.5 -6q-26 -38 -43 -51.5t-37 -13.5q-21 0 -63 12t-67 12q-8 0 -13.5 -1t-11.5 -5t-8 -5t-8.5 -8t-7.5 -8zM204 81q0 -44 14.5 -56.5t68.5 -12.5q2 0 2 -6t-2 -6q-15 0 -55 1
t-66 1q-24 0 -64.5 -1t-55.5 -1q-3 0 -3 6t3 6q53 0 68.5 12.5t15.5 56.5v463q0 43 -15.5 56t-68.5 13q-3 0 -3 6t3 6q15 0 55.5 -1.5t64.5 -1.5q26 0 66.5 1.5t54.5 1.5q2 0 2 -6t-2 -6q-52 0 -67.5 -13.5t-15.5 -57.5v-461z" />
    <glyph glyph-name="itilde" unicode="&#x129;" horiz-adv-x="271" 
d="M191 526q26 0 49 27q2 2 5.5 -1.5t1.5 -5.5q-26 -38 -43 -52t-35 -14q-14 0 -41 12.5t-44 12.5q-6 0 -10.5 -0.5t-9 -2.5t-7.5 -3.5t-6.5 -4.5t-5.5 -4.5t-6 -6t-5 -5.5q-3 -3 -7 4q-1 1 0 3q46 65 85 65q10 0 36 -12t43 -12zM51 0q-3 0 -3 6t3 6q37 0 49 13.5t12 55.5
v186q0 67 -32 67q-17 0 -44 -14q-3 -1 -5 1.5t-2 6t2 4.5l133 62l4 1q3 0 6.5 -3t3.5 -6q0 -4 -0.5 -20.5t-1 -43t-0.5 -54.5v-187q0 -42 11.5 -55.5t49.5 -13.5q3 0 3 -6t-3 -6q-11 0 -42.5 1t-50.5 1q-20 0 -51 -1t-42 -1z" />
    <glyph glyph-name="Imacron" unicode="&#x12a;" horiz-adv-x="334" 
d="M41 720q-7 0 -7 15t7 15h251q7 0 7 -15t-7 -15h-251zM204 81q0 -44 14.5 -56.5t68.5 -12.5q2 0 2 -6t-2 -6q-15 0 -55 1t-66 1q-24 0 -64.5 -1t-55.5 -1q-3 0 -3 6t3 6q53 0 68.5 12.5t15.5 56.5v463q0 43 -15.5 56t-68.5 13q-3 0 -3 6t3 6q15 0 55.5 -1.5t64.5 -1.5
q26 0 66.5 1.5t54.5 1.5q2 0 2 -6t-2 -6q-52 0 -67.5 -13.5t-15.5 -57.5v-461z" />
    <glyph glyph-name="imacron" unicode="&#x12b;" horiz-adv-x="271" 
d="M11 481q-7 0 -7 15t7 15h251q7 0 7 -15t-7 -15h-251zM51 0q-3 0 -3 6t3 6q37 0 49 13.5t12 55.5v186q0 67 -32 67q-17 0 -44 -14q-3 -1 -5 1.5t-2 6t2 4.5l133 62l4 1q3 0 6.5 -3t3.5 -6q0 -4 -0.5 -20.5t-1 -43t-0.5 -54.5v-187q0 -42 11.5 -55.5t49.5 -13.5q3 0 3 -6
t-3 -6q-11 0 -42.5 1t-50.5 1q-20 0 -51 -1t-42 -1z" />
    <glyph glyph-name="Ibreve" unicode="&#x12c;" horiz-adv-x="334" 
d="M167 690q-90 0 -103 111q0 2 2.5 3t5.5 0.5t3 -1.5q5 -26 32 -45t60 -19t59.5 19t31.5 45q0 1 3 1.5t5.5 -0.5t2.5 -3q-13 -111 -102 -111zM204 81q0 -44 14.5 -56.5t68.5 -12.5q2 0 2 -6t-2 -6q-15 0 -55 1t-66 1q-24 0 -64.5 -1t-55.5 -1q-3 0 -3 6t3 6q53 0 68.5 12.5
t15.5 56.5v463q0 43 -15.5 56t-68.5 13q-3 0 -3 6t3 6q15 0 55.5 -1.5t64.5 -1.5q26 0 66.5 1.5t54.5 1.5q2 0 2 -6t-2 -6q-52 0 -67.5 -13.5t-15.5 -57.5v-461z" />
    <glyph glyph-name="ibreve" unicode="&#x12d;" horiz-adv-x="271" 
d="M34 624q0 2 3 3t5.5 0.5t2.5 -1.5q0 -42 26.5 -70.5t65.5 -28.5q38 0 64.5 29t26.5 70q0 1 3 1.5t5.5 -0.5t2.5 -3q0 -153 -102 -153q-103 0 -103 153zM51 0q-3 0 -3 6t3 6q37 0 49 13.5t12 55.5v186q0 67 -32 67q-17 0 -44 -14q-3 -1 -5 1.5t-2 6t2 4.5l133 62l4 1
q3 0 6.5 -3t3.5 -6q0 -4 -0.5 -20.5t-1 -43t-0.5 -54.5v-187q0 -42 11.5 -55.5t49.5 -13.5q3 0 3 -6t-3 -6q-11 0 -42.5 1t-50.5 1q-20 0 -51 -1t-42 -1z" />
    <glyph glyph-name="Iogonek" unicode="&#x12e;" horiz-adv-x="334" 
d="M287 12q2 0 2 -6t-2 -6q-14 0 -51 1t-61 1q-43 -62 -43 -132q0 -49 23 -80t61 -31q24 0 49 19q2 2 5.5 -2t1.5 -6q-46 -45 -97 -45q-49 0 -76 27t-27 73q0 89 87 177q-22 0 -60.5 -1t-52.5 -1q-3 0 -3 6t3 6q53 0 68.5 12.5t15.5 56.5v463q0 43 -15.5 56t-68.5 13
q-3 0 -3 6t3 6q15 0 55.5 -1.5t64.5 -1.5q26 0 66.5 1.5t54.5 1.5q2 0 2 -6t-2 -6q-52 0 -67.5 -13.5t-15.5 -57.5v-461q0 -44 14.5 -56.5t68.5 -12.5z" />
    <glyph glyph-name="iogonek" unicode="&#x12f;" horiz-adv-x="271" 
d="M137 509q-22 0 -34.5 12t-12.5 34q0 20 12.5 32t34.5 12q21 0 33 -12t12 -32q0 -22 -12 -34t-33 -12zM241 -216q2 2 5.5 -2t1.5 -6q-46 -45 -97 -45q-49 0 -76 27t-27 73q0 85 81 171q-60 -2 -78 -2q-3 0 -3 6t3 6q37 0 49 13.5t12 55.5v186q0 67 -32 67q-17 0 -44 -14
q-3 -1 -5 1.5t-2 6t2 4.5l133 62l4 1q3 0 6.5 -3t3.5 -6q0 -4 -0.5 -20.5t-1 -43t-0.5 -54.5v-187q0 -42 11.5 -55.5t49.5 -13.5q3 0 3 -6t-3 -6q-11 0 -41.5 1t-48.5 1q-39 -59 -39 -126q0 -49 23 -80t61 -31q24 0 49 19z" />
    <glyph glyph-name="Idotaccent" unicode="&#x130;" horiz-adv-x="334" 
d="M167 713q-22 0 -34.5 12.5t-12.5 34.5q0 20 12.5 32t34.5 12q21 0 33 -12t12 -32q0 -47 -45 -47zM204 81q0 -44 14.5 -56.5t68.5 -12.5q2 0 2 -6t-2 -6q-15 0 -55 1t-66 1q-24 0 -64.5 -1t-55.5 -1q-3 0 -3 6t3 6q53 0 68.5 12.5t15.5 56.5v463q0 43 -15.5 56t-68.5 13
q-3 0 -3 6t3 6q15 0 55.5 -1.5t64.5 -1.5q26 0 66.5 1.5t54.5 1.5q2 0 2 -6t-2 -6q-52 0 -67.5 -13.5t-15.5 -57.5v-461z" />
    <glyph glyph-name="dotlessi" unicode="&#x131;" horiz-adv-x="271" 
d="M51 0q-3 0 -3 6t3 6q37 0 49 13.5t12 55.5v186q0 67 -32 67q-17 0 -44 -14q-3 -1 -5 1.5t-2 6t2 4.5l133 62l4 1q3 0 6.5 -3t3.5 -6q0 -4 -0.5 -20.5t-1 -43t-0.5 -54.5v-187q0 -42 11.5 -55.5t49.5 -13.5q3 0 3 -6t-3 -6q-11 0 -42.5 1t-50.5 1q-20 0 -51 -1t-42 -1z
" />
    <glyph glyph-name="IJ" unicode="&#x132;" horiz-adv-x="692" 
d="M199 350q0 -44 14.5 -56.5t68.5 -12.5q3 0 3 -6t-3 -6q-15 0 -55 1t-66 1q-24 0 -64.5 -1t-55.5 -1q-2 0 -2 6t2 6q53 0 68.5 12.5t15.5 56.5v194q0 43 -15.5 56t-68.5 13q-2 0 -2 6t2 6q15 0 55.5 -1.5t64.5 -1.5q26 0 67 1.5t54 1.5q3 0 3 -6t-3 -6q-52 0 -67.5 -13.5
t-15.5 -57.5v-192zM659 625q2 0 2 -6t-2 -6q-46 0 -59 -13.5t-13 -57.5v-284q0 -129 -66.5 -200t-177.5 -71q-94 0 -160.5 46.5t-66.5 100.5q0 18 10.5 29.5t28.5 11.5q17 0 27.5 -9.5t15 -24.5t8 -33.5t11 -37t20.5 -33.5t39 -24.5t63 -9.5q175 0 175 197v344q0 43 -18 56
t-78 13q-3 0 -3 6t3 6q18 0 62 -1.5t69 -1.5q24 0 60.5 1.5t49.5 1.5z" />
    <glyph glyph-name="ij" unicode="&#x133;" horiz-adv-x="527" 
d="M137 509q-22 0 -34.5 12t-12.5 34q0 20 12.5 32t34.5 12q21 0 33 -12t12 -32q0 -22 -12 -34t-33 -12zM398 509q-22 0 -34.5 12t-12.5 34q0 20 12.5 32t34.5 12q21 0 33 -12t12 -32q0 -22 -12 -34t-33 -12zM51 0q-3 0 -3 6t3 6q37 0 49 13.5t12 55.5v186q0 67 -32 67
q-17 0 -44 -14q-3 -1 -5 1.5t-2 6t2 4.5l133 62l4 1q3 0 6.5 -3t3.5 -6q0 -4 -0.5 -20.5t-1 -43t-0.5 -54.5v-187q0 -42 11.5 -55.5t49.5 -13.5q3 0 3 -6t-3 -6q-11 0 -42.5 1t-50.5 1q-20 0 -51 -1t-42 -1zM439 386q0 -4 -0.5 -20.5t-1 -43t-0.5 -54.5v-316
q0 -101 -32 -152.5t-115 -81.5q-2 -1 -4.5 4.5t-0.5 6.5q49 21 69 67t20 133v338q0 67 -31 67q-17 0 -44 -14q-3 -1 -5.5 1.5t-2.5 6t2 4.5l134 62q2 1 3 1q9 0 9 -9z" />
    <glyph glyph-name="Jcircumflex" unicode="&#x134;" horiz-adv-x="325" 
d="M51 701l103 101q4 4 11 4t12 -4l102 -101q2 -1 1.5 -3t-3 -3.5t-3.5 -0.5l-108 54l-109 -54q-1 0 -3 1t-3 3t0 3zM283 625q2 0 2 -6t-2 -6q-45 0 -58 -13.5t-13 -57.5v-566q0 -101 -47.5 -160t-136.5 -59q-35 0 -55.5 12t-20.5 33q0 16 10 26.5t27 10.5t29 -10t17 -21.5
t14.5 -21.5t22.5 -10q66 0 66 170v598q0 43 -18 56t-78 13q-2 0 -2 6t2 6q18 0 62 -1.5t70 -1.5q24 0 60 1.5t49 1.5z" />
    <glyph glyph-name="jcircumflex" unicode="&#x135;" horiz-adv-x="258" 
d="M208 476q1 -2 -2 -3q-7 -3 -8 1l-68 155l-69 -155q0 -2 -3 -2t-5.5 1.5t-2.5 2.5l68 249q1 5 11 5t12 -5zM170 386q0 -4 -0.5 -20.5t-1 -43t-0.5 -54.5v-316q0 -101 -32 -152.5t-115 -81.5q-2 -1 -4.5 4.5t-0.5 6.5q49 21 69 67t20 133v338q0 67 -31 67q-17 0 -44 -14
q-3 -1 -5.5 1.5t-2.5 6t2 4.5l134 62q2 1 3 1q9 0 9 -9z" />
    <glyph glyph-name="uni0136" unicode="&#x136;" horiz-adv-x="651" 
d="M645 12q3 0 3 -6t-3 -6h-112q-42 0 -48 2q-11 5 -42 47l-72 96l-149 189l-31 -30v-223q0 -44 14.5 -56.5t68.5 -12.5q3 0 3 -6t-3 -6q-15 0 -55 1t-65 1q-24 0 -64.5 -1t-55.5 -1q-2 0 -2 6t2 6q53 0 68.5 12.5t15.5 56.5v463q0 43 -15 56t-68 13q-2 0 -2 6t2 6
q15 0 55 -1.5t64 -1.5q25 0 65.5 1.5t54.5 1.5q2 0 2 -6t-2 -6q-52 0 -67.5 -13.5t-15.5 -57.5v-212l209 210q38 38 31.5 55.5t-58.5 17.5q-2 0 -2 6t2 6q14 0 51 -1.5t68 -1.5q30 0 64 1.5t46 1.5q3 0 3 -6t-3 -6q-99 0 -178 -79l-150 -149l144 -186l49.5 -63.5t40.5 -47.5
l30.5 -33t26 -21.5t20.5 -13t20 -6.5t18.5 -2h21.5zM339 -82q59 0 59 -75q0 -61 -64 -118q-5 -3 -9 3q-1 3 1 5q45 39 45 85q0 21 -7 31q-7 -17 -32 -17q-19 0 -30 11.5t-11 31.5q0 43 48 43z" />
    <glyph glyph-name="uni0137" unicode="&#x137;" horiz-adv-x="491" 
d="M486 12q2 0 2 -6t-2 -6q-11 0 -42.5 1t-50.5 1q-28 0 -66 -1t-51 -1q-2 0 -2 6t2 6q67 0 39 41l-122 163l-44 -35v-100q0 -42 12 -55.5t50 -13.5q3 0 3 -6t-3 -6q-11 0 -42.5 1t-50.5 1q-20 0 -51 -1t-42 -1q-3 0 -3 6t3 6q37 0 49 13.5t12 55.5v515q0 68 -31 68
q-14 0 -44 -14q-3 -1 -5.5 1.5t-2.5 6t2 4.5l129 62q3 1 5 1q3 0 6.5 -3t3.5 -6v-518l127 106q37 29 30 49.5t-53 20.5q-3 0 -3 6t3 6q14 0 49.5 -1t66.5 -1q28 0 61 1t44 1q2 0 2 -6t-2 -6q-87 0 -177 -74l-55 -44l130 -175q50 -69 114 -69zM242 -82q59 0 59 -75
q0 -61 -64 -118q-5 -3 -9 3q-1 3 1 5q45 39 45 85q0 21 -7 31q-7 -17 -32 -17q-19 0 -30 11.5t-11 31.5q0 43 48 43z" />
    <glyph glyph-name="kgreenlandic" unicode="&#x138;" horiz-adv-x="509" 
d="M503 12q3 0 3 -6t-3 -6q-11 0 -42 1t-51 1q-28 0 -66 -1t-50 -1q-3 0 -3 6t3 6q67 0 38 41l-121 164l-44 -36v-100q0 -42 11.5 -55.5t49.5 -13.5q3 0 3 -6t-3 -6q-10 0 -42 1t-51 1t-50.5 -1t-42.5 -1q-2 0 -2 6t2 6q38 0 50 13.5t12 55.5v196q0 63 -34 63q-16 0 -54 -15
q-2 -1 -4.5 1.5t-2.5 5.5t2 4l121 58q2 1 5 1q6 0 12.5 -9t12 -29t5.5 -46v-113l127 106q37 29 30 49.5t-53 20.5q-3 0 -3 6t3 6q13 0 49 -1t67 -1q28 0 60.5 1t43.5 1q3 0 3 -6t-3 -6q-86 0 -177 -74l-54 -44l129 -175q50 -69 114 -69z" />
    <glyph glyph-name="Lacute" unicode="&#x139;" horiz-adv-x="535" 
d="M62 679q-4 -2 -6 3t1 7q27 14 53.5 30.5l56 36.5t46.5 30q10 6 54 -15q22 -10 19 -14q0 -1 -2 -1q-108 -27 -222 -77zM190 543v-458q0 -40 13.5 -51.5t62.5 -11.5h96q60 0 98.5 36.5t50.5 99.5q0 2 2.5 2.5t5.5 -0.5t3 -3q-9 -86 -9 -142q0 -15 -15 -15h-464q-2 0 -2 6
t2 6q53 0 68 12.5t15 56.5v463q0 43 -15 56t-68 13q-2 0 -2 6t2 6q14 0 54.5 -1.5t64.5 -1.5q25 0 65.5 1.5t54.5 1.5q2 0 2 -6t-2 -6q-53 0 -68 -13.5t-15 -56.5z" />
    <glyph glyph-name="lacute" unicode="&#x13a;" horiz-adv-x="260" 
d="M30 728q-4 -2 -6 3t1 7q27 14 53.5 30.5l56 36.5t46.5 30q10 6 54 -15q22 -10 19 -14q0 -1 -2 -1q-108 -27 -222 -77zM39 0q-3 0 -3 6t3 6q37 0 49 13.5t12 55.5v515q0 36 -6.5 52t-23.5 16q-15 0 -45 -14q-2 -1 -4.5 1.5t-3 6t1.5 4.5l132 62q2 1 4 1q3 0 7 -3t4 -6
v-635q0 -42 11.5 -55.5t49.5 -13.5q3 0 3 -6t-3 -6q-11 0 -43 1t-51 1t-51 -1t-43 -1z" />
    <glyph glyph-name="uni013B" unicode="&#x13b;" horiz-adv-x="535" 
d="M511 158q0 2 2.5 2.5t5.5 -0.5t3 -3q-9 -86 -9 -142q0 -15 -15 -15h-464q-2 0 -2 6t2 6q53 0 68 12.5t15 56.5v463q0 43 -15 56t-68 13q-2 0 -2 6t2 6q14 0 54.5 -1.5t64.5 -1.5q25 0 65.5 1.5t54.5 1.5q2 0 2 -6t-2 -6q-53 0 -68 -13.5t-15 -56.5v-458q0 -40 13.5 -51.5
t62.5 -11.5h96q60 0 98.5 36.5t50.5 99.5zM290 -82q59 0 59 -75q0 -61 -64 -118q-5 -3 -9 3q-1 3 1 5q45 39 45 85q0 21 -7 31q-7 -17 -32 -17q-19 0 -30 11.5t-11 31.5q0 43 48 43z" />
    <glyph glyph-name="uni013C" unicode="&#x13c;" horiz-adv-x="260" 
d="M227 12q3 0 3 -6t-3 -6q-11 0 -43 1t-51 1t-51 -1t-43 -1q-3 0 -3 6t3 6q37 0 49 13.5t12 55.5v515q0 36 -6.5 52t-23.5 16q-15 0 -45 -14q-2 -1 -4.5 1.5t-3 6t1.5 4.5l132 62q2 1 4 1q3 0 7 -3t4 -6v-635q0 -42 11.5 -55.5t49.5 -13.5zM127 -82q59 0 59 -75
q0 -61 -64 -118q-5 -3 -9 3q-1 3 1 5q45 39 45 85q0 21 -7 31q-7 -17 -32 -17q-19 0 -30 11.5t-11 31.5q0 43 48 43z" />
    <glyph glyph-name="Lcaron" unicode="&#x13d;" horiz-adv-x="535" 
d="M353 625q0 5 14.5 -0.5t28.5 -15.5t13 -15l-37 -242q-1 -2 -6 -1.5t-5 2.5zM190 543v-458q0 -40 13.5 -51.5t62.5 -11.5h96q60 0 98.5 36.5t50.5 99.5q0 2 2.5 2.5t5.5 -0.5t3 -3q-9 -86 -9 -142q0 -15 -15 -15h-464q-2 0 -2 6t2 6q53 0 68 12.5t15 56.5v463q0 43 -15 56
t-68 13q-2 0 -2 6t2 6q14 0 54.5 -1.5t64.5 -1.5q25 0 65.5 1.5t54.5 1.5q2 0 2 -6t-2 -6q-53 0 -68 -13.5t-15 -56.5z" />
    <glyph glyph-name="lcaron" unicode="&#x13e;" horiz-adv-x="260" 
d="M233 725q0 5 14.5 -0.5t28.5 -15.5t13 -15l-37 -242q-1 -2 -6 -1.5t-5 2.5zM39 0q-3 0 -3 6t3 6q37 0 49 13.5t12 55.5v515q0 36 -6.5 52t-23.5 16q-15 0 -45 -14q-2 -1 -4.5 1.5t-3 6t1.5 4.5l132 62q2 1 4 1q3 0 7 -3t4 -6v-635q0 -42 11.5 -55.5t49.5 -13.5q3 0 3 -6
t-3 -6q-11 0 -43 1t-51 1t-51 -1t-43 -1z" />
    <glyph glyph-name="Ldot" unicode="&#x13f;" horiz-adv-x="535" 
d="M190 543v-458q0 -40 13.5 -51.5t62.5 -11.5h96q60 0 98.5 36.5t50.5 99.5q0 2 2.5 2.5t5.5 -0.5t3 -3q-9 -86 -9 -142q0 -15 -15 -15h-464q-2 0 -2 6t2 6q53 0 68 12.5t15 56.5v463q0 43 -15 56t-68 13q-2 0 -2 6t2 6q14 0 54.5 -1.5t64.5 -1.5q25 0 65.5 1.5t54.5 1.5
q2 0 2 -6t-2 -6q-53 0 -68 -13.5t-15 -56.5zM428 274q-21 0 -34 12.5t-13 34.5q0 20 13 32t34 12q46 0 46 -44q0 -47 -46 -47z" />
    <glyph glyph-name="ldot" unicode="&#x140;" horiz-adv-x="258" 
d="M39 0q-3 0 -3 6t3 6q37 0 49 13.5t12 55.5v515q0 36 -6.5 52t-23.5 16q-15 0 -45 -14q-2 -1 -4.5 1.5t-3 6t1.5 4.5l132 62q2 1 4 1q3 0 7 -3t4 -6v-635q0 -42 11.5 -55.5t49.5 -13.5q3 0 3 -6t-3 -6q-11 0 -43 1t-51 1t-51 -1t-43 -1zM256 287q-21 0 -34 12.5t-13 34.5
q0 20 13 32t34 12q46 0 46 -44q0 -47 -46 -47z" />
    <glyph glyph-name="Lslash" unicode="&#x141;" horiz-adv-x="527" 
d="M511 158q0 2 2.5 2.5t5.5 -0.5t3 -3q-9 -86 -9 -142q0 -15 -15 -15h-464q-2 0 -2 6t2 6q53 0 68 12.5t15 56.5v180l-52 -30q-2 -1 -6 3.5t-5 9t0 6.5l63 37v257q0 43 -15 56t-68 13q-2 0 -2 6t2 6q14 0 54.5 -1.5t64.5 -1.5q25 0 65.5 1.5t54.5 1.5q2 0 2 -6t-2 -6
q-53 0 -68 -13.5t-15 -56.5v-214l107 62q2 1 6 -3.5t5.5 -9t-0.5 -6.5l-118 -68v-219q0 -40 13.5 -51.5t62.5 -11.5h96q60 0 98.5 36.5t50.5 99.5z" />
    <glyph glyph-name="lslash" unicode="&#x142;" horiz-adv-x="264" 
d="M224 418q5 2 11.5 -8.5t1.5 -13.5l-67 -39v-276q0 -42 11.5 -55.5t49.5 -13.5q3 0 3 -6t-3 -6q-11 0 -43 1t-51 1t-51 -1t-43 -1q-3 0 -3 6t3 6q37 0 49 13.5t12 55.5v237l-55 -32q-3 -2 -7 3t-5.5 10.5t0.5 7.5l67 40v249q0 36 -6.5 52t-23.5 16q-15 0 -45 -14
q-2 -1 -4.5 1.5t-3 6t1.5 4.5l132 62q2 1 4 1q3 0 7 -3t4 -6v-330z" />
    <glyph glyph-name="Nacute" unicode="&#x143;" horiz-adv-x="728" 
d="M280 679q-4 -2 -6 3t1 7q27 14 53.5 30.5l56 36.5t46.5 30q10 6 54 -15q22 -10 19 -14q0 -1 -2 -1q-108 -27 -222 -77zM707 625q3 0 3 -6t-3 -6q-80 0 -80 -101v-524q0 -3 -5 -4t-7 1l-466 558q-2 2 -3 4v-435q0 -52 19 -76t59 -24q3 0 3 -6t-3 -6q-12 0 -41 1t-48 1
q-18 0 -50.5 -1t-45.5 -1q-2 0 -2 6t2 6q43 0 62.5 24t19.5 76v461q-41 40 -83 40q-3 0 -3 6t3 6q12 0 36.5 -1t34.5 -1q17 0 40 1t28 1q8 0 12 -4t14 -19t21 -29l378 -458v397q0 52 -18 76.5t-59 24.5q-2 0 -2 6t2 6q13 0 42 -1.5t48 -1.5q17 0 48.5 1.5t43.5 1.5z" />
    <glyph glyph-name="nacute" unicode="&#x144;" horiz-adv-x="519" 
d="M270 474q0 -2 -3 -2t-5.5 1.5t-2.5 2.5l49 240q2 8 45 14q24 3 22 -3zM498 12q3 0 3 -6t-3 -6q-11 0 -42.5 1t-50.5 1t-50 -1t-42 -1q-3 0 -3 6t3 6q37 0 48.5 13.5t11.5 55.5v159q0 58 -21.5 85.5t-68.5 27.5q-63 0 -115 -57v-215q0 -42 11.5 -55.5t49.5 -13.5q3 0 3 -6
t-3 -6q-11 0 -42.5 1t-50.5 1t-50 -1t-42 -1q-3 0 -3 6t3 6q37 0 48.5 13.5t11.5 55.5v196q0 63 -34 63q-15 0 -53 -15q-3 -1 -5 1.5t-2 5.5t2 4l120 58q3 1 6 1q6 0 12.5 -9t12 -28.5t5.5 -44.5q73 86 153 86q55 0 85.5 -32t30.5 -91v-195q0 -42 11.5 -55.5t49.5 -13.5z
" />
    <glyph glyph-name="uni0145" unicode="&#x145;" horiz-adv-x="728" 
d="M707 625q3 0 3 -6t-3 -6q-80 0 -80 -101v-524q0 -3 -5 -4t-7 1l-466 558q-2 2 -3 4v-435q0 -52 19 -76t59 -24q3 0 3 -6t-3 -6q-12 0 -41 1t-48 1q-18 0 -50.5 -1t-45.5 -1q-2 0 -2 6t2 6q43 0 62.5 24t19.5 76v461q-41 40 -83 40q-3 0 -3 6t3 6q12 0 36.5 -1t34.5 -1
q17 0 40 1t28 1q8 0 12 -4t14 -19t21 -29l378 -458v397q0 52 -18 76.5t-59 24.5q-2 0 -2 6t2 6q13 0 42 -1.5t48 -1.5q17 0 48.5 1.5t43.5 1.5zM368 -82q59 0 59 -75q0 -61 -64 -118q-5 -3 -9 3q-1 3 1 5q45 39 45 85q0 21 -7 31q-7 -17 -32 -17q-19 0 -30 11.5t-11 31.5
q0 43 48 43z" />
    <glyph glyph-name="uni0146" unicode="&#x146;" horiz-adv-x="519" 
d="M498 12q3 0 3 -6t-3 -6q-11 0 -42.5 1t-50.5 1t-50 -1t-42 -1q-3 0 -3 6t3 6q37 0 48.5 13.5t11.5 55.5v159q0 58 -21.5 85.5t-68.5 27.5q-63 0 -115 -57v-215q0 -42 11.5 -55.5t49.5 -13.5q3 0 3 -6t-3 -6q-11 0 -42.5 1t-50.5 1t-50 -1t-42 -1q-3 0 -3 6t3 6
q37 0 48.5 13.5t11.5 55.5v196q0 63 -34 63q-15 0 -53 -15q-3 -1 -5 1.5t-2 5.5t2 4l120 58q3 1 6 1q6 0 12.5 -9t12 -28.5t5.5 -44.5q73 86 153 86q55 0 85.5 -32t30.5 -91v-195q0 -42 11.5 -55.5t49.5 -13.5zM253 -82q59 0 59 -75q0 -61 -64 -118q-5 -3 -9 3q-1 3 1 5
q45 39 45 85q0 21 -7 31q-7 -17 -32 -17q-19 0 -30 11.5t-11 31.5q0 43 48 43z" />
    <glyph glyph-name="Ncaron" unicode="&#x147;" horiz-adv-x="728" 
d="M365 687l-103 100q-2 2 1 5t5 2l109 -54l108 55q3 1 6 -3q1 -3 -1 -4l-102 -101q-12 -11 -23 0zM707 625q3 0 3 -6t-3 -6q-80 0 -80 -101v-524q0 -3 -5 -4t-7 1l-466 558q-2 2 -3 4v-435q0 -52 19 -76t59 -24q3 0 3 -6t-3 -6q-12 0 -41 1t-48 1q-18 0 -50.5 -1t-45.5 -1
q-2 0 -2 6t2 6q43 0 62.5 24t19.5 76v461q-41 40 -83 40q-3 0 -3 6t3 6q12 0 36.5 -1t34.5 -1q17 0 40 1t28 1q8 0 12 -4t14 -19t21 -29l378 -458v397q0 52 -18 76.5t-59 24.5q-2 0 -2 6t2 6q13 0 42 -1.5t48 -1.5q17 0 48.5 1.5t43.5 1.5z" />
    <glyph glyph-name="ncaron" unicode="&#x148;" horiz-adv-x="519" 
d="M260 477l-68 249q0 2 2.5 3.5t5.5 1t3 -1.5l69 -155l68 155q0 1 3 1.5t5.5 -1t1.5 -3.5l-67 -249q-1 -5 -11 -5t-12 5zM498 12q3 0 3 -6t-3 -6q-11 0 -42.5 1t-50.5 1t-50 -1t-42 -1q-3 0 -3 6t3 6q37 0 48.5 13.5t11.5 55.5v159q0 58 -21.5 85.5t-68.5 27.5
q-63 0 -115 -57v-215q0 -42 11.5 -55.5t49.5 -13.5q3 0 3 -6t-3 -6q-11 0 -42.5 1t-50.5 1t-50 -1t-42 -1q-3 0 -3 6t3 6q37 0 48.5 13.5t11.5 55.5v196q0 63 -34 63q-15 0 -53 -15q-3 -1 -5 1.5t-2 5.5t2 4l120 58q3 1 6 1q6 0 12.5 -9t12 -28.5t5.5 -44.5q73 86 153 86
q55 0 85.5 -32t30.5 -91v-195q0 -42 11.5 -55.5t49.5 -13.5z" />
    <glyph glyph-name="napostrophe" unicode="&#x149;" horiz-adv-x="519" 
d="M81 558q-20 0 -31.5 11.5t-11.5 30.5q0 43 50 43q31 0 48.5 -22.5t17.5 -66.5q0 -87 -80 -170q-4 -3 -7 0t-1 7q40 53 40 124q0 28 -8 46q-7 -3 -17 -3zM498 12q3 0 3 -6t-3 -6q-11 0 -42.5 1t-50.5 1t-50 -1t-42 -1q-3 0 -3 6t3 6q37 0 48.5 13.5t11.5 55.5v159
q0 58 -21.5 85.5t-68.5 27.5q-63 0 -115 -57v-215q0 -42 11.5 -55.5t49.5 -13.5q3 0 3 -6t-3 -6q-11 0 -42.5 1t-50.5 1t-50 -1t-42 -1q-3 0 -3 6t3 6q37 0 48.5 13.5t11.5 55.5v196q0 63 -34 63q-15 0 -53 -15q-3 -1 -5 1.5t-2 5.5t2 4l120 58q3 1 6 1q6 0 12.5 -9
t12 -28.5t5.5 -44.5q73 86 153 86q55 0 85.5 -32t30.5 -91v-195q0 -42 11.5 -55.5t49.5 -13.5z" />
    <glyph glyph-name="Eng" unicode="&#x14a;" horiz-adv-x="728" 
d="M707 625q3 0 3 -6t-3 -6q-80 0 -80 -101v-524q0 -86 -33.5 -132.5t-95.5 -46.5q-38 0 -62 16.5t-24 41.5q0 18 10 29t26 11q18 0 27.5 -12t11.5 -26.5t10.5 -26.5t25.5 -12q38 0 59 42.5t21 112.5v14l-454 544q-2 2 -3 4v-435q0 -52 19 -76t59 -24q3 0 3 -6t-3 -6
q-12 0 -41 1t-48 1q-18 0 -50.5 -1t-45.5 -1q-2 0 -2 6t2 6q43 0 63 24t20 76v460q-42 41 -84 41q-3 0 -3 6t3 6q12 0 36.5 -1t34.5 -1q17 0 40 1t28 1q8 0 12 -4t14 -19t21 -29l379 -460v399q0 52 -18.5 76.5t-59.5 24.5q-2 0 -2 6t2 6q13 0 42 -1.5t48 -1.5q17 0 48.5 1.5
t43.5 1.5z" />
    <glyph glyph-name="eng" unicode="&#x14b;" horiz-adv-x="505" 
d="M320 399q56 0 86 -32t30 -91v-324q0 -100 -32 -149t-115 -80q-3 -1 -5 4t0 7q49 21 69 65t20 130v311q0 58 -21.5 85.5t-68.5 27.5q-64 0 -116 -57v-215q0 -42 11.5 -55.5t49.5 -13.5q3 0 3 -6t-3 -6q-10 0 -42 1t-51 1t-50.5 -1t-42.5 -1q-2 0 -2 6t2 6q38 0 50 13.5
t12 55.5v196q0 63 -34 63q-16 0 -54 -15q-2 -1 -4.5 1.5t-2.5 5.5t2 4l121 58q2 1 5 1q6 0 12.5 -9t12 -28t5.5 -44q72 85 153 85z" />
    <glyph glyph-name="Omacron" unicode="&#x14c;" horiz-adv-x="766" 
d="M259 720q-7 0 -7 15t7 15h251q7 0 7 -15t-7 -15h-251zM366 -12q-141 0 -229 94t-88 230q0 78 32 141.5t83.5 102.5t112.5 59.5t124 20.5q142 0 229 -95t87 -222q0 -138 -103.5 -234.5t-247.5 -96.5zM401 10q101 0 166.5 74.5t65.5 206.5q0 142 -75 231.5t-198 89.5
q-107 0 -167 -70.5t-60 -194.5q0 -144 75 -240.5t193 -96.5z" />
    <glyph glyph-name="omacron" unicode="&#x14d;" horiz-adv-x="481" 
d="M115 481q-7 0 -7 15t7 15h251q7 0 7 -15t-7 -15h-251zM232 -13q-88 0 -142.5 61.5t-54.5 149.5q0 96 66 148.5t149 52.5q88 0 142 -61.5t54 -144.5q0 -92 -62.5 -149t-151.5 -57zM261 6q109 0 109 158q0 96 -43.5 155.5t-109.5 59.5q-51 0 -79 -38t-28 -111
q0 -95 42.5 -159.5t108.5 -64.5z" />
    <glyph glyph-name="Obreve" unicode="&#x14e;" horiz-adv-x="766" 
d="M385 690q-90 0 -103 111q0 2 2.5 3t5.5 0.5t3 -1.5q5 -26 32 -45t60 -19t59.5 19t31.5 45q0 1 3 1.5t5.5 -0.5t2.5 -3q-13 -111 -102 -111zM366 -12q-141 0 -229 94t-88 230q0 78 32 141.5t83.5 102.5t112.5 59.5t124 20.5q142 0 229 -95t87 -222q0 -138 -103.5 -234.5
t-247.5 -96.5zM401 10q101 0 166.5 74.5t65.5 206.5q0 142 -75 231.5t-198 89.5q-107 0 -167 -70.5t-60 -194.5q0 -144 75 -240.5t193 -96.5z" />
    <glyph glyph-name="obreve" unicode="&#x14f;" horiz-adv-x="481" 
d="M138 624q0 2 3 3t5.5 0.5t2.5 -1.5q0 -42 26.5 -70.5t65.5 -28.5q38 0 64.5 29t26.5 70q0 1 3 1.5t5.5 -0.5t2.5 -3q0 -153 -102 -153q-103 0 -103 153zM232 -13q-88 0 -142.5 61.5t-54.5 149.5q0 96 66 148.5t149 52.5q88 0 142 -61.5t54 -144.5q0 -92 -62.5 -149
t-151.5 -57zM261 6q109 0 109 158q0 96 -43.5 155.5t-109.5 59.5q-51 0 -79 -38t-28 -111q0 -95 42.5 -159.5t108.5 -64.5z" />
    <glyph glyph-name="Ohungarumlaut" unicode="&#x150;" horiz-adv-x="766" 
d="M280 675q-4 -2 -6 3t0 7q40 41 90 101q5 8 49 -9q23 -9 22 -14q0 -2 -2 -3q-75 -33 -153 -85zM409 675q-4 -2 -6 3t0 7q40 41 90 101q5 8 47 -9q24 -10 22 -15q0 -1 -2 -2q-69 -30 -151 -85zM366 -12q-141 0 -229 94t-88 230q0 78 32 141.5t83.5 102.5t112.5 59.5
t124 20.5q142 0 229 -95t87 -222q0 -138 -103.5 -234.5t-247.5 -96.5zM401 10q101 0 166.5 74.5t65.5 206.5q0 142 -75 231.5t-198 89.5q-107 0 -167 -70.5t-60 -194.5q0 -144 75 -240.5t193 -96.5z" />
    <glyph glyph-name="ohungarumlaut" unicode="&#x151;" horiz-adv-x="481" 
d="M148 455q-4 -1 -6.5 3.5t0.5 7.5q19 19 51 59.5t35 43.5q7 7 53 -9q23 -8 22 -13q0 -1 -2 -2q-57 -23 -153 -90zM273 455q-4 -1 -6.5 3.5t0.5 7.5q19 19 51 59.5t35 43.5q7 7 52 -9q23 -10 21 -15q-58 -24 -153 -90zM232 -13q-88 0 -142.5 61.5t-54.5 149.5
q0 96 66 148.5t149 52.5q88 0 142 -61.5t54 -144.5q0 -92 -62.5 -149t-151.5 -57zM261 6q109 0 109 158q0 96 -43.5 155.5t-109.5 59.5q-51 0 -79 -38t-28 -111q0 -95 42.5 -159.5t108.5 -64.5z" />
    <glyph glyph-name="OE" unicode="&#x152;" horiz-adv-x="918" 
d="M857 150q0 2 2.5 2.5t5.5 -0.5t3 -3q-9 -81 -9 -134q0 -15 -15 -15h-301q-22 0 -70.5 -2t-71.5 -2q-155 0 -253.5 87t-98.5 218q0 146 100.5 236t245.5 90q20 0 71.5 -1t75.5 -1h284q10 0 10 -9l2 -125q0 -3 -5.5 -3t-6.5 3q-3 45 -35 78.5t-78 33.5h-60q-46 0 -61 -12
t-15 -48v-207h115q50 0 72.5 17t22.5 55q0 2 5.5 2t5.5 -2q0 -22 -0.5 -47t-0.5 -36q0 -15 1 -45.5t1 -48.5q0 -2 -5.5 -2t-5.5 2q0 44 -23.5 63.5t-75.5 19.5h-112v-229q0 -37 14 -50t58 -13h76q46 0 83.5 36.5t48.5 91.5zM504 82v453q0 43 -20 59.5t-79 16.5
q-122 0 -197 -76t-75 -212q0 -133 73 -222t193 -89q62 0 83.5 13t21.5 57z" />
    <glyph glyph-name="oe" unicode="&#x153;" horiz-adv-x="694" 
d="M658 58q2 2 5.5 -2.5t1.5 -7.5q-68 -60 -148 -60q-110 0 -158 78q-54 -79 -148 -79q-83 0 -135 62t-52 149q0 96 63.5 148.5t141.5 52.5q103 0 147 -91q65 87 169 87q116 0 116 -117q0 -24 -11 -24l-248 -1q-3 -21 -3 -46q0 -84 42 -132.5t112 -48.5q65 0 105 32zM238 5
q43 0 68.5 43t25.5 122q0 95 -37.5 152.5t-97.5 57.5q-47 0 -74 -39.5t-27 -113.5q0 -92 41 -157t101 -65zM511 375q-40 0 -67.5 -28.5t-38.5 -79.5l180 4q3 104 -74 104z" />
    <glyph glyph-name="Racute" unicode="&#x154;" horiz-adv-x="678" 
d="M179 678q-4 -1 -6 4t1 7q35 18 90 53.5l66 42.5q10 7 56 -15q19 -9 18 -13q-1 -1 -3 -1q-118 -30 -222 -78zM687 12q3 0 3 -6t-3 -6h-137q-50 0 -253 309q-27 -5 -50 -5q-5 0 -47 3v-226q0 -44 14.5 -56.5t68.5 -12.5q3 0 3 -6t-3 -6q-15 0 -55 1t-65 1q-24 0 -64.5 -1
t-55.5 -1q-2 0 -2 6t2 6q53 0 68.5 12.5t15.5 56.5v463q0 43 -15 56t-67 13q-3 0 -3 6t3 6q14 0 54 -1.5t64 -1.5q21 0 71.5 3t70.5 3q80 0 124.5 -35.5t44.5 -95.5q0 -54 -31.5 -98t-83.5 -69q124 -179 195 -248.5t133 -69.5zM200 331q29 -3 59 -3q75 0 107 33.5t32 104.5
q0 79 -33 112.5t-95 33.5q-39 0 -54.5 -14.5t-15.5 -55.5v-211z" />
    <glyph glyph-name="racute" unicode="&#x155;" horiz-adv-x="367" 
d="M186 474q0 -2 -3 -2t-5.5 1.5t-2.5 2.5l49 240q2 8 45 14q24 3 22 -3zM279 395q22 0 42.5 -13t20.5 -31q0 -14 -9.5 -23.5t-25.5 -9.5q-15 0 -33.5 16t-35.5 16q-13 0 -26.5 -10t-43.5 -44v-215q0 -42 18 -55.5t78 -13.5q3 0 3 -6t-3 -6q-15 0 -58.5 1t-69.5 1
q-19 0 -50 -1t-42 -1q-3 0 -3 6t3 6q37 0 48.5 13.5t11.5 55.5v196q0 63 -34 63q-15 0 -53 -15q-3 -1 -5 1.5t-2 5.5t2 4l120 58q3 1 6 1q6 0 12.5 -9t12 -28t5.5 -44q41 47 65 64t46 17z" />
    <glyph glyph-name="uni0156" unicode="&#x156;" horiz-adv-x="678" 
d="M687 12q3 0 3 -6t-3 -6h-137q-50 0 -253 309q-27 -5 -50 -5q-5 0 -47 3v-226q0 -44 14.5 -56.5t68.5 -12.5q3 0 3 -6t-3 -6q-15 0 -55 1t-65 1q-24 0 -64.5 -1t-55.5 -1q-2 0 -2 6t2 6q53 0 68.5 12.5t15.5 56.5v463q0 43 -15 56t-67 13q-3 0 -3 6t3 6q14 0 54 -1.5
t64 -1.5q21 0 71.5 3t70.5 3q80 0 124.5 -35.5t44.5 -95.5q0 -54 -31.5 -98t-83.5 -69q124 -179 195 -248.5t133 -69.5zM200 331q29 -3 59 -3q75 0 107 33.5t32 104.5q0 79 -33 112.5t-95 33.5q-39 0 -54.5 -14.5t-15.5 -55.5v-211zM336 -82q59 0 59 -75q0 -61 -64 -118
q-5 -3 -9 3q-1 3 1 5q45 39 45 85q0 21 -7 31q-7 -17 -32 -17q-19 0 -30 11.5t-11 31.5q0 43 48 43z" />
    <glyph glyph-name="uni0157" unicode="&#x157;" horiz-adv-x="367" 
d="M279 395q22 0 42.5 -13t20.5 -31q0 -14 -9.5 -23.5t-25.5 -9.5q-15 0 -33.5 16t-35.5 16q-13 0 -26.5 -10t-43.5 -44v-215q0 -42 18 -55.5t78 -13.5q3 0 3 -6t-3 -6q-15 0 -58.5 1t-69.5 1q-19 0 -50 -1t-42 -1q-3 0 -3 6t3 6q37 0 48.5 13.5t11.5 55.5v196q0 63 -34 63
q-15 0 -53 -15q-3 -1 -5 1.5t-2 5.5t2 4l120 58q3 1 6 1q6 0 12.5 -9t12 -28t5.5 -44q41 47 65 64t46 17zM148 -82q59 0 59 -75q0 -61 -64 -118q-5 -3 -9 3q-1 3 1 5q45 39 45 85q0 21 -7 31q-7 -17 -32 -17q-19 0 -30 11.5t-11 31.5q0 43 48 43z" />
    <glyph glyph-name="Rcaron" unicode="&#x158;" horiz-adv-x="678" 
d="M264 687l-103 100q-2 2 1 5t5 2l109 -54l108 55q3 1 6 -3q1 -3 -1 -4l-102 -101q-11 -11 -23 0zM687 12q3 0 3 -6t-3 -6h-137q-50 0 -253 309q-27 -5 -50 -5q-5 0 -47 3v-226q0 -44 14.5 -56.5t68.5 -12.5q3 0 3 -6t-3 -6q-15 0 -55 1t-65 1q-24 0 -64.5 -1t-55.5 -1
q-2 0 -2 6t2 6q53 0 68.5 12.5t15.5 56.5v463q0 43 -15 56t-67 13q-3 0 -3 6t3 6q14 0 54 -1.5t64 -1.5q21 0 71.5 3t70.5 3q80 0 124.5 -35.5t44.5 -95.5q0 -54 -31.5 -98t-83.5 -69q124 -179 195 -248.5t133 -69.5zM200 331q29 -3 59 -3q75 0 107 33.5t32 104.5
q0 79 -33 112.5t-95 33.5q-39 0 -54.5 -14.5t-15.5 -55.5v-211z" />
    <glyph glyph-name="rcaron" unicode="&#x159;" horiz-adv-x="367" 
d="M176 477l-68 249q0 2 2.5 3.5t5.5 1t3 -1.5l69 -155l68 155q0 1 3 1.5t5.5 -1t1.5 -3.5l-67 -249q-1 -5 -11 -5t-12 5zM279 395q22 0 42.5 -13t20.5 -31q0 -14 -9.5 -23.5t-25.5 -9.5q-15 0 -33.5 16t-35.5 16q-13 0 -26.5 -10t-43.5 -44v-215q0 -42 18 -55.5t78 -13.5
q3 0 3 -6t-3 -6q-15 0 -58.5 1t-69.5 1q-19 0 -50 -1t-42 -1q-3 0 -3 6t3 6q37 0 48.5 13.5t11.5 55.5v196q0 63 -34 63q-15 0 -53 -15q-3 -1 -5 1.5t-2 5.5t2 4l120 58q3 1 6 1q6 0 12.5 -9t12 -28t5.5 -44q41 47 65 64t46 17z" />
    <glyph glyph-name="Sacute" unicode="&#x15a;" horiz-adv-x="495" 
d="M161 679q-4 -2 -6 3t1 7q27 14 53.5 30.5l56 36.5t46.5 30q10 6 54 -15q22 -10 19 -14q0 -1 -2 -1q-108 -27 -222 -77zM150 511q0 -29 10.5 -53t35 -45.5t41.5 -33t54 -33.5q39 -24 56 -36t44 -36.5t38.5 -52t11.5 -61.5q0 -75 -55.5 -123.5t-151.5 -48.5q-81 0 -144 36
q-9 5 -10 19l-11 140q-1 4 4.5 5t6.5 -3q9 -34 22.5 -63t34.5 -56.5t52 -43.5t68 -16q49 0 82 26t33 85q0 34 -11 61.5t-36 51t-43.5 36.5t-55.5 35q-37 23 -53 34.5t-41.5 35t-36 49.5t-10.5 59q0 75 57 116t134 41q62 0 119 -23q15 -7 15 -18l6 -120q0 -4 -5.5 -5t-6.5 3
q-4 22 -13 44.5t-25.5 47t-44.5 40t-63 15.5q-53 0 -80.5 -31t-27.5 -78z" />
    <glyph glyph-name="sacute" unicode="&#x15b;" horiz-adv-x="338" 
d="M170 474q0 -2 -3 -2t-5.5 1.5t-2.5 2.5l49 240q2 8 45 14q24 3 22 -3zM104 328q0 -18 6.5 -33t21.5 -27.5t26.5 -19.5t33.5 -19q27 -14 38.5 -21t30 -22t26.5 -33t8 -41q0 -51 -38 -87t-105 -36q-53 0 -97 30q-6 4 -6 12l-2 81q0 3 5.5 3.5t6.5 -2.5q38 -105 122 -105
q64 0 61 61q0 20 -7 35.5t-22.5 28t-27 19.5t-33.5 18q-26 13 -37.5 20t-29 21.5t-25 32.5t-7.5 42q0 55 40.5 83.5t97.5 28.5q40 0 75 -15q9 -4 9 -11q0 -10 -1 -35.5t-1 -40.5q0 -2 -6 -2t-6 2q0 31 -33.5 56.5t-71.5 25.5q-52 0 -52 -50z" />
    <glyph glyph-name="Scircumflex" unicode="&#x15c;" horiz-adv-x="495" 
d="M144 694l103 101q11 11 23 0l102 -101q2 -1 1.5 -3t-3 -3.5t-3.5 -0.5l-108 54l-109 -54q-1 0 -3 1t-3 3t0 3zM150 511q0 -29 10.5 -53t35 -45.5t41.5 -33t54 -33.5q39 -24 56 -36t44 -36.5t38.5 -52t11.5 -61.5q0 -75 -55.5 -123.5t-151.5 -48.5q-81 0 -144 36
q-9 5 -10 19l-11 140q-1 4 4.5 5t6.5 -3q9 -34 22.5 -63t34.5 -56.5t52 -43.5t68 -16q49 0 82 26t33 85q0 34 -11 61.5t-36 51t-43.5 36.5t-55.5 35q-37 23 -53 34.5t-41.5 35t-36 49.5t-10.5 59q0 75 57 116t134 41q62 0 119 -23q15 -7 15 -18l6 -120q0 -4 -5.5 -5t-6.5 3
q-4 22 -13 44.5t-25.5 47t-44.5 40t-63 15.5q-53 0 -80.5 -31t-27.5 -78z" />
    <glyph glyph-name="scircumflex" unicode="&#x15d;" horiz-adv-x="338" 
d="M251 476q1 -2 -2 -3q-7 -3 -8 1l-68 155l-69 -155q0 -2 -3 -2t-5.5 1.5t-2.5 2.5l68 249q1 5 11 5t12 -5zM104 328q0 -18 6.5 -33t21.5 -27.5t26.5 -19.5t33.5 -19q27 -14 38.5 -21t30 -22t26.5 -33t8 -41q0 -51 -38 -87t-105 -36q-53 0 -97 30q-6 4 -6 12l-2 81
q0 3 5.5 3.5t6.5 -2.5q38 -105 122 -105q64 0 61 61q0 20 -7 35.5t-22.5 28t-27 19.5t-33.5 18q-26 13 -37.5 20t-29 21.5t-25 32.5t-7.5 42q0 55 40.5 83.5t97.5 28.5q40 0 75 -15q9 -4 9 -11q0 -10 -1 -35.5t-1 -40.5q0 -2 -6 -2t-6 2q0 31 -33.5 56.5t-71.5 25.5
q-52 0 -52 -50z" />
    <glyph glyph-name="Scedilla" unicode="&#x15e;" horiz-adv-x="495" 
d="M441 160q0 -68 -47.5 -115.5t-130.5 -55.5q-11 -44 -5.5 -56.5t40.5 -32.5q54 -31 54 -77q0 -38 -27 -68t-80 -30q-66 0 -66 40q0 13 9 22t23 9q13 0 21 -8t10.5 -17t11.5 -17t24 -8q32 0 32 35q0 26 -18.5 46.5t-66.5 46.5q-13 7 -14 11.5t6 18.5q14 34 32 84h-15
q-81 0 -144 36q-9 5 -10 19l-11 140q-1 4 4.5 5t6.5 -3q9 -34 22.5 -63t34.5 -56.5t52 -43.5t68 -16q49 0 82 26t33 85q0 34 -11 61.5t-36 51t-43.5 36.5t-55.5 35q-37 23 -53 34.5t-41.5 35t-36 49.5t-10.5 59q0 75 57 116t134 41q62 0 119 -23q15 -7 15 -18l6 -120
q0 -4 -5.5 -5t-6.5 3q-4 22 -13 44.5t-25.5 47t-44.5 40t-63 15.5q-53 0 -80.5 -31t-27.5 -78q0 -29 10.5 -53t35 -45.5t41.5 -33t54 -33.5q39 -24 56 -36t44 -36.5t38.5 -52t11.5 -61.5z" />
    <glyph glyph-name="scedilla" unicode="&#x15f;" horiz-adv-x="338" 
d="M295 112q0 -47 -32.5 -81.5t-90.5 -40.5q-12 -44 -6.5 -57t40.5 -33q54 -31 54 -77q0 -38 -27 -68t-80 -30q-66 0 -66 40q0 13 9 22t23 9q13 0 21 -8t10.5 -17t11.5 -17t24 -8q32 0 32 35q0 26 -18.5 46.5t-66.5 46.5q-13 7 -14 11.5t6 18.5q14 35 32 85h-5q-53 0 -97 30
q-6 4 -6 12l-2 81q0 3 5.5 3.5t6.5 -2.5q38 -105 122 -105q64 0 61 61q0 20 -7 35.5t-22.5 28t-27 19.5t-33.5 18q-26 13 -37.5 20t-29 21.5t-25 32.5t-7.5 42q0 55 40.5 83.5t97.5 28.5q40 0 75 -15q9 -4 9 -11q0 -10 -1 -35.5t-1 -40.5q0 -2 -6 -2t-6 2q0 31 -33.5 56.5
t-71.5 25.5q-52 0 -52 -50q0 -18 6.5 -33t21.5 -27.5t26.5 -19.5t33.5 -19q27 -14 38.5 -21t30 -22t26.5 -33t8 -41z" />
    <glyph glyph-name="Scaron" unicode="&#x160;" horiz-adv-x="495" 
d="M246 687l-103 100q-2 2 1 5t5 2l109 -54l108 55q3 1 6 -3q1 -3 -1 -4l-102 -101q-11 -11 -23 0zM150 511q0 -29 10.5 -53t35 -45.5t41.5 -33t54 -33.5q39 -24 56 -36t44 -36.5t38.5 -52t11.5 -61.5q0 -75 -55.5 -123.5t-151.5 -48.5q-81 0 -144 36q-9 5 -10 19l-11 140
q-1 4 4.5 5t6.5 -3q9 -34 22.5 -63t34.5 -56.5t52 -43.5t68 -16q49 0 82 26t33 85q0 34 -11 61.5t-36 51t-43.5 36.5t-55.5 35q-37 23 -53 34.5t-41.5 35t-36 49.5t-10.5 59q0 75 57 116t134 41q62 0 119 -23q15 -7 15 -18l6 -120q0 -4 -5.5 -5t-6.5 3q-4 22 -13 44.5
t-25.5 47t-44.5 40t-63 15.5q-53 0 -80.5 -31t-27.5 -78z" />
    <glyph glyph-name="scaron" unicode="&#x161;" horiz-adv-x="338" 
d="M92 726q0 2 2.5 3.5t5.5 1t3 -1.5l69 -155l68 155q0 1 3 1.5t5.5 -1t1.5 -3.5l-67 -249q-1 -5 -11 -5t-12 5zM104 328q0 -18 6.5 -33t21.5 -27.5t26.5 -19.5t33.5 -19q27 -14 38.5 -21t30 -22t26.5 -33t8 -41q0 -51 -38 -87t-105 -36q-53 0 -97 30q-6 4 -6 12l-2 81
q0 3 5.5 3.5t6.5 -2.5q38 -105 122 -105q64 0 61 61q0 20 -7 35.5t-22.5 28t-27 19.5t-33.5 18q-26 13 -37.5 20t-29 21.5t-25 32.5t-7.5 42q0 55 40.5 83.5t97.5 28.5q40 0 75 -15q9 -4 9 -11q0 -10 -1 -35.5t-1 -40.5q0 -2 -6 -2t-6 2q0 31 -33.5 56.5t-71.5 25.5
q-52 0 -52 -50z" />
    <glyph glyph-name="uni0162" unicode="&#x162;" horiz-adv-x="636" 
d="M588 650q1 4 6 4t5 -4q-9 -92 -9 -187q0 -2 -5.5 -2t-6.5 2q-4 77 -35.5 110t-97.5 33q-58 0 -73 -11t-15 -53v-461q0 -44 16.5 -56.5t78.5 -12.5q2 0 2 -6t-2 -6q-16 0 -58 1t-69 1q-14 -50 -9 -66.5t38 -35.5q54 -31 54 -77q0 -38 -27 -68t-80 -30q-66 0 -66 40
q0 13 9 22t23 9q13 0 21 -8t10.5 -17t11.5 -17t24 -8q32 0 32 35q0 26 -18.5 46.5t-66.5 46.5q-13 7 -14 11.5t6 18.5q17 41 37 98q-25 0 -66 -1t-57 -1q-2 0 -2 6t2 6q61 0 78.5 12.5t17.5 56.5v463q0 42 -15.5 52t-73.5 10q-62 0 -95.5 -33.5t-48.5 -109.5q0 -2 -3 -2.5
t-6 0.5t-3 2q14 95 14 184q0 5 6 5t6 -5q0 -22 54 -22q86 -3 201 -3q52 0 112 1.5t81 1.5q68 0 76 25z" />
    <glyph glyph-name="uni0163" unicode="&#x163;" horiz-adv-x="338" 
d="M312 54q2 1 4.5 -0.5t3 -4.5t-1.5 -5q-69 -56 -131 -56q-11 -43 -5.5 -55.5t40.5 -32.5q54 -31 54 -77q0 -38 -27 -68t-80 -30q-66 0 -66 40q0 13 9 22t23 9q13 0 21 -8t10.5 -17t11.5 -17t24 -8q32 0 32 35q0 26 -18.5 46.5t-66.5 46.5q-13 7 -14 11.5t6 18.5
q14 35 32 85q-83 6 -83 83v233q0 35 -9.5 45t-42.5 10q-3 0 -3 7t3 7q88 2 101 77q1 3 8 3t7 -3v-76q48 1 137 10q7 0 7 -23q0 -5 -1.5 -11.5t-4 -10t-4.5 -3.5q-56 13 -134 15v-246q0 -80 78 -80q42 0 80 28z" />
    <glyph glyph-name="Tcaron" unicode="&#x164;" horiz-adv-x="636" 
d="M306 687l-103 100q-2 2 1 5t5 2l109 -54l108 55q3 1 6 -3q1 -3 -1 -4l-102 -101q-11 -11 -23 0zM194 606q-62 0 -95.5 -33.5t-48.5 -109.5q0 -2 -3 -2.5t-6 0.5t-3 2q14 95 14 184q0 5 6 5t6 -5q0 -22 54 -22q86 -3 201 -3q52 0 112 1.5t81 1.5q68 0 76 25q1 4 6 4t5 -4
q-9 -92 -9 -187q0 -2 -5.5 -2t-6.5 2q-4 77 -35.5 110t-97.5 33q-58 0 -73 -11t-15 -53v-461q0 -44 16.5 -56.5t78.5 -12.5q2 0 2 -6t-2 -6q-16 0 -60 1t-73 1q-27 0 -71 -1t-61 -1q-2 0 -2 6t2 6q61 0 78.5 12.5t17.5 56.5v463q0 42 -15.5 52t-73.5 10z" />
    <glyph glyph-name="tcaron" unicode="&#x165;" horiz-adv-x="338" 
d="M217 432q-1 -2 -6 -1.5t-5 2.5l-8 272q0 5 14.5 -0.5t28.5 -15.5t13 -15zM312 54q2 1 4.5 -0.5t3 -4.5t-1.5 -5q-69 -56 -131 -56q-97 0 -97 84v233q0 35 -9.5 45t-42.5 10q-3 0 -3 7t3 7q88 2 101 77q1 3 8 3t7 -3v-76q48 1 137 10q7 0 7 -23q0 -5 -1.5 -11.5t-4 -10
t-4.5 -3.5q-56 13 -134 15v-246q0 -80 78 -80q42 0 80 28z" />
    <glyph glyph-name="Tbar" unicode="&#x166;" horiz-adv-x="632" 
d="M588 650q1 4 6 4t5 -4q-9 -92 -9 -187q0 -2 -5.5 -2t-6.5 2q-4 77 -35.5 110t-97.5 33q-58 0 -73 -11t-15 -53v-208h98q5 0 5 -11t-5 -11h-98v-231q0 -44 16.5 -56.5t78.5 -12.5q2 0 2 -6t-2 -6q-16 0 -60 1t-73 1q-27 0 -71 -1t-61 -1q-2 0 -2 6t2 6q61 0 78.5 12.5
t17.5 56.5v231h-98q-4 0 -4 11t4 11h98v210q0 42 -15.5 52t-73.5 10q-62 0 -95.5 -33.5t-48.5 -109.5q0 -2 -3 -2.5t-6 0.5t-3 2q14 95 14 184q0 5 6 5t6 -5q0 -22 54 -22q86 -3 201 -3q52 0 112 1.5t81 1.5q68 0 76 25z" />
    <glyph glyph-name="tbar" unicode="&#x167;" horiz-adv-x="339" 
d="M312 54q2 1 4.5 -0.5t3 -4.5t-1.5 -5q-69 -56 -131 -56q-97 0 -97 84v133h-39q-4 0 -4 11t4 11h39v78q0 35 -9.5 45t-42.5 10q-3 0 -3 7t3 7q88 2 101 77q1 3 8 3t7 -3v-76q48 1 137 10q7 0 7 -23q0 -5 -1.5 -11.5t-4 -10t-4.5 -3.5q-56 13 -134 15v-125h126q4 0 4 -11
t-4 -11h-126v-99q0 -80 78 -80q42 0 80 28z" />
    <glyph glyph-name="Utilde" unicode="&#x168;" horiz-adv-x="699" 
d="M450 765q28 0 50 27q2 2 5.5 -1.5t1.5 -5.5q-26 -39 -43 -52.5t-37 -13.5t-62 12.5t-67 12.5q-7 0 -12.5 -1t-9.5 -2.5t-8.5 -5l-6.5 -5t-6.5 -6.5t-6.5 -7t-5.5 1t-1.5 6q43 65 85 65q14 0 56.5 -12t67.5 -12zM572 512q0 101 -88 101q-3 0 -3 6t3 6q14 0 47 -1.5
t54 -1.5q17 0 48.5 1.5t44.5 1.5q2 0 2 -6t-2 -6q-80 0 -80 -101v-283q0 -113 -65 -177.5t-174 -64.5q-112 0 -179.5 64t-67.5 173v320q0 43 -15 56t-68 13q-2 0 -2 6t2 6q15 0 55 -1.5t64 -1.5q26 0 66 1.5t53 1.5q3 0 3 -6t-3 -6q-52 0 -67 -13.5t-15 -57.5v-283
q0 -118 52 -179.5t147 -61.5q89 0 138.5 55.5t49.5 154.5v284z" />
    <glyph glyph-name="utilde" unicode="&#x169;" horiz-adv-x="495" 
d="M115 478q-2 -2 -5.5 1t-1.5 6q43 65 85 65q14 0 56.5 -12t67.5 -12q28 0 50 27q2 2 5.5 -1.5t1.5 -5.5q-26 -39 -43 -52.5t-37 -13.5t-62 12.5t-67 12.5q-7 0 -12.5 -1t-9.5 -2.5t-8.5 -5l-6.5 -5t-6.5 -6.5t-6.5 -7zM487 58q4 2 7 -3.5t-1 -7.5l-121 -57q-2 -1 -4 -1
q-10 0 -19 24t-9 62q-75 -84 -156 -84q-51 0 -80 32t-29 91v153q0 72 -29 72q-12 0 -33 -9q-2 -1 -4.5 1.5t-2.5 5.5t2 4l115 53q2 1 4 1q3 0 7 -3t4 -6v-235q0 -115 84 -115q63 0 118 57v174q0 72 -30 72q-12 0 -33 -9q-4 -3 -6 4q-1 6 2 7l115 53q2 1 4 1q3 0 6.5 -3
t3.5 -6v-277q0 -64 34 -64q15 0 51 13z" />
    <glyph glyph-name="Umacron" unicode="&#x16a;" horiz-adv-x="699" 
d="M248 720q-7 0 -7 15t7 15h251q7 0 7 -15t-7 -15h-251zM572 512q0 101 -88 101q-3 0 -3 6t3 6q14 0 47 -1.5t54 -1.5q17 0 48.5 1.5t44.5 1.5q2 0 2 -6t-2 -6q-80 0 -80 -101v-283q0 -113 -65 -177.5t-174 -64.5q-112 0 -179.5 64t-67.5 173v320q0 43 -15 56t-68 13
q-2 0 -2 6t2 6q15 0 55 -1.5t64 -1.5q26 0 66 1.5t53 1.5q3 0 3 -6t-3 -6q-52 0 -67 -13.5t-15 -57.5v-283q0 -118 52 -179.5t147 -61.5q89 0 138.5 55.5t49.5 154.5v284z" />
    <glyph glyph-name="umacron" unicode="&#x16b;" horiz-adv-x="495" 
d="M115 481q-7 0 -7 15t7 15h251q7 0 7 -15t-7 -15h-251zM487 58q4 2 7 -3.5t-1 -7.5l-121 -57q-2 -1 -4 -1q-10 0 -19 24t-9 62q-75 -84 -156 -84q-51 0 -80 32t-29 91v153q0 72 -29 72q-12 0 -33 -9q-2 -1 -4.5 1.5t-2.5 5.5t2 4l115 53q2 1 4 1q3 0 7 -3t4 -6v-235
q0 -115 84 -115q63 0 118 57v174q0 72 -30 72q-12 0 -33 -9q-4 -3 -6 4q-1 6 2 7l115 53q2 1 4 1q3 0 6.5 -3t3.5 -6v-277q0 -64 34 -64q15 0 51 13z" />
    <glyph glyph-name="Ubreve" unicode="&#x16c;" horiz-adv-x="699" 
d="M374 690q-90 0 -103 111q0 2 2.5 3t5.5 0.5t3 -1.5q5 -26 32 -45t60 -19t59.5 19t31.5 45q0 1 3 1.5t5.5 -0.5t2.5 -3q-13 -111 -102 -111zM572 512q0 101 -88 101q-3 0 -3 6t3 6q14 0 47 -1.5t54 -1.5q17 0 48.5 1.5t44.5 1.5q2 0 2 -6t-2 -6q-80 0 -80 -101v-283
q0 -113 -65 -177.5t-174 -64.5q-112 0 -179.5 64t-67.5 173v320q0 43 -15 56t-68 13q-2 0 -2 6t2 6q15 0 55 -1.5t64 -1.5q26 0 66 1.5t53 1.5q3 0 3 -6t-3 -6q-52 0 -67 -13.5t-15 -57.5v-283q0 -118 52 -179.5t147 -61.5q89 0 138.5 55.5t49.5 154.5v284z" />
    <glyph glyph-name="ubreve" unicode="&#x16d;" horiz-adv-x="495" 
d="M241 471q-103 0 -103 153q0 2 3 3t5.5 0.5t2.5 -1.5q0 -42 26.5 -70.5t65.5 -28.5q38 0 64.5 29t26.5 70q0 1 3 1.5t5.5 -0.5t2.5 -3q0 -153 -102 -153zM487 58q4 2 7 -3.5t-1 -7.5l-121 -57q-2 -1 -4 -1q-10 0 -19 24t-9 62q-75 -84 -156 -84q-51 0 -80 32t-29 91v153
q0 72 -29 72q-12 0 -33 -9q-2 -1 -4.5 1.5t-2.5 5.5t2 4l115 53q2 1 4 1q3 0 7 -3t4 -6v-235q0 -115 84 -115q63 0 118 57v174q0 72 -30 72q-12 0 -33 -9q-4 -3 -6 4q-1 6 2 7l115 53q2 1 4 1q3 0 6.5 -3t3.5 -6v-277q0 -64 34 -64q15 0 51 13z" />
    <glyph glyph-name="Uring" unicode="&#x16e;" horiz-adv-x="699" 
d="M365 707q-41 0 -66 23.5t-25 55.5q0 36 31 57t70 21q37 0 64 -23.5t27 -56.5q0 -35 -30.5 -56t-70.5 -21zM381 718q34 0 34 48q0 35 -17.5 61t-42.5 26q-31 0 -31 -47q0 -34 15.5 -61t41.5 -27zM572 512q0 101 -88 101q-3 0 -3 6t3 6q14 0 47 -1.5t54 -1.5q17 0 48.5 1.5
t44.5 1.5q2 0 2 -6t-2 -6q-80 0 -80 -101v-283q0 -113 -65 -177.5t-174 -64.5q-112 0 -179.5 64t-67.5 173v320q0 43 -15 56t-68 13q-2 0 -2 6t2 6q15 0 55 -1.5t64 -1.5q26 0 66 1.5t53 1.5q3 0 3 -6t-3 -6q-52 0 -67 -13.5t-15 -57.5v-283q0 -118 52 -179.5t147 -61.5
q89 0 138.5 55.5t49.5 154.5v284z" />
    <glyph glyph-name="uring" unicode="&#x16f;" horiz-adv-x="495" 
d="M232 468q-41 0 -66 23.5t-25 55.5q0 36 31.5 57t69.5 21q37 0 64 -23.5t27 -56.5q0 -35 -30.5 -56t-70.5 -21zM222 614q-31 0 -31 -47q0 -34 15.5 -61t41.5 -27q34 0 34 48q0 35 -17.5 61t-42.5 26zM487 58q4 2 7 -3.5t-1 -7.5l-121 -57q-2 -1 -4 -1q-10 0 -19 24t-9 62
q-75 -84 -156 -84q-51 0 -80 32t-29 91v153q0 72 -29 72q-12 0 -33 -9q-2 -1 -4.5 1.5t-2.5 5.5t2 4l115 53q2 1 4 1q3 0 7 -3t4 -6v-235q0 -115 84 -115q63 0 118 57v174q0 72 -30 72q-12 0 -33 -9q-4 -3 -6 4q-1 6 2 7l115 53q2 1 4 1q3 0 6.5 -3t3.5 -6v-277
q0 -64 34 -64q15 0 51 13z" />
    <glyph glyph-name="Uhungarumlaut" unicode="&#x170;" horiz-adv-x="699" 
d="M268 675q-4 -2 -6 3t0 7q41 41 90 101q5 8 49 -9q23 -9 22 -14q0 -2 -2 -3q-75 -33 -153 -85zM397 675q-4 -2 -6 3t0 7q40 41 90 101q5 8 47 -9q24 -10 22 -15q0 -1 -2 -2q-69 -30 -151 -85zM572 512q0 101 -88 101q-3 0 -3 6t3 6q14 0 47 -1.5t54 -1.5q17 0 48.5 1.5
t44.5 1.5q2 0 2 -6t-2 -6q-80 0 -80 -101v-283q0 -113 -65 -177.5t-174 -64.5q-112 0 -179.5 64t-67.5 173v320q0 43 -15 56t-68 13q-2 0 -2 6t2 6q15 0 55 -1.5t64 -1.5q26 0 66 1.5t53 1.5q3 0 3 -6t-3 -6q-52 0 -67 -13.5t-15 -57.5v-283q0 -118 52 -179.5t147 -61.5
q89 0 138.5 55.5t49.5 154.5v284z" />
    <glyph glyph-name="uhungarumlaut" unicode="&#x171;" horiz-adv-x="495" 
d="M148 455q-4 -1 -6.5 3.5t0.5 7.5q19 19 51 59.5t35 43.5q7 7 53 -9q23 -8 22 -13q0 -1 -2 -2q-57 -23 -153 -90zM273 455q-4 -1 -6.5 3.5t0.5 7.5q19 19 51 59.5t35 43.5q7 7 52 -9q23 -10 21 -15q-58 -24 -153 -90zM487 58q4 2 7 -3.5t-1 -7.5l-121 -57q-2 -1 -4 -1
q-10 0 -19 24t-9 62q-75 -84 -156 -84q-51 0 -80 32t-29 91v153q0 72 -29 72q-12 0 -33 -9q-2 -1 -4.5 1.5t-2.5 5.5t2 4l115 53q2 1 4 1q3 0 7 -3t4 -6v-235q0 -115 84 -115q63 0 118 57v174q0 72 -30 72q-12 0 -33 -9q-4 -3 -6 4q-1 6 2 7l115 53q2 1 4 1q3 0 6.5 -3
t3.5 -6v-277q0 -64 34 -64q15 0 51 13z" />
    <glyph glyph-name="Uogonek" unicode="&#x172;" horiz-adv-x="699" 
d="M678 625q2 0 2 -6t-2 -6q-80 0 -80 -101v-283q0 -93 -45 -154t-123 -80q-68 -62 -68 -134q0 -48 24.5 -76t69.5 -28q32 0 61 21q2 1 4.5 -0.5t3.5 -3.5t-1 -4q-52 -45 -109 -45q-53 0 -83 28t-30 73q0 81 102 164q-21 -3 -45 -3q-112 0 -179.5 64t-67.5 173v320
q0 43 -15 56t-68 13q-2 0 -2 6t2 6q15 0 55 -1.5t64 -1.5q26 0 66 1.5t53 1.5q3 0 3 -6t-3 -6q-52 0 -67 -13.5t-15 -57.5v-283q0 -118 52 -179.5t147 -61.5q89 0 138.5 55.5t49.5 154.5v284q0 101 -88 101q-3 0 -3 6t3 6q14 0 47 -1.5t54 -1.5q17 0 48.5 1.5t44.5 1.5z" />
    <glyph glyph-name="uogonek" unicode="&#x173;" horiz-adv-x="495" 
d="M488 58q4 1 6.5 -4t-1.5 -7l-56 -26q-66 -39 -96 -79t-30 -90q0 -96 87 -96q34 0 64 22q2 1 4.5 -0.5t3.5 -3.5t-1 -4q-52 -45 -111 -45q-54 0 -82.5 25.5t-28.5 70.5q0 89 115 170q-22 18 -22 84q-75 -84 -156 -84q-51 0 -80 32t-29 91v153q0 72 -29 72q-12 0 -33 -9
q-2 -1 -4.5 1.5t-2.5 5.5t2 4l115 53q2 1 4 1q3 0 7 -3t4 -6v-235q0 -115 84 -115q63 0 118 57v174q0 72 -30 72q-12 0 -33 -9q-4 -3 -6 4q-1 6 2 7l115 53q2 1 4 1q3 0 6.5 -3t3.5 -6v-277q0 -64 34 -64q13 0 31 6l20 9z" />
    <glyph glyph-name="Wcircumflex" unicode="&#x174;" horiz-adv-x="927" 
d="M361 687q-1 0 -3 1t-3 3t0 3l103 101q12 11 23 0l102 -101q2 -1 1.5 -3t-3 -3.5t-3.5 -0.5l-108 54zM931 625q3 0 3 -6t-3 -6q-71 0 -105 -86l-208 -526q-2 -4 -11 -4t-11 4l-130 281l-111 -281q-1 -4 -10.5 -4t-11.5 4l-249 541q-19 41 -36.5 56t-47.5 15q-3 0 -3 6t3 6
q12 0 37 -1.5t44 -1.5q35 0 74.5 1.5t49.5 1.5q3 0 3 -6t-3 -6q-42 0 -52 -14t8 -57l207 -444l85 213l-107 231q-17 38 -35 54.5t-44 16.5q-3 0 -3 6t3 6q12 0 36 -1.5t41 -1.5q28 0 57 1.5t36 1.5q3 0 3 -6t-3 -6q-31 0 -33 -12.5t19 -58.5l68 -146l54 136q17 43 11 62
t-38 19q-2 0 -2 6t2 6q8 0 26 -1.5t40 -1.5q18 0 44 1.5t41 1.5q2 0 2 -6t-2 -6q-68 0 -101 -86l-64 -159l127 -270l171 431q32 84 -64 84q-3 0 -3 6t3 6q15 0 47 -1.5t57 -1.5q20 0 46 1.5t43 1.5z" />
    <glyph glyph-name="wcircumflex" unicode="&#x175;" horiz-adv-x="673" 
d="M262 474q0 -2 -3 -2t-5.5 1.5t-2.5 2.5l68 249q1 5 11 5t12 -5l67 -249q1 -2 -2 -3q-7 -3 -8 1l-68 155zM672 386q3 0 3 -6t-3 -6q-25 0 -43 -17t-36 -59l-124 -297q-2 -4 -11.5 -4t-10.5 4l-115 242l-102 -242q-1 -4 -10.5 -4t-11.5 4l-142 302q-20 44 -34 57.5
t-34 13.5q-3 0 -3 6t3 6q9 0 33 -1t40 -1q24 0 58 1t47 1q3 0 3 -6t-3 -6q-34 0 -48.5 -8.5t-3.5 -30.5l121 -249l75 183l-16 34q-21 44 -33.5 57.5t-31.5 13.5q-2 0 -2 6t2 6q9 0 32.5 -1t37.5 -1q25 0 59 1t46 1q3 0 3 -6t-3 -6q-33 0 -47.5 -9t-3.5 -30l119 -250l89 217
q29 72 -69 72q-2 0 -2 6t2 6q14 0 45 -1t56 -1q15 0 36 1t33 1z" />
    <glyph glyph-name="Ycircumflex" unicode="&#x176;" horiz-adv-x="611" 
d="M211 687q-1 0 -3 1t-3 3t0 3l103 101q12 11 23 0l102 -101q2 -1 1.5 -3t-3 -3.5t-3.5 -0.5l-108 54zM616 625q2 0 2 -6t-2 -6q-35 0 -73.5 -28.5t-68.5 -77.5l-129 -200v-226q0 -44 14.5 -56.5t67.5 -12.5q3 0 3 -6t-3 -6q-14 0 -54 1t-65 1q-24 0 -64.5 -1t-55.5 -1
q-2 0 -2 6t2 6q53 0 68.5 12.5t15.5 56.5v210l-162 240q-30 46 -55 64t-55 18q-3 0 -3 6t3 6q11 0 35 -1.5t35 -1.5q30 0 80 1.5t64 1.5q2 0 2 -6t-2 -6q-73 0 -38 -49l157 -233l116 182q30 47 22 73.5t-53 26.5q-2 0 -2 6t2 6q16 0 53 -1.5t67 -1.5q17 0 40 1.5t38 1.5z
" />
    <glyph glyph-name="ycircumflex" unicode="&#x177;" horiz-adv-x="434" 
d="M156 474q0 -2 -3 -2t-5.5 1.5t-2.5 2.5l68 249q1 5 11 5t12 -5l67 -249q1 -2 -2 -3q-7 -3 -8 1l-68 155zM433 386q3 0 3 -6t-3 -6q-27 0 -45.5 -19t-35.5 -63l-120 -320q-54 -142 -102 -197.5t-113 -55.5q-53 0 -53 41q0 16 10 24.5t25 8.5q19 0 38.5 -12t35.5 -12
q36 0 67 47.5t80 174.5l-154 312q-23 44 -35 57.5t-31 13.5q-2 0 -2 6t2 6q11 0 35 -1t35 -1q25 0 59 1t46 1q2 0 2 -6t-2 -6q-36 0 -49.5 -8.5t-2.5 -30.5l129 -266l77 221q16 45 0.5 64.5t-66.5 19.5q-2 0 -2 6t2 6q14 0 45 -1t56 -1q15 0 35.5 1t33.5 1z" />
    <glyph glyph-name="Ydieresis" unicode="&#x178;" horiz-adv-x="611" 
d="M232 714q-45 0 -45 44q0 20 12 31.5t33 11.5q43 0 43 -43q0 -44 -43 -44zM407 714q-21 0 -33 11.5t-12 32.5q0 20 12 31t33 11q43 0 43 -42q0 -44 -43 -44zM616 625q2 0 2 -6t-2 -6q-35 0 -73.5 -28.5t-68.5 -77.5l-129 -200v-226q0 -44 14.5 -56.5t67.5 -12.5q3 0 3 -6
t-3 -6q-14 0 -54 1t-65 1q-24 0 -64.5 -1t-55.5 -1q-2 0 -2 6t2 6q53 0 68.5 12.5t15.5 56.5v210l-162 240q-30 46 -55 64t-55 18q-3 0 -3 6t3 6q11 0 35 -1.5t35 -1.5q30 0 80 1.5t64 1.5q2 0 2 -6t-2 -6q-73 0 -38 -49l157 -233l116 182q30 47 22 73.5t-53 26.5q-2 0 -2 6
t2 6q16 0 53 -1.5t67 -1.5q17 0 40 1.5t38 1.5z" />
    <glyph glyph-name="Zacute" unicode="&#x179;" horiz-adv-x="597" 
d="M217 679q-4 -2 -6 3t1 7q27 14 53.5 30.5l56 36.5t46.5 30q10 6 54 -15q22 -10 19 -14q0 -1 -2 -1q-108 -27 -222 -77zM56 13l387 587q3 5 2.5 6.5t-7.5 1.5q-65 0 -102 -0.5t-78 -2.5t-61 -4.5t-43 -9t-33 -13.5t-22 -20.5t-18.5 -27.5t-15.5 -36q0 -2 -3.5 -2t-6 1.5
t-2.5 2.5l40 159q0 1 3.5 1.5t6 -1t2.5 -2.5q-3 -18 7.5 -23t49.5 -5h365q5 0 7.5 -5t-0.5 -8l-382 -585q-4 -5 -3 -6.5t8 -1.5h245q129 0 150 119q1 2 6 2t5 -2l-14 -130q0 -10 -9 -10q-149 2 -478 2q-5 0 -7 4.5t1 8.5z" />
    <glyph glyph-name="zacute" unicode="&#x17a;" horiz-adv-x="405" 
d="M204 474q0 -2 -3 -2t-5.5 1.5t-2.5 2.5l49 240q2 8 45 14q24 3 22 -3zM40 12l237 354q4 7 -5 7q-108 0 -155.5 -18.5t-64.5 -73.5q0 -2 -3.5 -2t-6 1.5t-2.5 2.5l35 134q0 1 3.5 1.5t6 -0.5t2.5 -3q-4 -17 6.5 -23t41.5 -6h215q4 0 7 -4t1 -8l-235 -352q-3 -7 5 -7
q131 0 172 18t60 84q1 2 6 2t5 -2l-2 -106q0 -11 -9 -11h-313q-4 0 -6.5 4t-0.5 8z" />
    <glyph glyph-name="Zdotaccent" unicode="&#x17b;" horiz-adv-x="597" 
d="M314 713q-22 0 -34.5 12.5t-12.5 34.5q0 20 12.5 32t34.5 12q21 0 33 -12t12 -32q0 -47 -45 -47zM56 13l387 587q3 5 2.5 6.5t-7.5 1.5q-65 0 -102 -0.5t-78 -2.5t-61 -4.5t-43 -9t-33 -13.5t-22 -20.5t-18.5 -27.5t-15.5 -36q0 -2 -3.5 -2t-6 1.5t-2.5 2.5l40 159
q0 1 3.5 1.5t6 -1t2.5 -2.5q-3 -18 7.5 -23t49.5 -5h365q5 0 7.5 -5t-0.5 -8l-382 -585q-4 -5 -3 -6.5t8 -1.5h245q129 0 150 119q1 2 6 2t5 -2l-14 -130q0 -10 -9 -10q-149 2 -478 2q-5 0 -7 4.5t1 8.5z" />
    <glyph glyph-name="zdotaccent" unicode="&#x17c;" horiz-adv-x="405" 
d="M206 509q-22 0 -34.5 12t-12.5 34q0 20 12.5 32t34.5 12q21 0 33 -12t12 -32q0 -22 -12 -34t-33 -12zM40 12l237 354q4 7 -5 7q-108 0 -155.5 -18.5t-64.5 -73.5q0 -2 -3.5 -2t-6 1.5t-2.5 2.5l35 134q0 1 3.5 1.5t6 -0.5t2.5 -3q-4 -17 6.5 -23t41.5 -6h215q4 0 7 -4
t1 -8l-235 -352q-3 -7 5 -7q131 0 172 18t60 84q1 2 6 2t5 -2l-2 -106q0 -11 -9 -11h-313q-4 0 -6.5 4t-0.5 8z" />
    <glyph glyph-name="Zcaron" unicode="&#x17d;" horiz-adv-x="597" 
d="M302 687l-103 100q-2 2 1 5t5 2l109 -54l108 55q3 1 6 -3q1 -3 -1 -4l-102 -101q-11 -11 -23 0zM56 13l387 587q3 5 2.5 6.5t-7.5 1.5q-65 0 -102 -0.5t-78 -2.5t-61 -4.5t-43 -9t-33 -13.5t-22 -20.5t-18.5 -27.5t-15.5 -36q0 -2 -3.5 -2t-6 1.5t-2.5 2.5l40 159
q0 1 3.5 1.5t6 -1t2.5 -2.5q-3 -18 7.5 -23t49.5 -5h365q5 0 7.5 -5t-0.5 -8l-382 -585q-4 -5 -3 -6.5t8 -1.5h245q129 0 150 119q1 2 6 2t5 -2l-14 -130q0 -10 -9 -10q-149 2 -478 2q-5 0 -7 4.5t1 8.5z" />
    <glyph glyph-name="zcaron" unicode="&#x17e;" horiz-adv-x="405" 
d="M126 726q0 2 2.5 3.5t5.5 1t3 -1.5l69 -155l68 155q0 1 3 1.5t5.5 -1t1.5 -3.5l-67 -249q-1 -5 -11 -5t-12 5zM40 12l237 354q4 7 -5 7q-108 0 -155.5 -18.5t-64.5 -73.5q0 -2 -3.5 -2t-6 1.5t-2.5 2.5l35 134q0 1 3.5 1.5t6 -0.5t2.5 -3q-4 -17 6.5 -23t41.5 -6h215
q4 0 7 -4t1 -8l-235 -352q-3 -7 5 -7q131 0 172 18t60 84q1 2 6 2t5 -2l-2 -106q0 -11 -9 -11h-313q-4 0 -6.5 4t-0.5 8z" />
    <glyph glyph-name="longs" unicode="&#x17f;" horiz-adv-x="262" 
d="M30 0q-3 0 -3 6t3 6q42 0 54.5 13t12.5 56v225q0 36 -12 44.5t-59 8.5q-3 0 -3 7t3 7q40 0 55 9.5t16 35.5q5 165 56.5 236.5t154.5 71.5q48 0 77 -15.5t29 -38.5q0 -16 -11 -25t-28 -9t-28.5 11t-18 24.5t-21 24.5t-35.5 11q-109 0 -109 -270v-358q0 -44 14 -56.5
t69 -12.5q3 0 3 -6t-3 -6q-21 0 -59.5 1t-58.5 1q-19 0 -52.5 -1t-45.5 -1z" />
    <glyph glyph-name="uni018F" unicode="&#x18f;" horiz-adv-x="640" 
d="M281 636q69 0 123.5 -18.5t88 -49t55 -72t30 -83.5t8.5 -89q0 -156 -90.5 -246t-226.5 -90q-110 0 -167 56t-57 119q0 12 11 12l437 2q11 52 11 111q0 145 -59.5 239t-165.5 94q-66 0 -126 -37.5t-83 -107.5q-1 -2 -4 -2.5t-5.5 1t-2.5 3.5l43 162q1 6 7 3q4 -1 3 -4
q-3 -18 4.5 -25.5t22.5 -2.5q76 25 143 25zM304 7q140 0 184 151l-361 -5q7 -66 56.5 -106t120.5 -40z" />
    <glyph glyph-name="florin" unicode="&#x192;" horiz-adv-x="337" 
d="M291 726q42 0 64.5 -12t21.5 -33q-1 -14 -10.5 -23t-24.5 -9q-26 0 -37 30q-15 29 -42 29q-40 0 -59 -55.5t-35 -213.5l-6 -64q46 1 137 10q8 0 6 -26q-1 -6 -4 -12t-6 -9.5t-4 -2.5q-69 18 -130 21l-38 -420q-11 -110 -37.5 -149.5t-101.5 -61.5q-2 0 -4 2.5t-2 5t2 3.5
q33 13 51.5 53.5t25.5 126.5l33 390q3 36 -7 45t-55 9q-2 0 -2.5 3.5t1 7t3.5 3.5q38 0 52.5 9.5t15.5 34.5q18 169 61 238.5t131 69.5z" />
    <glyph glyph-name="Ohorn" unicode="&#x1a0;" horiz-adv-x="766" 
d="M736 660q0 -68 -108 -117q89 -94 89 -224q0 -138 -103.5 -234.5t-247.5 -96.5q-141 0 -229 94t-88 230q0 78 32 141.5t83.5 102.5t112.5 59.5t124 20.5q127 0 216 -82q56 27 56 60q0 10 -10.5 23.5t-10.5 28.5q0 18 13.5 29t29.5 11q20 0 30.5 -14t10.5 -32zM401 10
q101 0 166.5 74.5t65.5 206.5q0 142 -75 231.5t-198 89.5q-107 0 -167 -70.5t-60 -194.5q0 -144 75 -240.5t193 -96.5z" />
    <glyph glyph-name="ohorn" unicode="&#x1a1;" horiz-adv-x="481" 
d="M369 359q77 -60 77 -166q0 -92 -62.5 -149t-151.5 -57q-88 0 -142.5 61.5t-54.5 149.5q0 96 66 148.5t149 52.5q59 0 105 -30q41 24 41 52q0 10 -10.5 23.5t-10.5 28.5q0 18 13.5 29t29.5 11q20 0 30.5 -14t10.5 -32q0 -63 -90 -108zM261 6q109 0 109 158
q0 96 -43.5 155.5t-109.5 59.5q-51 0 -79 -38t-28 -111q0 -95 42.5 -159.5t108.5 -64.5z" />
    <glyph glyph-name="Uhorn" unicode="&#x1af;" horiz-adv-x="699" 
d="M598 512v-291q0 -110 -66 -172t-177 -62t-177 61.5t-66 167.5v328q0 43 -15 56t-68 13q-2 0 -2 6t2 6q15 0 55 -1.5t64 -1.5q26 0 66 1.5t53 1.5q3 0 3 -6t-3 -6q-52 0 -67 -13.5t-15 -57.5v-291q0 -115 52.5 -174t142.5 -59t141 53.5t51 148.5v292q0 101 -88 101
q-3 0 -3 6t3 6q14 0 47 -1.5t54 -1.5q48 0 70 10t22 34q0 12 -10 25t-10 26q0 18 13.5 29t30.5 11q19 0 29.5 -14t10.5 -34q0 -59 -90 -95q-15 -6 -24.5 -13.5t-19 -30.5t-9.5 -58z" />
    <glyph glyph-name="uhorn" unicode="&#x1b0;" horiz-adv-x="499" 
d="M487 58q4 2 7 -3.5t-1 -7.5l-121 -57q-2 -1 -4 -1q-10 0 -19 24t-9 62q-75 -84 -156 -84q-51 0 -80 32t-29 91v153q0 72 -29 72q-12 0 -33 -9q-2 -1 -4.5 1.5t-2.5 5.5t2 4l115 53q2 1 4 1q3 0 7 -3t4 -6v-235q0 -115 84 -115q63 0 118 57v174q0 49 -8.5 65t-30.5 16
q-13 0 -26 -3q-3 0 -4.5 3t-0.5 6t4 3q155 16 155 64q0 7 -8.5 22t-8.5 28q0 20 13.5 31t30.5 11q19 0 29.5 -13.5t10.5 -31.5q0 -55 -87 -95q-7 -3 -7 -9v-255q0 -64 34 -64q15 0 51 13z" />
    <glyph glyph-name="uni01CD" unicode="&#x1cd;" horiz-adv-x="704" 
d="M332 687l-103 100q-2 2 1 5t5 2l109 -54l108 55q3 1 6 -3q1 -3 -1 -4l-102 -101q-11 -11 -23 0zM702 12q4 0 4 -6t-4 -6q-19 0 -59 2t-59 2q-22 0 -55.5 -2t-51.5 -2q-5 0 -5 6t5 6q51 0 62.5 15.5t-9.5 59.5l-86 180h-239l-59 -137q-49 -118 84 -118q4 0 4 -6t-4 -6
q-19 0 -55 2t-63 2q-25 0 -58.5 -2t-53.5 -2q-4 0 -4 6t4 6q41 0 66.5 25.5t58.5 101.5l211 494q2 3 8 3t7 -3l238 -496q34 -73 58 -99t55 -26zM214 288h220l-116 242z" />
    <glyph glyph-name="uni01CE" unicode="&#x1ce;" horiz-adv-x="420" 
d="M200 477l-68 249q0 2 2.5 3.5t5.5 1t3 -1.5l69 -155l68 155q0 1 3 1.5t5.5 -1t1.5 -3.5l-67 -249q-1 -5 -11 -5t-12 5zM414 54q5 2 6.5 -3.5t-2.5 -7.5l-103 -49q-4 -2 -9 -2q-13 0 -23.5 17.5t-14.5 47.5l-50 -33q-45 -31 -85 -31q-38 0 -59 19.5t-21 49.5
q0 32 25.5 53.5t81.5 42.5l107 39v66q0 114 -61 114q-33 0 -50 -23t-22 -52q-6 -44 -41 -44q-18 0 -27 9t-9 22q0 38 65.5 72.5t120.5 34.5q41 0 63.5 -26.5t22.5 -76.5v-185q0 -66 39 -66q18 0 46 12zM228 48l39 24v6v105l-84 -34q-55 -21 -55 -61q0 -24 15.5 -39.5
t39.5 -15.5q20 0 45 15z" />
    <glyph glyph-name="uni01CF" unicode="&#x1cf;" horiz-adv-x="334" 
d="M155 687l-103 100q-2 2 1 5t5 2l109 -54l108 55q3 1 6 -3q1 -3 -1 -4l-102 -101q-12 -11 -23 0zM204 81q0 -44 14.5 -56.5t68.5 -12.5q2 0 2 -6t-2 -6q-15 0 -55 1t-66 1q-24 0 -64.5 -1t-55.5 -1q-3 0 -3 6t3 6q53 0 68.5 12.5t15.5 56.5v463q0 43 -15.5 56t-68.5 13
q-3 0 -3 6t3 6q15 0 55.5 -1.5t64.5 -1.5q26 0 66.5 1.5t54.5 1.5q2 0 2 -6t-2 -6q-52 0 -67.5 -13.5t-15.5 -57.5v-461z" />
    <glyph glyph-name="uni01D0" unicode="&#x1d0;" horiz-adv-x="271" 
d="M57 726q0 2 2.5 3.5t5.5 1t3 -1.5l69 -155l68 155q0 1 3 1.5t5.5 -1t1.5 -3.5l-67 -249q-2 -5 -11.5 -5t-11.5 5zM51 0q-3 0 -3 6t3 6q37 0 49 13.5t12 55.5v186q0 67 -32 67q-17 0 -44 -14q-3 -1 -5 1.5t-2 6t2 4.5l133 62l4 1q3 0 6.5 -3t3.5 -6q0 -4 -0.5 -20.5
t-1 -43t-0.5 -54.5v-187q0 -42 11.5 -55.5t49.5 -13.5q3 0 3 -6t-3 -6q-11 0 -42.5 1t-50.5 1q-20 0 -51 -1t-42 -1z" />
    <glyph glyph-name="uni01D1" unicode="&#x1d1;" horiz-adv-x="766" 
d="M373 687l-103 100q-2 2 1 5t5 2l109 -54l108 55q3 1 6 -3q1 -3 -1 -4l-102 -101q-12 -11 -23 0zM366 -12q-141 0 -229 94t-88 230q0 78 32 141.5t83.5 102.5t112.5 59.5t124 20.5q142 0 229 -95t87 -222q0 -138 -103.5 -234.5t-247.5 -96.5zM401 10q101 0 166.5 74.5
t65.5 206.5q0 142 -75 231.5t-198 89.5q-107 0 -167 -70.5t-60 -194.5q0 -144 75 -240.5t193 -96.5z" />
    <glyph glyph-name="uni01D2" unicode="&#x1d2;" horiz-adv-x="481" 
d="M161 726q0 2 2.5 3.5t5.5 1t3 -1.5l69 -155l68 155q0 1 3 1.5t5.5 -1t1.5 -3.5l-67 -249q-2 -5 -11.5 -5t-11.5 5zM232 -13q-88 0 -142.5 61.5t-54.5 149.5q0 96 66 148.5t149 52.5q88 0 142 -61.5t54 -144.5q0 -92 -62.5 -149t-151.5 -57zM261 6q109 0 109 158
q0 96 -43.5 155.5t-109.5 59.5q-51 0 -79 -38t-28 -111q0 -95 42.5 -159.5t108.5 -64.5z" />
    <glyph glyph-name="uni01D3" unicode="&#x1d3;" horiz-adv-x="699" 
d="M362 687l-103 100q-2 2 1 5t5 2l109 -54l108 55q3 1 6 -3q1 -3 -1 -4l-102 -101q-11 -11 -23 0zM572 512q0 101 -88 101q-3 0 -3 6t3 6q14 0 47 -1.5t54 -1.5q17 0 48.5 1.5t44.5 1.5q2 0 2 -6t-2 -6q-80 0 -80 -101v-283q0 -113 -65 -177.5t-174 -64.5q-112 0 -179.5 64
t-67.5 173v320q0 43 -15 56t-68 13q-2 0 -2 6t2 6q15 0 55 -1.5t64 -1.5q26 0 66 1.5t53 1.5q3 0 3 -6t-3 -6q-52 0 -67 -13.5t-15 -57.5v-283q0 -118 52 -179.5t147 -61.5q89 0 138.5 55.5t49.5 154.5v284z" />
    <glyph glyph-name="uni01D4" unicode="&#x1d4;" horiz-adv-x="495" 
d="M229 477l-68 249q0 2 2.5 3.5t5.5 1t3 -1.5l69 -155l68 155q0 1 3 1.5t5.5 -1t1.5 -3.5l-67 -249q-2 -5 -11.5 -5t-11.5 5zM487 58q4 2 7 -3.5t-1 -7.5l-121 -57q-2 -1 -4 -1q-10 0 -19 24t-9 62q-75 -84 -156 -84q-51 0 -80 32t-29 91v153q0 72 -29 72q-12 0 -33 -9
q-2 -1 -4.5 1.5t-2.5 5.5t2 4l115 53q2 1 4 1q3 0 7 -3t4 -6v-235q0 -115 84 -115q63 0 118 57v174q0 72 -30 72q-12 0 -33 -9q-4 -3 -6 4q-1 6 2 7l115 53q2 1 4 1q3 0 6.5 -3t3.5 -6v-277q0 -64 34 -64q15 0 51 13z" />
    <glyph glyph-name="uni01D5" unicode="&#x1d5;" horiz-adv-x="699" 
d="M256 841q-8 0 -8 15t8 15h235q7 0 7 -15t-7 -15h-235zM287 702q-21 0 -33 12t-12 33q0 20 12 31t33 11q20 0 31.5 -11t11.5 -31q0 -21 -11.5 -33t-31.5 -12zM462 702q-20 0 -32.5 12t-12.5 33q0 19 12 30t33 11q43 0 43 -41q0 -45 -43 -45zM572 512q0 101 -88 101
q-3 0 -3 6t3 6q14 0 47 -1.5t54 -1.5q17 0 48.5 1.5t44.5 1.5q2 0 2 -6t-2 -6q-80 0 -80 -101v-283q0 -113 -65 -177.5t-174 -64.5q-112 0 -179.5 64t-67.5 173v320q0 43 -15 56t-68 13q-2 0 -2 6t2 6q15 0 55 -1.5t64 -1.5q26 0 66 1.5t53 1.5q3 0 3 -6t-3 -6
q-52 0 -67 -13.5t-15 -57.5v-283q0 -118 52 -179.5t147 -61.5q89 0 138.5 55.5t49.5 154.5v284z" />
    <glyph glyph-name="uni01D6" unicode="&#x1d6;" horiz-adv-x="495" 
d="M123 602q-7 0 -7 15t7 15h235q8 0 8 -15t-8 -15h-235zM154 463q-21 0 -33 12t-12 33q0 20 12 31t33 11q20 0 31.5 -11t11.5 -31q0 -21 -11.5 -33t-31.5 -12zM329 549q43 0 43 -41q0 -45 -43 -45q-20 0 -32.5 12t-12.5 33q0 19 12 30t33 11zM487 58q4 2 7 -3.5t-1 -7.5
l-121 -57q-2 -1 -4 -1q-10 0 -19 24t-9 62q-75 -84 -156 -84q-51 0 -80 32t-29 91v153q0 72 -29 72q-12 0 -33 -9q-2 -1 -4.5 1.5t-2.5 5.5t2 4l115 53q2 1 4 1q3 0 7 -3t4 -6v-235q0 -115 84 -115q63 0 118 57v174q0 72 -30 72q-12 0 -33 -9q-4 -3 -6 4q-1 6 2 7l115 53
q2 1 4 1q3 0 6.5 -3t3.5 -6v-277q0 -64 34 -64q15 0 51 13z" />
    <glyph glyph-name="uni01D7" unicode="&#x1d7;" horiz-adv-x="699" 
d="M256 820q-2 -1 -4 1.5t-2 5t2 4.5q39 18 101 53.5l73 41.5q9 7 54 -15q20 -9 20 -13q0 -1 -3 -2q-132 -30 -241 -76zM287 702q-21 0 -33 12t-12 33q0 20 12 31t33 11q20 0 31.5 -11t11.5 -31q0 -21 -11.5 -33t-31.5 -12zM462 702q-20 0 -32.5 12t-12.5 33q0 19 12 30
t33 11q43 0 43 -41q0 -45 -43 -45zM572 512q0 101 -88 101q-3 0 -3 6t3 6q14 0 47 -1.5t54 -1.5q17 0 48.5 1.5t44.5 1.5q2 0 2 -6t-2 -6q-80 0 -80 -101v-283q0 -113 -65 -177.5t-174 -64.5q-112 0 -179.5 64t-67.5 173v320q0 43 -15 56t-68 13q-2 0 -2 6t2 6q15 0 55 -1.5
t64 -1.5q26 0 66 1.5t53 1.5q3 0 3 -6t-3 -6q-52 0 -67 -13.5t-15 -57.5v-283q0 -118 52 -179.5t147 -61.5q89 0 138.5 55.5t49.5 154.5v284z" />
    <glyph glyph-name="uni01D8" unicode="&#x1d8;" horiz-adv-x="495" 
d="M123 581q-2 -1 -4 1.5t-2 5t2 4.5q39 18 101 53.5l73 41.5q9 7 54 -15q20 -9 20 -13q0 -1 -3 -2q-132 -30 -241 -76zM154 463q-21 0 -33 12t-12 33q0 20 12 31t33 11q20 0 31.5 -11t11.5 -31q0 -21 -11.5 -33t-31.5 -12zM329 549q43 0 43 -41q0 -45 -43 -45
q-20 0 -32.5 12t-12.5 33q0 19 12 30t33 11zM487 58q4 2 7 -3.5t-1 -7.5l-121 -57q-2 -1 -4 -1q-10 0 -19 24t-9 62q-75 -84 -156 -84q-51 0 -80 32t-29 91v153q0 72 -29 72q-12 0 -33 -9q-2 -1 -4.5 1.5t-2.5 5.5t2 4l115 53q2 1 4 1q3 0 7 -3t4 -6v-235q0 -115 84 -115
q63 0 118 57v174q0 72 -30 72q-12 0 -33 -9q-4 -3 -6 4q-1 6 2 7l115 53q2 1 4 1q3 0 6.5 -3t3.5 -6v-277q0 -64 34 -64q15 0 51 13z" />
    <glyph glyph-name="uni01D9" unicode="&#x1d9;" horiz-adv-x="699" 
d="M365 815l-108 100q-1 1 0 3t3 3t3 1l114 -58l113 59q3 1 6 -3q1 -3 -1 -4l-108 -101q-4 -5 -10.5 -5t-11.5 5zM287 702q-21 0 -33 12t-12 33q0 20 12 31t33 11q20 0 31.5 -11t11.5 -31q0 -21 -11.5 -33t-31.5 -12zM462 702q-20 0 -32.5 12t-12.5 33q0 19 12 30t33 11
q43 0 43 -41q0 -45 -43 -45zM572 512q0 101 -88 101q-3 0 -3 6t3 6q14 0 47 -1.5t54 -1.5q17 0 48.5 1.5t44.5 1.5q2 0 2 -6t-2 -6q-80 0 -80 -101v-283q0 -113 -65 -177.5t-174 -64.5q-112 0 -179.5 64t-67.5 173v320q0 43 -15 56t-68 13q-2 0 -2 6t2 6q15 0 55 -1.5
t64 -1.5q26 0 66 1.5t53 1.5q3 0 3 -6t-3 -6q-52 0 -67 -13.5t-15 -57.5v-283q0 -118 52 -179.5t147 -61.5q89 0 138.5 55.5t49.5 154.5v284z" />
    <glyph glyph-name="uni01DA" unicode="&#x1da;" horiz-adv-x="495" 
d="M124 676q-1 1 0 3t3 3t3 1l114 -58l113 59q3 1 6 -3q1 -3 -1 -4l-108 -101q-4 -4 -11 -4t-11 4zM154 463q-21 0 -33 12t-12 33q0 20 12 31t33 11q20 0 31.5 -11t11.5 -31q0 -21 -11.5 -33t-31.5 -12zM329 549q43 0 43 -41q0 -45 -43 -45q-20 0 -32.5 12t-12.5 33
q0 19 12 30t33 11zM487 58q4 2 7 -3.5t-1 -7.5l-121 -57q-2 -1 -4 -1q-10 0 -19 24t-9 62q-75 -84 -156 -84q-51 0 -80 32t-29 91v153q0 72 -29 72q-12 0 -33 -9q-2 -1 -4.5 1.5t-2.5 5.5t2 4l115 53q2 1 4 1q3 0 7 -3t4 -6v-235q0 -115 84 -115q63 0 118 57v174
q0 72 -30 72q-12 0 -33 -9q-4 -3 -6 4q-1 6 2 7l115 53q2 1 4 1q3 0 6.5 -3t3.5 -6v-277q0 -64 34 -64q15 0 51 13z" />
    <glyph glyph-name="uni01DB" unicode="&#x1db;" horiz-adv-x="699" 
d="M506 820q-111 47 -241 76q-10 2 14 14q44 20 58 16q4 -2 69 -39t104 -56q4 -2 2 -7t-6 -4zM475 702q-44 0 -44 45q0 42 44 42q21 0 33 -11t12 -31q0 -21 -12 -33t-33 -12zM300 702q-20 0 -31.5 12t-11.5 33q0 41 43 41q44 0 44 -41q0 -45 -44 -45zM572 512q0 101 -88 101
q-3 0 -3 6t3 6q14 0 47 -1.5t54 -1.5q17 0 48.5 1.5t44.5 1.5q2 0 2 -6t-2 -6q-80 0 -80 -101v-283q0 -113 -65 -177.5t-174 -64.5q-112 0 -179.5 64t-67.5 173v320q0 43 -15 56t-68 13q-2 0 -2 6t2 6q15 0 55 -1.5t64 -1.5q26 0 66 1.5t53 1.5q3 0 3 -6t-3 -6
q-52 0 -67 -13.5t-15 -57.5v-283q0 -118 52 -179.5t147 -61.5q89 0 138.5 55.5t49.5 154.5v284z" />
    <glyph glyph-name="uni01DC" unicode="&#x1dc;" horiz-adv-x="495" 
d="M132 657q-10 2 14 14q44 20 58 16q4 -2 69 -39t104 -56q4 -2 2 -7t-6 -4q-111 47 -241 76zM342 550q21 0 33 -11t12 -31q0 -21 -12 -33t-33 -12q-44 0 -44 45q0 42 44 42zM167 463q-20 0 -31.5 12t-11.5 33q0 41 43 41q44 0 44 -41q0 -45 -44 -45zM487 58q4 2 7 -3.5
t-1 -7.5l-121 -57q-2 -1 -4 -1q-10 0 -19 24t-9 62q-75 -84 -156 -84q-51 0 -80 32t-29 91v153q0 72 -29 72q-12 0 -33 -9q-2 -1 -4.5 1.5t-2.5 5.5t2 4l115 53q2 1 4 1q3 0 7 -3t4 -6v-235q0 -115 84 -115q63 0 118 57v174q0 72 -30 72q-12 0 -33 -9q-4 -3 -6 4q-1 6 2 7
l115 53q2 1 4 1q3 0 6.5 -3t3.5 -6v-277q0 -64 34 -64q15 0 51 13z" />
    <glyph glyph-name="uni01E2" unicode="&#x1e2;" horiz-adv-x="877" 
d="M453 720q-7 0 -7 15t7 15h251q7 0 7 -15t-7 -15h-251zM816 150q1 3 6.5 2.5t5.5 -3.5q-9 -65 -9 -134q0 -15 -16 -15h-413q-2 0 -2 6t2 6q53 0 68 12.5t15 56.5v233h-169l-125 -186q-78 -116 48 -116q5 0 5 -6t-5 -6q-20 0 -58.5 2t-67.5 2q-23 0 -52.5 -2t-47.5 -2
q-5 0 -5 6t5 6q67 0 149 120l300 442q19 27 8 33t-72 6q-2 0 -2 6t2 6h400q9 0 9 -9l2 -125q0 -3 -5.5 -3t-5.5 3q-3 45 -35.5 78.5t-78.5 33.5h-52q-45 0 -60.5 -12.5t-15.5 -47.5v-207h107q50 0 72.5 17t22.5 55q0 2 6 2t6 -2q0 -22 -0.5 -47t-0.5 -36q0 -15 1 -45.5
t1 -48.5q0 -2 -6 -2t-6 2q0 44 -23 63.5t-75 19.5h-105v-229q0 -38 14 -50.5t58 -12.5h68q46 0 84 36.5t48 91.5zM319 336h154v228z" />
    </font>
</defs>
</svg>
